<svg width="40" height="35" viewBox="0 0 40 35" fill="none" xmlns="http://www.w3.org/2000/svg">
<rect y="0.5" width="40" height="34" rx="6" fill="white"/>
<path d="M21.0575 17.9994L25.7796 13.2848C25.9207 13.1436 26 12.9522 26 12.7526C26 12.553 25.9207 12.3616 25.7796 12.2204C25.6384 12.0793 25.447 12 25.2474 12C25.0478 12 24.8564 12.0793 24.7152 12.2204L20.0006 16.9425L15.2861 12.2204C15.1449 12.0793 14.9535 12 14.7539 12C14.5543 12 14.3629 12.0793 14.2217 12.2204C14.0806 12.3616 14.0013 12.553 14.0013 12.7526C14.0013 12.9522 14.0806 13.1436 14.2217 13.2848L18.9438 17.9994L14.2217 22.7139C14.1515 22.7836 14.0957 22.8665 14.0576 22.9579C14.0196 23.0492 14 23.1472 14 23.2461C14 23.3451 14.0196 23.443 14.0576 23.5344C14.0957 23.6257 14.1515 23.7086 14.2217 23.7783C14.2914 23.8485 14.3743 23.9043 14.4656 23.9424C14.557 23.9804 14.6549 24 14.7539 24C14.8528 24 14.9508 23.9804 15.0421 23.9424C15.1335 23.9043 15.2164 23.8485 15.2861 23.7783L20.0006 19.0562L24.7152 23.7783C24.7849 23.8485 24.8678 23.9043 24.9591 23.9424C25.0505 23.9804 25.1484 24 25.2474 24C25.3463 24 25.4443 23.9804 25.5357 23.9424C25.627 23.9043 25.7099 23.8485 25.7796 23.7783C25.8498 23.7086 25.9056 23.6257 25.9436 23.5344C25.9817 23.443 26.0013 23.3451 26.0013 23.2461C26.0013 23.1472 25.9817 23.0492 25.9436 22.9579C25.9056 22.8665 25.8498 22.7836 25.7796 22.7139L21.0575 17.9994Z" fill="#8B97A8"/>
</svg>
