<svg width="18" height="18" viewBox="0 0 18 18" fill="none" xmlns="http://www.w3.org/2000/svg">
<g clip-path="url(#clip0_779_9612)">
<path d="M9.00002 17.0925C7.62016 17.0925 6.27129 16.6833 5.12399 15.9167C3.97668 15.1501 3.08246 14.0605 2.55442 12.7857C2.02637 11.5109 1.88821 10.1081 2.1574 8.75475C2.4266 7.40141 3.09106 6.15829 4.06677 5.18258C5.04247 4.20688 6.28559 3.54241 7.63894 3.27322C8.99228 3.00402 10.3951 3.14218 11.6699 3.67023C12.9447 4.19828 14.0343 5.0925 14.8009 6.2398C15.5675 7.38711 15.9767 8.73598 15.9767 10.1158C15.9752 11.9657 15.2397 13.7394 13.9317 15.0475C12.6236 16.3556 10.8499 17.0911 9.00002 17.0925ZM9.00002 4.22791C7.83419 4.22791 6.69456 4.57369 5.72529 5.2215C4.75602 5.8693 4.00066 6.79004 3.55477 7.86722C3.10888 8.9444 2.99249 10.1296 3.22032 11.273C3.44816 12.4163 4.00998 13.4664 4.83472 14.2904C5.65946 15.1144 6.71006 15.6752 7.85361 15.902C8.99716 16.1288 10.1823 16.0113 11.2591 15.5644C12.3358 15.1175 13.2559 14.3613 13.9028 13.3915C14.5497 12.4216 14.8944 11.2817 14.8933 10.1158C14.8905 8.5542 14.2685 7.05743 13.1637 5.9537C12.059 4.84996 10.5616 4.22934 9.00002 4.22791Z" fill="white"/>
<path d="M8.37167 10.6954L8.46374 10.4408V9.35751L8.37709 9.61209C8.43126 9.61209 8.46374 9.48209 8.46374 9.35751L8.46376 6.05334H9.54709V9.35209C9.56512 9.51885 9.54837 9.68754 9.49791 9.84751C9.44745 10.0075 9.36436 10.1552 9.25391 10.2815C9.14346 10.4077 9.00803 10.5097 8.85618 10.5809C8.70433 10.6522 8.53935 10.6912 8.37167 10.6954ZM8.45834 1.41667H9.54167V3.58334H8.45834V1.41667Z" fill="white"/>
<path d="M10.625 0.875H7.37501C7.07586 0.875 6.83334 1.11751 6.83334 1.41667C6.83334 1.71582 7.07586 1.95833 7.37501 1.95833H10.625C10.9242 1.95833 11.1667 1.71582 11.1667 1.41667C11.1667 1.11751 10.9242 0.875 10.625 0.875Z" fill="white"/>
<path d="M4.30778 2.38452L2.68002 3.55008C2.43771 3.72359 2.38193 4.06068 2.55544 4.30299C2.72895 4.54531 3.06604 4.60109 3.30836 4.42758L4.93612 3.26202C5.17843 3.08851 5.23421 2.75142 5.0607 2.5091C4.88719 2.26679 4.5501 2.21101 4.30778 2.38452Z" fill="white"/>
<path d="M13.6745 2.38737C13.4311 2.21336 13.0928 2.26955 12.9188 2.51288C12.7448 2.75622 12.801 3.09454 13.0443 3.26856L14.6789 4.43753C14.9222 4.61155 15.2606 4.55536 15.4346 4.31202C15.6086 4.06869 15.5524 3.73036 15.3091 3.55634L13.6745 2.38737Z" fill="white"/>
</g>
<defs>
<clipPath id="clip0_779_9612">
<rect width="17.3333" height="17.3333" fill="white" transform="translate(0.333344 0.333328)"/>
</clipPath>
</defs>
</svg>
