<svg width="82" height="81" viewBox="0 0 82 81" fill="none" xmlns="http://www.w3.org/2000/svg">
<path d="M41.9416 8.66903C37.052 8.84466 32.2673 10.1261 27.9524 12.4157C23.9273 14.5512 20.4085 17.5158 17.6315 21.1109C14.1001 25.6758 11.8827 31.1061 11.2154 36.8232C10.4174 43.623 11.8495 50.4968 15.2992 56.4247C15.8616 57.3936 17.3258 56.5555 16.7634 55.5865C14.5243 51.7415 13.1691 47.4529 12.7945 43.0274C12.1566 35.5417 14.3587 28.0895 18.9691 22.1318C23.2563 16.5819 29.3539 12.6837 36.2179 11.1048C41.0769 9.98502 46.1389 10.0702 50.9569 11.3529C52.0462 11.6446 52.4854 10.0235 51.396 9.73183C48.3154 8.91271 45.1288 8.55449 41.9416 8.66903ZM43.09 12.8398C41.1411 12.8381 39.1973 13.0387 37.2903 13.4382C36.1892 13.6696 36.5388 15.3107 37.64 15.0794C39.432 14.704 41.2585 14.5152 43.09 14.5161C44.2317 14.5329 44.2317 12.823 43.09 12.8398ZM30.7492 15.7868C30.6174 15.7884 30.4879 15.8205 30.3709 15.8807C21.3758 20.4688 15.2231 29.7776 15.2231 40.4995C15.2063 41.6327 16.9289 41.6327 16.912 40.4995C16.912 30.4146 22.6931 21.6842 31.1427 17.3743C31.9466 16.9753 31.6494 15.77 30.7492 15.7868ZM62.1898 20.6884C62.0224 20.6891 61.8589 20.7392 61.7203 20.8323C61.5816 20.9254 61.4739 21.0573 61.4109 21.2112C61.3479 21.3652 61.3324 21.5343 61.3665 21.697C61.4005 21.8597 61.4825 22.0087 61.6021 22.125C66.3971 26.8823 69.1453 33.3007 69.2682 40.0288C69.391 46.757 66.8789 53.27 62.2608 58.1966C61.3825 59.0147 62.737 60.2652 63.4953 59.3365C68.4081 54.0913 71.0803 47.1596 70.9499 39.999C70.8195 32.8385 67.8967 26.0071 62.7961 20.9415C62.7171 20.861 62.6225 20.7971 62.5181 20.7537C62.4136 20.7102 62.3031 20.688 62.1898 20.6884ZM70.1614 55.1574C70.0099 55.156 69.8608 55.1951 69.7298 55.2706C69.5987 55.3461 69.4906 55.4553 69.4166 55.5865C61.016 70.0266 42.4381 74.9667 27.8899 66.6303C26.9137 66.0721 26.0693 67.5255 27.0455 68.0837C42.3841 76.8744 62.0243 71.6493 70.8809 56.4247C70.957 56.2979 70.9981 56.1534 70.9999 56.0058C71.0018 55.8582 70.9643 55.7127 70.8912 55.5841C70.8182 55.4555 70.7123 55.3483 70.5841 55.2734C70.456 55.1984 70.3101 55.1584 70.1614 55.1574ZM58.3729 61.7555C58.2116 61.7629 58.0557 61.8158 57.9236 61.908C57.0166 62.5275 56.0712 63.0896 55.093 63.5911C54.0307 64.0823 54.8465 65.653 55.8649 65.083C56.9073 64.5486 57.9147 63.9495 58.8813 63.2893C59.5957 62.82 59.2292 61.7136 58.3729 61.7555ZM48.1702 66.0017C48.1225 66.003 48.0751 66.0086 48.0284 66.0184C46.4206 66.3252 44.7688 66.4828 43.09 66.4828C41.9483 66.466 41.9483 68.1759 43.09 68.1591C44.8769 68.1591 46.6367 67.9915 48.3476 67.6646C49.3846 67.4836 49.2207 65.9631 48.1702 66.0017Z" fill="#00B383"/>
<path d="M43.09 17.7213C37.0037 17.7218 31.1669 20.1217 26.8632 24.3934C22.5596 28.665 20.1416 34.4584 20.1412 40.4994C20.1416 46.5404 22.5596 52.3339 26.8632 56.6055C31.1669 60.8772 37.0037 63.2771 43.09 63.2776C49.1763 63.2771 55.0131 60.8772 59.3167 56.6055C63.6204 52.3339 66.0383 46.5404 66.0388 40.4994C66.0383 34.4584 63.6204 28.665 59.3167 24.3934C55.0131 20.1217 49.1763 17.7218 43.09 17.7213ZM52.3435 32.3222C52.9903 32.3222 53.6372 32.5687 54.1337 33.0598C54.3699 33.2929 54.5574 33.57 54.6853 33.8753C54.8132 34.1805 54.8791 34.5078 54.8791 34.8384C54.8791 35.169 54.8132 35.4964 54.6853 35.8016C54.5574 36.1069 54.3699 36.384 54.1337 36.617L41.4771 49.1829C41.2423 49.4171 40.9632 49.603 40.6559 49.7298C40.3485 49.8566 40.0189 49.9219 39.686 49.9219C39.3531 49.9219 39.0235 49.8566 38.7162 49.7298C38.4088 49.603 38.1297 49.4171 37.895 49.1829L32.5209 43.8488C32.2849 43.6157 32.0977 43.3387 31.9699 43.0336C31.8421 42.7285 31.7763 42.4014 31.7763 42.071C31.7763 41.7406 31.8421 41.4135 31.9699 41.1084C32.0977 40.8033 32.2849 40.5263 32.5209 40.2933C32.7556 40.059 33.0347 39.8732 33.3421 39.7464C33.6495 39.6195 33.979 39.5543 34.3119 39.5543C34.6448 39.5543 34.9744 39.6195 35.2818 39.7464C35.5891 39.8732 35.8682 40.059 36.103 40.2933L39.6852 43.8488L50.5516 33.0615C50.7861 32.8271 51.065 32.6409 51.3722 32.5137C51.6794 32.3866 52.0089 32.3209 52.3418 32.3206L52.3435 32.3222Z" fill="#00B383"/>
<path d="M32.5192 40.2916C32.2831 40.5247 32.0959 40.8019 31.9681 41.1071C31.8403 41.4124 31.7745 41.7396 31.7745 42.0702C31.7745 42.4007 31.8403 42.728 31.9681 43.0332C32.0959 43.3384 32.2831 43.6156 32.5192 43.8488L37.8933 49.1812C38.1281 49.4152 38.4073 49.6009 38.7146 49.7276C39.022 49.8543 39.3515 49.9195 39.6843 49.9195C40.0171 49.9195 40.3467 49.8543 40.654 49.7276C40.9614 49.6009 41.2405 49.4152 41.4754 49.1812L54.1354 36.617C54.3715 36.3838 54.5587 36.1067 54.6865 35.8014C54.8143 35.4962 54.8801 35.1689 54.8801 34.8384C54.8801 34.5079 54.8143 34.1806 54.6865 33.8754C54.5587 33.5701 54.3715 33.293 54.1354 33.0598C53.9005 32.8255 53.6213 32.6396 53.3138 32.5128C53.0063 32.386 52.6765 32.3207 52.3435 32.3207C52.0105 32.3207 51.6807 32.386 51.3732 32.5128C51.0657 32.6396 50.7865 32.8255 50.5516 33.0598L39.6852 43.8471L36.103 40.2932C35.8681 40.059 35.5889 39.8731 35.2814 39.7462C34.9738 39.6194 34.6441 39.5541 34.3111 39.5541C33.9781 39.5541 33.6483 39.6194 33.3408 39.7462C33.0333 39.8731 32.7541 40.0573 32.5192 40.2916Z" fill="white"/>
<path d="M43.09 16.8831C29.9588 16.8831 19.2967 27.4658 19.2967 40.4994C19.2967 53.5329 29.9588 64.1157 43.09 64.1157C56.2212 64.1157 66.8833 53.5329 66.8833 40.4994C66.8833 27.4658 56.2212 16.8831 43.09 16.8831ZM43.09 18.5594C55.3092 18.5594 65.1944 28.371 65.1944 40.4994C65.1944 52.6277 55.3092 62.4393 43.09 62.4393C30.8708 62.4393 20.9856 52.6277 20.9856 40.4994C20.9856 28.371 30.8708 18.5594 43.09 18.5594ZM52.3435 31.489C51.4771 31.489 50.6107 31.8159 49.9537 32.468L39.6852 42.6635L36.7009 39.6997C36.0662 39.0737 35.2076 38.7223 34.3128 38.7223C33.4179 38.7223 32.5594 39.0737 31.9247 39.6997C31.2934 40.3298 30.939 41.1823 30.939 42.0709C30.939 42.9595 31.2934 43.812 31.9247 44.4421L37.2971 49.7746C37.9316 50.4011 38.7902 50.7527 39.6852 50.7527C40.5802 50.7527 41.4388 50.4011 42.0733 49.7746L54.7316 37.2087C55.3624 36.5787 55.7164 35.7266 55.7164 34.8384C55.7164 33.9502 55.3624 33.098 54.7316 32.468C54.418 32.1569 54.0456 31.9103 53.6358 31.7423C53.226 31.5743 52.7869 31.4882 52.3435 31.489ZM52.3435 33.152C52.7725 33.152 53.2015 33.3196 53.5375 33.6532C53.697 33.8073 53.8237 33.9916 53.9102 34.1952C53.9968 34.3987 54.0413 34.6174 54.0413 34.8384C54.0413 35.0593 53.9968 35.278 53.9102 35.4815C53.8237 35.6851 53.697 35.8694 53.5375 36.0235L40.8792 48.5894C40.7239 48.7477 40.5382 48.8734 40.3332 48.9593C40.1281 49.0452 39.9078 49.0894 39.6852 49.0894C39.4626 49.0894 39.2422 49.0452 39.0372 48.9593C38.8321 48.8734 38.6464 48.7477 38.4911 48.5894L33.1187 43.257C32.959 43.1028 32.8321 42.9184 32.7454 42.7147C32.6587 42.5109 32.614 42.2921 32.614 42.0709C32.614 41.8498 32.6587 41.6309 32.7454 41.4272C32.8321 41.2235 32.959 41.0391 33.1187 40.8849C33.2741 40.7267 33.4597 40.6009 33.6648 40.515C33.8698 40.4291 34.0902 40.3849 34.3128 40.3849C34.5354 40.3849 34.7557 40.4291 34.9608 40.515C35.1658 40.6009 35.3515 40.7267 35.5068 40.8849L39.0873 44.4421C39.1658 44.5202 39.2589 44.5821 39.3615 44.6244C39.4641 44.6666 39.5741 44.6884 39.6852 44.6884C39.7963 44.6884 39.9062 44.6666 40.0088 44.6244C40.1114 44.5821 40.2046 44.5202 40.2831 44.4421L51.1477 33.6532C51.3037 33.4953 51.4897 33.3697 51.695 33.2836C51.9003 33.1976 52.1207 33.1528 52.3435 33.152Z" fill="#00B383"/>
</svg>
