<svg width="41" height="40" viewBox="0 0 41 40" fill="none" xmlns="http://www.w3.org/2000/svg">
<rect x="0.5" width="40" height="40" rx="10" fill="#F8F8F8"/>
<path d="M27.5 11.8999H26.5V10.8999C26.5 10.2999 26.1 9.8999 25.5 9.8999C24.9 9.8999 24.5 10.2999 24.5 10.8999V11.8999H16.5V10.8999C16.5 10.2999 16.1 9.8999 15.5 9.8999C14.9 9.8999 14.5 10.2999 14.5 10.8999V11.8999H13.5C11.8 11.8999 10.5 13.1999 10.5 14.8999V28.8999C10.5 30.5999 11.8 31.8999 13.5 31.8999H27.5C29.2 31.8999 30.5 30.5999 30.5 28.8999V14.8999C30.5 13.2999 29.2 11.8999 27.5 11.8999ZM15.5 27.8999C14.9 27.8999 14.5 27.4999 14.5 26.8999C14.5 26.2999 14.9 25.8999 15.5 25.8999C16.1 25.8999 16.5 26.2999 16.5 26.8999C16.5 27.4999 16.1 27.8999 15.5 27.8999ZM15.5 23.8999C14.9 23.8999 14.5 23.4999 14.5 22.8999C14.5 22.2999 14.9 21.8999 15.5 21.8999C16.1 21.8999 16.5 22.2999 16.5 22.8999C16.5 23.4999 16.1 23.8999 15.5 23.8999ZM20.5 27.8999C19.9 27.8999 19.5 27.4999 19.5 26.8999C19.5 26.2999 19.9 25.8999 20.5 25.8999C21.1 25.8999 21.5 26.2999 21.5 26.8999C21.5 27.4999 21.1 27.8999 20.5 27.8999ZM20.5 23.8999C19.9 23.8999 19.5 23.4999 19.5 22.8999C19.5 22.2999 19.9 21.8999 20.5 21.8999C21.1 21.8999 21.5 22.2999 21.5 22.8999C21.5 23.4999 21.1 23.8999 20.5 23.8999ZM25.5 27.8999C24.9 27.8999 24.5 27.4999 24.5 26.8999C24.5 26.2999 24.9 25.8999 25.5 25.8999C26.1 25.8999 26.5 26.2999 26.5 26.8999C26.5 27.4999 26.1 27.8999 25.5 27.8999ZM25.5 23.8999C24.9 23.8999 24.5 23.4999 24.5 22.8999C24.5 22.2999 24.9 21.8999 25.5 21.8999C26.1 21.8999 26.5 22.2999 26.5 22.8999C26.5 23.4999 26.1 23.8999 25.5 23.8999ZM28.5 17.8999H12.5V14.8999C12.5 14.2999 12.9 13.8999 13.5 13.8999H14.5V14.8999C14.5 15.4999 14.9 15.8999 15.5 15.8999C16.1 15.8999 16.5 15.4999 16.5 14.8999V13.8999H24.5V14.8999C24.5 15.4999 24.9 15.8999 25.5 15.8999C26.1 15.8999 26.5 15.4999 26.5 14.8999V13.8999H27.5C28.1 13.8999 28.5 14.2999 28.5 14.8999V17.8999Z" fill="#3F60EE"/>
</svg>
