<svg width="24" height="24" viewBox="0 0 24 24" fill="none" xmlns="http://www.w3.org/2000/svg">
<path d="M13.0575 12.4994L17.7796 7.78477C17.9207 7.64363 18 7.45221 18 7.2526C18 7.053 17.9207 6.86157 17.7796 6.72043C17.6384 6.57929 17.447 6.5 17.2474 6.5C17.0478 6.5 16.8564 6.57929 16.7152 6.72043L12.0006 11.4425L7.28605 6.72043C7.14491 6.57929 6.95349 6.5 6.75388 6.5C6.55428 6.5 6.36285 6.57929 6.22171 6.72043C6.08057 6.86157 6.00128 7.053 6.00128 7.2526C6.00128 7.45221 6.08057 7.64363 6.22171 7.78477L10.9438 12.4994L6.22171 17.2139C6.15146 17.2836 6.0957 17.3665 6.05764 17.4579C6.01959 17.5492 6 17.6472 6 17.7461C6 17.8451 6.01959 17.943 6.05764 18.0344C6.0957 18.1257 6.15146 18.2086 6.22171 18.2783C6.29139 18.3485 6.37429 18.4043 6.46563 18.4424C6.55697 18.4804 6.65494 18.5 6.75388 18.5C6.85283 18.5 6.9508 18.4804 7.04214 18.4424C7.13348 18.4043 7.21637 18.3485 7.28605 18.2783L12.0006 13.5562L16.7152 18.2783C16.7849 18.3485 16.8678 18.4043 16.9591 18.4424C17.0505 18.4804 17.1484 18.5 17.2474 18.5C17.3463 18.5 17.4443 18.4804 17.5357 18.4424C17.627 18.4043 17.7099 18.3485 17.7796 18.2783C17.8498 18.2086 17.9056 18.1257 17.9436 18.0344C17.9817 17.943 18.0013 17.8451 18.0013 17.7461C18.0013 17.6472 17.9817 17.5492 17.9436 17.4579C17.9056 17.3665 17.8498 17.2836 17.7796 17.2139L13.0575 12.4994Z" fill="#8B97A8"/>
</svg>
