<svg width="17" height="18" viewBox="0 0 17 18" fill="none" xmlns="http://www.w3.org/2000/svg">
<path d="M14.62 14.78H13.6V5.60004C13.605 5.52567 13.585 5.45176 13.5431 5.39013C13.5012 5.32849 13.4398 5.28269 13.3688 5.26004L10.88 4.21964V14.78H10.2V2.88004C10.2 2.78987 10.1642 2.70339 10.1004 2.63962C10.0366 2.57586 9.95015 2.54004 9.85998 2.54004H3.73998C3.6498 2.54004 3.56332 2.57586 3.49956 2.63962C3.4358 2.70339 3.39998 2.78987 3.39998 2.88004V14.78H2.37998C2.2898 14.78 2.20332 14.8159 2.13956 14.8796C2.0758 14.9434 2.03998 15.0299 2.03998 15.12C2.03998 15.2102 2.0758 15.2967 2.13956 15.3605C2.20332 15.4242 2.2898 15.46 2.37998 15.46H14.62C14.7102 15.46 14.7966 15.4242 14.8604 15.3605C14.9242 15.2967 14.96 15.2102 14.96 15.12C14.96 15.0299 14.9242 14.9434 14.8604 14.8796C14.7966 14.8159 14.7102 14.78 14.62 14.78ZM11.9 6.62004H12.58C12.6702 6.62004 12.7566 6.65586 12.8204 6.71962C12.8842 6.78338 12.92 6.86987 12.92 6.96004C12.9182 7.04967 12.8819 7.13514 12.8185 7.19853C12.7551 7.26192 12.6696 7.2983 12.58 7.30004H11.9C11.8103 7.2983 11.7249 7.26192 11.6615 7.19853C11.5981 7.13514 11.5617 7.04967 11.56 6.96004C11.56 6.86987 11.5958 6.78338 11.6596 6.71962C11.7233 6.65586 11.8098 6.62004 11.9 6.62004ZM11.9 8.66004H12.58C12.6702 8.66004 12.7566 8.69586 12.8204 8.75962C12.8842 8.82338 12.92 8.90987 12.92 9.00004C12.92 9.09021 12.8842 9.17669 12.8204 9.24046C12.7566 9.30422 12.6702 9.34004 12.58 9.34004H11.9C11.8098 9.34004 11.7233 9.30422 11.6596 9.24046C11.5958 9.17669 11.56 9.09021 11.56 9.00004C11.56 8.90987 11.5958 8.82338 11.6596 8.75962C11.7233 8.69586 11.8098 8.66004 11.9 8.66004ZM11.9 10.7H12.58C12.6696 10.7018 12.7551 10.7382 12.8185 10.8015C12.8819 10.8649 12.9182 10.9504 12.92 11.04C12.92 11.1302 12.8842 11.2167 12.8204 11.2805C12.7566 11.3442 12.6702 11.38 12.58 11.38H11.9C11.8098 11.38 11.7233 11.3442 11.6596 11.2805C11.5958 11.2167 11.56 11.1302 11.56 11.04C11.5617 10.9504 11.5981 10.8649 11.6615 10.8015C11.7249 10.7382 11.8103 10.7018 11.9 10.7ZM11.9 12.74H12.58C12.6702 12.74 12.7566 12.7759 12.8204 12.8396C12.8842 12.9034 12.92 12.9899 12.92 13.08C12.92 13.1702 12.8842 13.2567 12.8204 13.3205C12.7566 13.3842 12.6702 13.42 12.58 13.42H11.9C11.8098 13.42 11.7233 13.3842 11.6596 13.3205C11.5958 13.2567 11.56 13.1702 11.56 13.08C11.56 12.9899 11.5958 12.9034 11.6596 12.8396C11.7233 12.7759 11.8098 12.74 11.9 12.74ZM7.47998 4.58004H8.15998C8.25015 4.58004 8.33663 4.61586 8.40039 4.67962C8.46416 4.74339 8.49998 4.82987 8.49998 4.92004C8.49998 5.01021 8.46416 5.09669 8.40039 5.16046C8.33663 5.22422 8.25015 5.26004 8.15998 5.26004H7.47998C7.3898 5.26004 7.30332 5.22422 7.23956 5.16046C7.1758 5.09669 7.13998 5.01021 7.13998 4.92004C7.13998 4.82987 7.1758 4.74339 7.23956 4.67962C7.30332 4.61586 7.3898 4.58004 7.47998 4.58004ZM7.47998 6.62004H8.15998C8.25015 6.62004 8.33663 6.65586 8.40039 6.71962C8.46416 6.78338 8.49998 6.86987 8.49998 6.96004C8.49998 7.05021 8.46416 7.13669 8.40039 7.20046C8.33663 7.26422 8.25015 7.30004 8.15998 7.30004H7.47998C7.3898 7.30004 7.30332 7.26422 7.23956 7.20046C7.1758 7.13669 7.13998 7.05021 7.13998 6.96004C7.13998 6.86987 7.1758 6.78338 7.23956 6.71962C7.30332 6.65586 7.3898 6.62004 7.47998 6.62004ZM7.47998 8.66004H8.15998C8.25015 8.66004 8.33663 8.69586 8.40039 8.75962C8.46416 8.82338 8.49998 8.90987 8.49998 9.00004C8.49998 9.09021 8.46416 9.17669 8.40039 9.24046C8.33663 9.30422 8.25015 9.34004 8.15998 9.34004H7.47998C7.3898 9.34004 7.30332 9.30422 7.23956 9.24046C7.1758 9.17669 7.13998 9.09021 7.13998 9.00004C7.13998 8.90987 7.1758 8.82338 7.23956 8.75962C7.30332 8.69586 7.3898 8.66004 7.47998 8.66004ZM7.47998 10.7H8.15998C8.25015 10.7 8.33663 10.7359 8.40039 10.7996C8.46416 10.8634 8.49998 10.9499 8.49998 11.04C8.49998 11.1302 8.46416 11.2167 8.40039 11.2805C8.33663 11.3442 8.25015 11.38 8.15998 11.38H7.47998C7.3898 11.38 7.30332 11.3442 7.23956 11.2805C7.1758 11.2167 7.13998 11.1302 7.13998 11.04C7.13998 10.9499 7.1758 10.8634 7.23956 10.7996C7.30332 10.7359 7.3898 10.7 7.47998 10.7ZM5.39918 4.58004H6.11998C6.21015 4.58004 6.29663 4.61586 6.36039 4.67962C6.42416 4.74339 6.45998 4.82987 6.45998 4.92004C6.45998 5.01021 6.42416 5.09669 6.36039 5.16046C6.29663 5.22422 6.21015 5.26004 6.11998 5.26004H5.43998C5.3498 5.26004 5.26332 5.22422 5.19956 5.16046C5.1358 5.09669 5.09998 5.01021 5.09998 4.92004C5.09998 4.82987 5.1358 4.74339 5.19956 4.67962C5.26332 4.61586 5.3498 4.58004 5.43998 4.58004H5.39918ZM5.39918 6.62004H6.11998C6.21015 6.62004 6.29663 6.65586 6.36039 6.71962C6.42416 6.78338 6.45998 6.86987 6.45998 6.96004C6.45998 7.05021 6.42416 7.13669 6.36039 7.20046C6.29663 7.26422 6.21015 7.30004 6.11998 7.30004H5.43998C5.3498 7.30004 5.26332 7.26422 5.19956 7.20046C5.1358 7.13669 5.09998 7.05021 5.09998 6.96004C5.09998 6.86987 5.1358 6.78338 5.19956 6.71962C5.26332 6.65586 5.3498 6.62004 5.43998 6.62004H5.39918ZM5.39918 8.66004H6.11998C6.21015 8.66004 6.29663 8.69586 6.36039 8.75962C6.42416 8.82338 6.45998 8.90987 6.45998 9.00004C6.45998 9.09021 6.42416 9.17669 6.36039 9.24046C6.29663 9.30422 6.21015 9.34004 6.11998 9.34004H5.43998C5.3498 9.34004 5.26332 9.30422 5.19956 9.24046C5.1358 9.17669 5.09998 9.09021 5.09998 9.00004C5.09998 8.90987 5.1358 8.82338 5.19956 8.75962C5.26332 8.69586 5.3498 8.66004 5.43998 8.66004H5.39918ZM5.39918 10.7H6.11998C6.21015 10.7 6.29663 10.7359 6.36039 10.7996C6.42416 10.8634 6.45998 10.9499 6.45998 11.04C6.45998 11.1302 6.42416 11.2167 6.36039 11.2805C6.29663 11.3442 6.21015 11.38 6.11998 11.38H5.43998C5.3498 11.38 5.26332 11.3442 5.19956 11.2805C5.1358 11.2167 5.09998 11.1302 5.09998 11.04C5.09998 10.9499 5.1358 10.8634 5.19956 10.7996C5.26332 10.7359 5.3498 10.7 5.43998 10.7H5.39918ZM7.13998 14.78V13.42H6.45998V14.78H5.77998V13.0596C5.78518 12.973 5.82329 12.8917 5.8865 12.8323C5.9497 12.7729 6.03323 12.7399 6.11998 12.74H7.47998C7.57015 12.74 7.65663 12.7759 7.72039 12.8396C7.78416 12.9034 7.81998 12.9899 7.81998 13.08V14.78H7.13998Z" fill="#8B97A8"/>
</svg>
