<svg width="82" height="82" viewBox="0 0 82 82" fill="none" xmlns="http://www.w3.org/2000/svg">
<path d="M49.1109 17C49.8034 17 50.4676 17.2751 50.9573 17.7648C51.4469 18.2544 51.722 18.9186 51.722 19.6111H56.9442C57.6367 19.6111 58.3009 19.8862 58.7905 20.3759C59.2802 20.8655 59.5553 21.5297 59.5553 22.2222C59.5553 22.9147 59.2802 23.5788 58.7905 24.0685C58.3009 24.5582 57.6367 24.8333 56.9442 24.8333H25.6111C24.9186 24.8333 24.2544 24.5582 23.7648 24.0685C23.2751 23.5788 23 22.9147 23 22.2222C23 21.5297 23.2751 20.8655 23.7648 20.3759C24.2544 19.8862 24.9186 19.6111 25.6111 19.6111H30.8333C30.8333 18.9186 31.1084 18.2544 31.5981 17.7648C32.0877 17.2751 32.7519 17 33.4444 17H49.1109Z" fill="#3B5DF1"/>
<path fill-rule="evenodd" clip-rule="evenodd" d="M25.6104 27.4448H56.9435V58.7779C56.9435 60.163 56.3933 61.4912 55.4139 62.4706C54.4346 63.4499 53.1063 64.0001 51.7213 64.0001H30.8325C29.4475 64.0001 28.1192 63.4499 27.1399 62.4706C26.1605 61.4912 25.6104 60.163 25.6104 58.7779V27.4448ZM34.7492 32.667C34.4029 32.667 34.0709 32.8046 33.826 33.0494C33.5812 33.2942 33.4436 33.6263 33.4436 33.9726V57.4724C33.4436 57.8187 33.5812 58.1507 33.826 58.3956C34.0709 58.6404 34.4029 58.7779 34.7492 58.7779C35.0954 58.7779 35.4275 58.6404 35.6723 58.3956C35.9172 58.1507 36.0547 57.8187 36.0547 57.4724V33.9726C36.0547 33.6263 35.9172 33.2942 35.6723 33.0494C35.4275 32.8046 35.0954 32.667 34.7492 32.667ZM47.8046 32.667C47.4584 32.667 47.1263 32.8046 46.8815 33.0494C46.6366 33.2942 46.4991 33.6263 46.4991 33.9726V57.4724C46.4991 57.8187 46.6366 58.1507 46.8815 58.3956C47.1263 58.6404 47.4584 58.7779 47.8046 58.7779C48.1509 58.7779 48.483 58.6404 48.7278 58.3956C48.9726 58.1507 49.1102 57.8187 49.1102 57.4724V33.9726C49.1102 33.6263 48.9726 33.2942 48.7278 33.0494C48.483 32.8046 48.1509 32.667 47.8046 32.667Z" fill="#3B5DF1"/>
</svg>
