<svg width="200" height="200" viewBox="0 0 200 200" fill="none" xmlns="http://www.w3.org/2000/svg">
<circle cx="105" cy="100" r="52" fill="#3F60EE"/>
<path d="M102.282 24.0497C90.7016 24.4688 79.3695 27.5265 69.1501 32.9897C59.6171 38.0855 51.2831 45.1595 44.7061 53.7378C36.3423 64.6303 31.0905 77.5879 29.5102 91.2298C27.6201 107.455 31.0119 123.857 39.1822 138.002C40.5142 140.314 43.982 138.314 42.65 136.002C37.347 126.827 34.1373 116.594 33.2501 106.034C31.7394 88.1719 36.9548 70.3898 47.874 56.1737C58.0279 42.9309 72.4694 33.6294 88.7261 29.8617C100.234 27.1899 112.223 27.3932 123.634 30.4538C126.214 31.1498 127.254 27.2817 124.674 26.5857C117.378 24.6312 109.831 23.7764 102.282 24.0497ZM105.002 34.0017C100.386 33.9978 95.7826 34.4764 91.2661 35.4297C88.6581 35.9817 89.4861 39.8977 92.0942 39.3457C96.3384 38.45 100.664 37.9996 105.002 38.0017C107.706 38.0417 107.706 33.9617 105.002 34.0017ZM75.7741 41.0337C75.462 41.0375 75.1552 41.1142 74.8781 41.2577C53.5741 52.2057 39.0021 74.4178 39.0021 100.002C38.9621 102.706 43.0421 102.706 43.0021 100.002C43.0021 75.9378 56.6941 55.1058 76.7061 44.8218C78.6101 43.8698 77.9061 40.9937 75.7741 41.0337ZM150.238 52.7298C149.842 52.7314 149.455 52.8508 149.126 53.073C148.798 53.2951 148.543 53.6099 148.393 53.9773C148.244 54.3447 148.208 54.7481 148.288 55.1363C148.369 55.5246 148.563 55.8801 148.846 56.1578C160.203 67.5093 166.712 82.8245 167.002 98.8788C167.293 114.933 161.344 130.474 150.406 142.23C148.326 144.182 151.534 147.166 153.33 144.95C164.966 132.434 171.294 115.894 170.986 98.8077C170.677 81.7216 163.754 65.4209 151.674 53.3337C151.487 53.1416 151.263 52.9892 151.016 52.8854C150.768 52.7816 150.506 52.7287 150.238 52.7298ZM169.118 134.978C168.759 134.975 168.406 135.068 168.096 135.248C167.785 135.428 167.529 135.689 167.354 136.002C147.458 170.458 103.458 182.246 69.0021 162.354C66.6901 161.022 64.6901 164.49 67.0021 165.822C103.33 186.798 149.846 174.33 170.822 138.002C171.002 137.699 171.1 137.354 171.104 137.002C171.108 136.65 171.02 136.303 170.847 135.996C170.674 135.689 170.423 135.433 170.119 135.254C169.816 135.076 169.47 134.98 169.118 134.978ZM141.198 150.722C140.816 150.74 140.447 150.866 140.134 151.086C137.986 152.564 135.747 153.905 133.43 155.102C130.914 156.274 132.846 160.022 135.258 158.662C137.727 157.386 140.113 155.957 142.402 154.382C144.094 153.262 143.226 150.622 141.198 150.722ZM117.034 160.854C116.921 160.857 116.809 160.87 116.698 160.894C112.89 161.626 108.978 162.002 105.002 162.002C102.298 161.962 102.298 166.042 105.002 166.002C109.234 166.002 113.402 165.602 117.454 164.822C119.91 164.39 119.522 160.762 117.034 160.854Z" fill="#3F60EE"/>
<path d="M91.8 87.8001C91.3001 88.3001 91.0192 88.9783 91.0192 89.6854C91.0192 90.3925 91.3001 91.0706 91.8 91.5707L101.229 101L91.8 110.429C91.5453 110.675 91.3422 110.97 91.2024 111.295C91.0626 111.62 90.9891 111.97 90.986 112.324C90.9829 112.678 91.0504 113.03 91.1845 113.357C91.3186 113.685 91.5166 113.983 91.7669 114.233C92.0173 114.483 92.3151 114.681 92.6428 114.816C92.9705 114.95 93.3217 115.017 93.6757 115.014C94.0298 115.011 94.3797 114.937 94.7051 114.798C95.0304 114.658 95.3247 114.455 95.5707 114.2L105 104.771L114.429 114.2C114.932 114.686 115.606 114.955 116.305 114.949C117.004 114.942 117.673 114.662 118.168 114.168C118.662 113.673 118.942 113.004 118.948 112.305C118.955 111.606 118.686 110.932 118.2 110.429L108.771 101L118.2 91.5707C118.686 91.0678 118.955 90.3942 118.948 89.695C118.942 88.9958 118.662 88.327 118.168 87.8325C117.673 87.3381 117.004 87.0577 116.305 87.0516C115.606 87.0455 114.932 87.3143 114.429 87.8001L105 97.2294L95.5707 87.8001C95.0706 87.3001 94.3924 87.0193 93.6853 87.0193C92.9782 87.0193 92.3001 87.3001 91.8 87.8001Z" fill="white"/>
</svg>
