<svg width="160" height="160" viewBox="0 0 160 160" fill="none" xmlns="http://www.w3.org/2000/svg">
<path d="M82.2281 4.048C70.6475 4.46709 59.3155 7.5248 49.096 12.988C39.563 18.0838 31.229 25.1578 24.652 33.7361C16.2883 44.6286 11.0365 57.5862 9.45607 71.2281C7.56607 87.4532 10.9579 103.855 19.1281 118C20.4601 120.312 23.928 118.312 22.596 116C17.293 106.825 14.0832 96.5919 13.1961 86.032C11.6853 68.1702 16.9007 50.3881 27.82 36.172C37.9739 22.9292 52.4154 13.6277 68.672 9.86002C80.1801 7.18817 92.1691 7.39153 103.58 10.4521C106.16 11.1481 107.2 7.28001 104.62 6.58401C97.3238 4.62946 89.7767 3.7747 82.2281 4.048ZM84.948 14C80.3321 13.9961 75.7285 14.4747 71.2121 15.428C68.6041 15.98 69.4321 19.896 72.0401 19.344C76.2843 18.4483 80.6103 17.9979 84.948 18C87.652 18.04 87.652 13.96 84.948 14ZM55.72 21.032C55.4079 21.0358 55.1011 21.1125 54.824 21.256C33.52 32.204 18.948 54.416 18.948 80.0001C18.908 82.7041 22.988 82.7041 22.948 80.0001C22.948 55.9361 36.64 35.104 56.652 24.82C58.556 23.868 57.852 20.992 55.72 21.032ZM130.184 32.7281C129.787 32.7297 129.4 32.8491 129.072 33.0713C128.743 33.2934 128.488 33.6082 128.339 33.9756C128.19 34.343 128.153 34.7464 128.234 35.1346C128.315 35.5229 128.509 35.8784 128.792 36.156C140.149 47.5076 146.657 62.8228 146.948 78.8771C147.239 94.9315 141.29 110.472 130.352 122.228C128.272 124.18 131.48 127.164 133.276 124.948C144.912 112.432 151.24 95.8921 150.932 78.806C150.623 61.7198 143.7 45.4192 131.62 33.332C131.433 33.1399 131.209 32.9875 130.961 32.8837C130.714 32.7799 130.452 32.727 130.184 32.7281ZM149.064 114.976C148.705 114.973 148.352 115.066 148.042 115.246C147.731 115.426 147.475 115.687 147.3 116C127.404 150.456 83.404 162.244 48.948 142.352C46.636 141.02 44.636 144.488 46.948 145.82C83.276 166.796 129.792 154.328 150.768 118C150.948 117.697 151.046 117.353 151.05 117C151.054 116.648 150.965 116.301 150.793 115.994C150.62 115.687 150.369 115.432 150.065 115.253C149.762 115.074 149.416 114.979 149.064 114.976ZM121.144 130.72C120.762 130.738 120.393 130.864 120.08 131.084C117.932 132.562 115.693 133.903 113.376 135.1C110.86 136.272 112.792 140.02 115.204 138.66C117.673 137.385 120.059 135.955 122.348 134.38C124.04 133.26 123.172 130.62 121.144 130.72ZM96.98 140.852C96.8671 140.855 96.7547 140.869 96.6441 140.892C92.8361 141.624 88.924 142 84.948 142C82.244 141.96 82.244 146.04 84.948 146C89.18 146 93.3481 145.6 97.4001 144.82C99.8561 144.388 99.468 140.76 96.98 140.852Z" fill="#00B383"/>
<path d="M84.948 25.6479C70.5333 25.649 56.7092 31.3757 46.5165 41.5684C36.3237 51.7612 30.597 65.5852 30.5959 79.9999C30.597 94.4146 36.3237 108.239 46.5165 118.431C56.7092 128.624 70.5333 134.351 84.948 134.352C99.3627 134.351 113.187 128.624 123.379 118.431C133.572 108.239 139.299 94.4146 139.3 79.9999C139.299 65.5852 133.572 51.7612 123.379 41.5684C113.187 31.3757 99.3627 25.649 84.948 25.6479ZM106.864 60.4879C108.396 60.4879 109.928 61.0759 111.104 62.2479C111.663 62.804 112.107 63.4653 112.41 64.1936C112.713 64.922 112.869 65.7031 112.869 66.4919C112.869 67.2808 112.713 68.0619 112.41 68.7902C112.107 69.5186 111.663 70.1798 111.104 70.7359L81.128 100.72C80.572 101.279 79.9109 101.722 79.183 102.025C78.455 102.327 77.6743 102.483 76.886 102.483C76.0976 102.483 75.3169 102.327 74.589 102.025C73.861 101.722 73.2001 101.279 72.644 100.72L59.916 87.9919C59.3571 87.4359 58.9137 86.7748 58.6111 86.0469C58.3085 85.3189 58.1526 84.5383 58.1526 83.7499C58.1526 82.9615 58.3085 82.181 58.6111 81.453C58.9137 80.725 59.3571 80.064 59.916 79.5079C60.4721 78.949 61.1331 78.5055 61.8611 78.2029C62.589 77.9003 63.3696 77.7445 64.1579 77.7445C64.9463 77.7445 65.727 77.9003 66.4549 78.2029C67.1829 78.5055 67.8439 78.949 68.4 79.5079L76.884 87.9919L102.62 62.2519C103.175 61.6925 103.836 61.2483 104.564 60.9449C105.291 60.6415 106.072 60.4848 106.86 60.4839L106.864 60.4879Z" fill="#00B383"/>
<path d="M59.912 79.5041C59.353 80.0605 58.9095 80.7218 58.6068 81.4501C58.3041 82.1784 58.1483 82.9593 58.1483 83.748C58.1483 84.5367 58.3041 85.3177 58.6068 86.046C58.9095 86.7743 59.353 87.4357 59.912 87.9921L72.64 100.716C73.1963 101.274 73.8574 101.718 74.5853 102.02C75.3133 102.322 76.0937 102.478 76.8819 102.478C77.6702 102.478 78.4506 102.322 79.1786 102.02C79.9065 101.718 80.5677 101.274 81.124 100.716L111.108 70.7361C111.667 70.1797 112.111 69.5183 112.413 68.79C112.716 68.0617 112.872 67.2808 112.872 66.4921C112.872 65.7034 112.716 64.9224 112.413 64.1941C112.111 63.4658 111.667 62.8044 111.108 62.248C110.552 61.6891 109.89 61.2455 109.162 60.9428C108.434 60.6401 107.653 60.4844 106.864 60.4844C106.075 60.4844 105.294 60.6401 104.566 60.9428C103.838 61.2455 103.176 61.6891 102.62 62.248L76.884 87.988L68.4 79.5081C67.8436 78.9491 67.1823 78.5055 66.454 78.2028C65.7257 77.9001 64.9447 77.7443 64.156 77.7443C63.3673 77.7443 62.5863 77.9001 61.858 78.2028C61.1297 78.5055 60.4684 78.9451 59.912 79.5041Z" fill="white"/>
<path d="M84.948 23.6479C53.848 23.6479 28.5959 48.8999 28.5959 79.9999C28.5959 111.1 53.848 136.352 84.948 136.352C116.048 136.352 141.3 111.1 141.3 79.9999C141.3 48.8999 116.048 23.6479 84.948 23.6479ZM84.948 27.6479C113.888 27.6479 137.3 51.0599 137.3 79.9999C137.3 108.94 113.888 132.352 84.948 132.352C56.008 132.352 32.5959 108.94 32.5959 79.9999C32.5959 51.0599 56.008 27.6479 84.948 27.6479ZM106.864 58.4999C104.812 58.4999 102.76 59.2799 101.204 60.8359L76.884 85.1639L69.816 78.0919C68.3127 76.598 66.2794 75.7595 64.16 75.7595C62.0406 75.7595 60.0073 76.598 58.504 78.0919C57.0089 79.5954 56.1695 81.6296 56.1695 83.7499C56.1695 85.8703 57.0089 87.9045 58.504 89.408L71.228 102.132C72.7308 103.627 74.7643 104.466 76.884 104.466C79.0037 104.466 81.0372 103.627 82.54 102.132L112.52 72.1479C114.014 70.6446 114.852 68.6113 114.852 66.4919C114.852 64.3726 114.014 62.3393 112.52 60.8359C111.777 60.0936 110.895 59.5051 109.925 59.1042C108.954 58.7034 107.914 58.498 106.864 58.4999ZM106.864 62.468C107.88 62.468 108.896 62.8679 109.692 63.6639C110.07 64.0318 110.37 64.4715 110.575 64.9572C110.78 65.4429 110.885 65.9648 110.885 66.4919C110.885 67.0191 110.78 67.5409 110.575 68.0266C110.37 68.5123 110.07 68.9521 109.692 69.3199L79.712 99.3039C79.3442 99.6816 78.9044 99.9817 78.4187 100.187C77.933 100.392 77.4112 100.497 76.884 100.497C76.3569 100.497 75.8349 100.392 75.3492 100.187C74.8635 99.9817 74.4239 99.6816 74.056 99.3039L61.332 86.58C60.9538 86.212 60.6532 85.772 60.4479 85.2859C60.2426 84.7999 60.1367 84.2776 60.1367 83.7499C60.1367 83.2223 60.2426 82.7 60.4479 82.2139C60.6532 81.7278 60.9538 81.2878 61.332 80.9199C61.6999 80.5423 62.1395 80.2422 62.6252 80.0373C63.1109 79.8324 63.6329 79.7267 64.16 79.7267C64.6872 79.7267 65.209 79.8324 65.6947 80.0373C66.1804 80.2422 66.6202 80.5423 66.988 80.9199L75.468 89.408C75.6538 89.5942 75.8744 89.7419 76.1174 89.8428C76.3604 89.9436 76.6209 89.9955 76.884 89.9955C77.1471 89.9955 77.4075 89.9436 77.6505 89.8428C77.8935 89.7419 78.1143 89.5942 78.3 89.408L104.032 63.6639C104.401 63.2871 104.842 62.9874 105.328 62.7821C105.814 62.5768 106.336 62.47 106.864 62.468Z" fill="#00B383"/>
</svg>
