<svg width="200" height="200" xmlns="http://www.w3.org/2000/svg" fill="none">

 <g>
  <title>Layer 1</title>
  <circle id="svg_1" fill="#007f00" r="52" cy="102.12766" cx="105"/>
  <path id="svg_2" fill="#007f00" d="m102.282,24.0497c-11.5804,0.4191 -22.9125,3.4768 -33.1319,8.94c-9.533,5.0958 -17.867,12.1698 -24.444,20.7481c-8.3638,10.8925 -13.6156,23.8501 -15.1959,37.492c-1.8901,16.2252 1.5017,32.6272 9.672,46.7722c1.332,2.312 4.7998,0.312 3.4678,-2c-5.303,-9.175 -8.5127,-19.408 -9.3999,-29.968c-1.5107,-17.8621 3.7047,-35.6442 14.6239,-49.8603c10.1539,-13.2428 24.5954,-22.5443 40.8521,-26.312c11.5079,-2.6718 23.4969,-2.4685 34.9079,0.5921c2.58,0.696 3.62,-3.1721 1.04,-3.8681c-7.296,-1.9545 -14.843,-2.8093 -22.392,-2.536zm2.72,9.952c-4.616,-0.0039 -9.2194,0.4747 -13.7359,1.428c-2.608,0.552 -1.78,4.468 0.8281,3.916c4.2442,-0.8957 8.5698,-1.3461 12.9078,-1.344c2.704,0.04 2.704,-4.04 0,-4zm-29.2279,7.032c-0.3121,0.0038 -0.6189,0.0805 -0.896,0.224c-21.304,10.948 -35.876,33.1601 -35.876,58.7443c-0.04,2.704 4.04,2.704 4,0c0,-24.0642 13.692,-44.8962 33.704,-55.1802c1.904,-0.952 1.2,-3.8281 -0.932,-3.7881zm74.4639,11.6961c-0.396,0.0016 -0.783,0.121 -1.112,0.3432c-0.328,0.2221 -0.583,0.5369 -0.733,0.9043c-0.149,0.3674 -0.185,0.7708 -0.105,1.159c0.081,0.3883 0.275,0.7438 0.558,1.0215c11.357,11.3515 17.866,26.6667 18.156,42.721c0.291,16.0542 -5.658,31.5952 -16.596,43.3512c-2.08,1.952 1.128,4.936 2.924,2.72c11.636,-12.516 17.964,-29.056 17.656,-46.1423c-0.309,-17.0861 -7.232,-33.3868 -19.312,-45.474c-0.187,-0.1921 -0.411,-0.3445 -0.658,-0.4483c-0.248,-0.1038 -0.51,-0.1567 -0.778,-0.1556zm18.88,82.2482c-0.359,-0.003 -0.712,0.09 -1.022,0.27c-0.311,0.18 -0.567,0.441 -0.742,0.754c-19.896,34.456 -63.896,46.244 -98.3519,26.352c-2.312,-1.332 -4.312,2.136 -2,3.468c36.3279,20.976 82.8439,8.508 103.8199,-27.82c0.18,-0.303 0.278,-0.648 0.282,-1c0.004,-0.352 -0.084,-0.699 -0.257,-1.006c-0.173,-0.307 -0.424,-0.563 -0.728,-0.742c-0.303,-0.178 -0.649,-0.274 -1.001,-0.276zm-27.92,15.744c-0.382,0.018 -0.751,0.144 -1.064,0.364c-2.148,1.478 -4.387,2.819 -6.704,4.016c-2.516,1.172 -0.584,4.92 1.828,3.56c2.469,-1.276 4.855,-2.705 7.144,-4.28c1.692,-1.12 0.824,-3.76 -1.204,-3.66zm-24.164,10.132c-0.113,0.003 -0.225,0.016 -0.336,0.04c-3.808,0.732 -7.72,1.108 -11.696,1.108c-2.704,-0.04 -2.704,4.04 0,4c4.232,0 8.4,-0.4 12.452,-1.18c2.456,-0.432 2.068,-4.06 -0.42,-3.968z"/>
  <path id="svg_14" d="m95.71004,92.59764c0.01539,0 0.02986,0.00603 0.04073,0.01696c0.0109,0.01094 0.01689,0.02551 0.01689,0.04101l0.02373,0c0,-0.04504 -0.0365,-0.08168 -0.08135,-0.08168l0,0.02371l0.00001,0zm0.00003,-0.04204c0.05487,0 0.09949,0.04488 0.09949,0.10003l0.02372,0c0,-0.06823 -0.05527,-0.12375 -0.12321,-0.12375l0,0.02372l0.00001,0zm0.0328,0.08346c0,0.00908 -0.00736,0.01644 -0.01643,0.01644s-0.01643,-0.00736 -0.01643,-0.01644c0,-0.00907 0.00736,-0.01643 0.01643,-0.01643s0.01643,0.00736 0.01643,0.01643z" stroke-width="0" stroke="null" fill="#ffffff"/>
  <path id="svg_15" d="m95.71004,98.9487c0.01539,0 0.02986,0.00603 0.04073,0.01696c0.0109,0.01094 0.01689,0.02551 0.01689,0.04101l0.02373,0c0,-0.04504 -0.0365,-0.08168 -0.08135,-0.08168l0,0.02371l0.00001,0zm0.00003,-0.04204c0.05487,0 0.09949,0.04488 0.09949,0.10003l0.02372,0c0,-0.06823 -0.05527,-0.12375 -0.12321,-0.12375l0,0.02372l0.00001,0zm0.0328,0.08346c0,0.00908 -0.00736,0.01644 -0.01643,0.01644s-0.01643,-0.00736 -0.01643,-0.01644c0,-0.00907 0.00736,-0.01643 0.01643,-0.01643s0.01643,0.00736 0.01643,0.01643z" stroke-width="0" stroke="null" fill="#ffffff"/>
  <path id="svg_16" d="m100.36749,93.23274c0.01539,0 0.02986,0.00603 0.04073,0.01696c0.0109,0.01094 0.01689,0.02551 0.01689,0.04101l0.02373,0c0,-0.04504 -0.0365,-0.08168 -0.08135,-0.08168l0,0.02371l0.00001,0zm0.00003,-0.04204c0.05487,0 0.09949,0.04488 0.09949,0.10003l0.02372,0c0,-0.06823 -0.05527,-0.12375 -0.12321,-0.12375l0,0.02372l0.00001,0zm0.0328,0.08346c0,0.00908 -0.00736,0.01644 -0.01643,0.01644s-0.01643,-0.00736 -0.01643,-0.01644c0,-0.00907 0.00736,-0.01643 0.01643,-0.01643s0.01643,0.00736 0.01643,0.01643z" stroke-width="0" stroke="null" fill="#ffffff"/>
  <path stroke="null" id="svg_19" d="m104.51691,73.12528c-15.37309,0 -27.83526,12.66742 -27.83526,28.29561c0,5.33957 1.4733,10.32966 4.00825,14.58981l-4.00825,11.91288l11.1599,-3.88186c4.65046,3.54669 10.41243,5.67676 16.67536,5.67676c15.37313,0 27.83527,-12.66949 27.83527,-28.29759s-12.46214,-28.29561 -27.83527,-28.29561zm1.95264,44.29587l-3.91514,0l0,-5.09077l3.91514,0l0,5.09077zm0,-10.52703l0,1.68391l-3.91514,0l0,-2.07251c0,-6.25454 5.25117,-7.24555 5.25117,-11.68666c0,-2.02732 -1.33604,-3.5817 -3.08767,-3.5817c-1.81347,0 -3.40584,1.81143 -3.40584,1.81143l-2.2272,-3.7544c0,0 2.19534,-3.1067 5.9827,-3.1067c3.59885,0 6.93908,3.02035 6.93908,8.10912c0.00191,7.12223 -5.5371,7.94052 -5.5371,12.59751l0,0z" stroke-width="0" fill="#ffffff"/>
 </g>
</svg>