<svg width="16" height="16" viewBox="0 0 16 16" fill="none" xmlns="http://www.w3.org/2000/svg">
<path d="M5.448 7.99997L1.44 10.6096V5.39037L5.448 7.99997ZM10.552 7.99997L14.56 10.6096V5.39037L10.552 7.99997ZM9.9664 8.38237L8.1744 9.54877C8.1216 9.58237 8.0608 9.59997 8 9.59997C7.9392 9.59997 7.8784 9.58237 7.8256 9.54877L6.0336 8.38237L1.7056 11.2L1.4544 11.3632C1.5328 11.8144 1.9264 12.16 2.4 12.16H13.6C14.0736 12.16 14.4672 11.816 14.5456 11.3632L14.2928 11.2L9.9664 8.38237ZM8 8.89757L14.2928 4.79997L14.5456 4.63677C14.4672 4.18397 14.0736 3.83997 13.6 3.83997H2.4C1.9264 3.83997 1.5328 4.18557 1.4544 4.63677L1.7056 4.79997L8 8.89757Z" fill="#8B97A8"/>
</svg>
