<svg width="41" height="40" viewBox="0 0 41 40" fill="none" xmlns="http://www.w3.org/2000/svg">
<rect x="0.5" width="40" height="40" rx="10" fill="#F8F8F8"/>
<path d="M17 12H15C14.6062 12.0001 14.2163 12.0779 13.8526 12.2291C13.489 12.3803 13.1588 12.6018 12.881 12.881C12.6018 13.1588 12.3803 13.489 12.2291 13.8526C12.0779 14.2163 12.0001 14.6062 12 15V17C12 17.825 12.337 18.575 12.881 19.119C13.1588 19.3982 13.489 19.6197 13.8526 19.7709C14.2163 19.9221 14.6062 19.9999 15 20H17C17.3938 19.9999 17.7837 19.9221 18.1474 19.7709C18.511 19.6197 18.8412 19.3982 19.119 19.119C19.3982 18.8412 19.6197 18.511 19.7709 18.1474C19.9221 17.7837 19.9999 17.3938 20 17V15C19.9999 14.6062 19.9221 14.2163 19.7709 13.8526C19.6197 13.489 19.3982 13.1588 19.119 12.881C18.8412 12.6018 18.511 12.3803 18.1474 12.2291C17.7837 12.0779 17.3938 12.0001 17 12ZM27 12H25C24.6062 12.0001 24.2163 12.0779 23.8526 12.2291C23.489 12.3803 23.1588 12.6018 22.881 12.881C22.6018 13.1588 22.3803 13.489 22.2291 13.8526C22.0779 14.2163 22.0001 14.6062 22 15V17C22 17.825 22.337 18.575 22.881 19.119C23.1588 19.3982 23.489 19.6197 23.8526 19.7709C24.2163 19.9221 24.6062 19.9999 25 20H27C27.3938 19.9999 27.7837 19.9221 28.1474 19.7709C28.511 19.6197 28.8412 19.3982 29.119 19.119C29.3982 18.8412 29.6197 18.511 29.7709 18.1474C29.9221 17.7837 29.9999 17.3938 30 17V15C29.9999 14.6062 29.9221 14.2163 29.7709 13.8526C29.6197 13.489 29.3982 13.1588 29.119 12.881C28.8412 12.6018 28.511 12.3803 28.1474 12.2291C27.7837 12.0779 27.3938 12.0001 27 12ZM17 22H15C14.6062 22.0001 14.2163 22.0779 13.8526 22.2291C13.489 22.3803 13.1588 22.6018 12.881 22.881C12.6018 23.1588 12.3803 23.489 12.2291 23.8526C12.0779 24.2163 12.0001 24.6062 12 25V27C12 27.825 12.337 28.575 12.881 29.119C13.1588 29.3982 13.489 29.6197 13.8526 29.7709C14.2163 29.9221 14.6062 29.9999 15 30H17C17.3938 29.9999 17.7837 29.9221 18.1474 29.7709C18.511 29.6197 18.8412 29.3982 19.119 29.119C19.3982 28.8412 19.6197 28.511 19.7709 28.1474C19.9221 27.7837 19.9999 27.3938 20 27V25C19.9999 24.6062 19.9221 24.2163 19.7709 23.8526C19.6197 23.489 19.3982 23.1588 19.119 22.881C18.8412 22.6018 18.511 22.3803 18.1474 22.2291C17.7837 22.0779 17.3938 22.0001 17 22ZM27 22H25C24.6062 22.0001 24.2163 22.0779 23.8526 22.2291C23.489 22.3803 23.1588 22.6018 22.881 22.881C22.6018 23.1588 22.3803 23.489 22.2291 23.8526C22.0779 24.2163 22.0001 24.6062 22 25V27C22 27.825 22.337 28.575 22.881 29.119C23.1588 29.3982 23.489 29.6197 23.8526 29.7709C24.2163 29.9221 24.6062 29.9999 25 30H27C27.3938 29.9999 27.7837 29.9221 28.1474 29.7709C28.511 29.6197 28.8412 29.3982 29.119 29.119C29.3982 28.8412 29.6197 28.511 29.7709 28.1474C29.9221 27.7837 29.9999 27.3938 30 27V25C29.9999 24.6062 29.9221 24.2163 29.7709 23.8526C29.6197 23.489 29.3982 23.1588 29.119 22.881C28.8412 22.6018 28.511 22.3803 28.1474 22.2291C27.7837 22.0779 27.3938 22.0001 27 22Z" fill="#3F60EE"/>
</svg>
