<svg width="41" height="40" viewBox="0 0 41 40" fill="none" xmlns="http://www.w3.org/2000/svg">
<path fill-rule="evenodd" clip-rule="evenodd" d="M28.06 26.3081C28.06 26.804 27.5938 27.2 27.0727 27.2H24.2377C24.1193 27.2028 24.0016 27.1817 23.8915 27.138C23.7814 27.0943 23.6813 27.0289 23.597 26.9457C23.5128 26.8624 23.4462 26.7631 23.4011 26.6535C23.3561 26.544 23.3336 26.4265 23.335 26.3081V23.6081C23.3332 23.4888 23.3553 23.3704 23.3999 23.2597C23.4446 23.1491 23.5109 23.0485 23.595 22.9639C23.6791 22.8793 23.7793 22.8123 23.8897 22.767C24.0001 22.7217 24.1184 22.6989 24.2377 22.7H27.0727C27.5947 22.7 28.06 23.1122 28.06 23.6081V26.3081ZM27.0727 20.9H24.2377C22.6717 20.9 21.445 22.1168 21.445 23.6081V26.3081C21.445 27.7994 22.6717 29 24.2377 29H27.0727C28.6387 29 29.95 27.7994 29.95 26.3081V23.6081C29.95 22.1168 28.6387 20.9 27.0727 20.9ZM17.665 26.3081C17.665 26.804 17.1988 27.2 16.6777 27.2H13.8427C13.7243 27.2028 13.6066 27.1817 13.4965 27.138C13.3864 27.0943 13.2863 27.0289 13.202 26.9457C13.1178 26.8624 13.0512 26.7631 13.0061 26.6535C12.9611 26.544 12.9386 26.4265 12.94 26.3081V23.6081C12.9382 23.4888 12.9603 23.3704 13.0049 23.2597C13.0496 23.1491 13.1159 23.0485 13.2 22.9639C13.2841 22.8793 13.3843 22.8123 13.4947 22.767C13.6051 22.7217 13.7234 22.6989 13.8427 22.7H16.6777C17.1997 22.7 17.665 23.1122 17.665 23.6081V26.3081ZM16.6777 20.9H13.8427C12.2767 20.9 11.05 22.1168 11.05 23.6081V26.3081C11.05 27.7994 12.2767 29 13.8427 29H16.6777C18.2437 29 19.555 27.7994 19.555 26.3081V23.6081C19.555 22.1168 18.2437 20.9 16.6777 20.9ZM28.06 16.4081C28.06 16.904 27.5938 17.3 27.0727 17.3H24.2377C24.1193 17.3028 24.0016 17.2817 23.8915 17.238C23.7814 17.1943 23.6813 17.1289 23.597 17.0457C23.5128 16.9624 23.4462 16.8631 23.4011 16.7535C23.3561 16.644 23.3336 16.5265 23.335 16.4081V13.7081C23.3332 13.5888 23.3553 13.4704 23.3999 13.3597C23.4446 13.2491 23.5109 13.1485 23.595 13.0639C23.6791 12.9793 23.7793 12.9123 23.8897 12.867C24.0001 12.8217 24.1184 12.7989 24.2377 12.8H27.0727C27.5947 12.8 28.06 13.2122 28.06 13.7081V16.4081ZM27.0727 11H24.2377C22.6717 11 21.445 12.2168 21.445 13.7081V16.4081C21.445 17.8994 22.6717 19.1 24.2377 19.1H27.0727C28.6387 19.1 29.95 17.8994 29.95 16.4081V13.7081C29.95 12.2168 28.6387 11 27.0727 11ZM17.665 16.4081C17.665 16.904 17.1988 17.3 16.6777 17.3H13.8427C13.7243 17.3028 13.6066 17.2817 13.4965 17.238C13.3864 17.1943 13.2863 17.1289 13.202 17.0457C13.1178 16.9624 13.0512 16.8631 13.0061 16.7535C12.9611 16.644 12.9386 16.5265 12.94 16.4081V13.7081C12.9382 13.5888 12.9603 13.4704 13.0049 13.3597C13.0496 13.2491 13.1159 13.1485 13.2 13.0639C13.2841 12.9793 13.3843 12.9123 13.4947 12.867C13.6051 12.8217 13.7234 12.7989 13.8427 12.8H16.6777C17.1997 12.8 17.665 13.2122 17.665 13.7081V16.4081ZM16.6777 11H13.8427C12.2767 11 11.05 12.2168 11.05 13.7081V16.4081C11.05 17.8994 12.2767 19.1 13.8427 19.1H16.6777C18.2437 19.1 19.555 17.8994 19.555 16.4081V13.7081C19.555 12.2168 18.2437 11 16.6777 11Z" fill="#8B97A8"/>
</svg>
