<svg width="200" height="200" xmlns="http://www.w3.org/2000/svg" fill="none">

 <g>
  <title>Layer 1</title>
  <circle id="svg_1" fill="#ff0000" r="52" cy="100.21277" cx="105.21277"/>
  <path id="svg_2" fill="#ff0000" d="m102.282,24.0497c-11.5804,0.4191 -22.9125,3.4768 -33.1319,8.94c-9.533,5.0958 -17.867,12.1698 -24.444,20.7481c-8.3638,10.8925 -13.6156,23.8501 -15.1959,37.492c-1.8901,16.2252 1.5017,32.6272 9.672,46.7722c1.332,2.312 4.7998,0.312 3.4678,-2c-5.303,-9.175 -8.5127,-19.408 -9.3999,-29.968c-1.5107,-17.8621 3.7047,-35.6442 14.6239,-49.8603c10.1539,-13.2428 24.5954,-22.5443 40.8521,-26.312c11.5079,-2.6718 23.4969,-2.4685 34.9079,0.5921c2.58,0.696 3.62,-3.1721 1.04,-3.8681c-7.296,-1.9545 -14.843,-2.8093 -22.392,-2.536zm2.72,9.952c-4.616,-0.0039 -9.2194,0.4747 -13.7359,1.428c-2.608,0.552 -1.78,4.468 0.8281,3.916c4.2442,-0.8957 8.5698,-1.3461 12.9078,-1.344c2.704,0.04 2.704,-4.04 0,-4zm-29.2279,7.032c-0.3121,0.0038 -0.6189,0.0805 -0.896,0.224c-21.304,10.948 -35.876,33.1601 -35.876,58.7443c-0.04,2.704 4.04,2.704 4,0c0,-24.0642 13.692,-44.8962 33.704,-55.1802c1.904,-0.952 1.2,-3.8281 -0.932,-3.7881zm74.4639,11.6961c-0.396,0.0016 -0.783,0.121 -1.112,0.3432c-0.328,0.2221 -0.583,0.5369 -0.733,0.9043c-0.149,0.3674 -0.185,0.7708 -0.105,1.159c0.081,0.3883 0.275,0.7438 0.558,1.0215c11.357,11.3515 17.866,26.6667 18.156,42.721c0.291,16.0542 -5.658,31.5952 -16.596,43.3512c-2.08,1.952 1.128,4.936 2.924,2.72c11.636,-12.516 17.964,-29.056 17.656,-46.1423c-0.309,-17.0861 -7.232,-33.3868 -19.312,-45.474c-0.187,-0.1921 -0.411,-0.3445 -0.658,-0.4483c-0.248,-0.1038 -0.51,-0.1567 -0.778,-0.1556zm18.88,82.2482c-0.359,-0.003 -0.712,0.09 -1.022,0.27c-0.311,0.18 -0.567,0.441 -0.742,0.754c-19.896,34.456 -63.896,46.244 -98.3519,26.352c-2.312,-1.332 -4.312,2.136 -2,3.468c36.3279,20.976 82.8439,8.508 103.8199,-27.82c0.18,-0.303 0.278,-0.648 0.282,-1c0.004,-0.352 -0.084,-0.699 -0.257,-1.006c-0.173,-0.307 -0.424,-0.563 -0.728,-0.742c-0.303,-0.178 -0.649,-0.274 -1.001,-0.276zm-27.92,15.744c-0.382,0.018 -0.751,0.144 -1.064,0.364c-2.148,1.478 -4.387,2.819 -6.704,4.016c-2.516,1.172 -0.584,4.92 1.828,3.56c2.469,-1.276 4.855,-2.705 7.144,-4.28c1.692,-1.12 0.824,-3.76 -1.204,-3.66zm-24.164,10.132c-0.113,0.003 -0.225,0.016 -0.336,0.04c-3.808,0.732 -7.72,1.108 -11.696,1.108c-2.704,-0.04 -2.704,4.04 0,4c4.232,0 8.4,-0.4 12.452,-1.18c2.456,-0.432 2.068,-4.06 -0.42,-3.968z"/>
  <text transform="matrix(1 0 0 0.910454 0 4.22764)" stroke="null" xml:space="preserve" text-anchor="start" font-family="Noto Sans JP" font-size="90" stroke-width="0" id="svg_8" y="133.05542" x="91.06383" fill="#ff0000">!</text>
  <path stroke="null" id="svg_11" d="m133.75261,115.50199l-7.80811,-15.5146c-2.35412,-4.67606 -6.2046,-12.33114 -8.55873,-17.0081l-7.80738,-15.51365c-2.35645,-4.6788 -6.20693,-4.6788 -8.56027,0l-7.8058,15.51365c-2.35412,4.67696 -6.20694,12.33382 -8.56028,17.0081l-7.80659,15.5146c-2.35411,4.68057 -0.42729,8.50629 4.28015,8.50629l48.34219,0c4.71215,0 6.63658,-3.82573 4.28482,-8.50629l0,0zm-26.2248,2.40178l-4.63097,0l0,-5.10122l4.63097,0l0,5.10122zm-0.22311,-8.86l-4.1808,0l-0.41549,-21.82625l4.97469,0l-0.37841,21.82625l0,0z" stroke-width="0" fill="#ffffff"/>
 </g>
</svg>