<svg width="21" height="21" viewBox="0 0 21 21" fill="none" xmlns="http://www.w3.org/2000/svg">
<path d="M0.5 3.48234H4.045C4.1668 4.17763 4.52988 4.8077 5.07036 5.26174C5.61085 5.71577 6.29412 5.96467 7 5.96467C7.70588 5.96467 8.38916 5.71577 8.92964 5.26174C9.47012 4.8077 9.8332 4.17763 9.955 3.48234H20.5C20.6326 3.48234 20.7598 3.42966 20.8536 3.33589C20.9473 3.24212 21 3.11495 21 2.98234C21 2.84973 20.9473 2.72255 20.8536 2.62878C20.7598 2.53502 20.6326 2.48234 20.5 2.48234H9.955C9.8332 1.78704 9.47012 1.15697 8.92964 0.702938C8.38916 0.248906 7.70588 0 7 0C6.29412 0 5.61085 0.248906 5.07036 0.702938C4.52988 1.15697 4.1668 1.78704 4.045 2.48234H0.5C0.367392 2.48234 0.240215 2.53502 0.146447 2.62878C0.0526784 2.72255 0 2.84973 0 2.98234C0 3.11495 0.0526784 3.24212 0.146447 3.33589C0.240215 3.42966 0.367392 3.48234 0.5 3.48234ZM7 0.982337C7.39556 0.982337 7.78224 1.09963 8.11114 1.3194C8.44004 1.53916 8.69638 1.85152 8.84776 2.21697C8.99913 2.58242 9.03874 2.98456 8.96157 3.37252C8.8844 3.76048 8.69392 4.11685 8.41421 4.39655C8.13451 4.67626 7.77814 4.86674 7.39018 4.94391C7.00222 5.02108 6.60009 4.98147 6.23463 4.8301C5.86918 4.67872 5.55682 4.42238 5.33706 4.09348C5.1173 3.76458 5 3.3779 5 2.98234C5 2.4519 5.21071 1.9432 5.58579 1.56812C5.96086 1.19305 6.46957 0.982337 7 0.982337ZM20.5 9.98234H16.955C16.8332 9.28704 16.4701 8.65697 15.9296 8.20294C15.3892 7.74891 14.7059 7.5 14 7.5C13.2941 7.5 12.6108 7.74891 12.0704 8.20294C11.5299 8.65697 11.1668 9.28704 11.045 9.98234H0.5C0.367392 9.98234 0.240215 10.035 0.146447 10.1288C0.0526784 10.2226 0 10.3497 0 10.4823C0 10.6149 0.0526784 10.7421 0.146447 10.8359C0.240215 10.9297 0.367392 10.9823 0.5 10.9823H11.045C11.1668 11.6776 11.5299 12.3077 12.0704 12.7617C12.6108 13.2158 13.2941 13.4647 14 13.4647C14.7059 13.4647 15.3892 13.2158 15.9296 12.7617C16.4701 12.3077 16.8332 11.6776 16.955 10.9823H20.5C20.6326 10.9823 20.7598 10.9297 20.8536 10.8359C20.9473 10.7421 21 10.6149 21 10.4823C21 10.3497 20.9473 10.2226 20.8536 10.1288C20.7598 10.035 20.6326 9.98234 20.5 9.98234ZM14 12.4823C13.6044 12.4823 13.2178 12.365 12.8889 12.1453C12.56 11.9255 12.3036 11.6132 12.1522 11.2477C12.0009 10.8823 11.9613 10.4801 12.0384 10.0922C12.1156 9.70419 12.3061 9.34783 12.5858 9.06812C12.8655 8.78842 13.2219 8.59794 13.6098 8.52077C13.9978 8.4436 14.3999 8.4832 14.7654 8.63458C15.1308 8.78595 15.4432 9.0423 15.6629 9.3712C15.8827 9.7001 16 10.0868 16 10.4823C16 11.0128 15.7893 11.5215 15.4142 11.8966C15.0391 12.2716 14.5304 12.4823 14 12.4823ZM20.5 17.4823H9.955C9.8332 16.787 9.47012 16.157 8.92964 15.7029C8.38916 15.2489 7.70588 15 7 15C6.29412 15 5.61085 15.2489 5.07036 15.7029C4.52988 16.157 4.1668 16.787 4.045 17.4823H0.5C0.367392 17.4823 0.240215 17.535 0.146447 17.6288C0.0526784 17.7226 0 17.8497 0 17.9823C0 18.1149 0.0526784 18.2421 0.146447 18.3359C0.240215 18.4297 0.367392 18.4823 0.5 18.4823H4.045C4.1668 19.1776 4.52988 19.8077 5.07036 20.2617C5.61085 20.7158 6.29412 20.9647 7 20.9647C7.70588 20.9647 8.38916 20.7158 8.92964 20.2617C9.47012 19.8077 9.8332 19.1776 9.955 18.4823H20.5C20.6326 18.4823 20.7598 18.4297 20.8536 18.3359C20.9473 18.2421 21 18.1149 21 17.9823C21 17.8497 20.9473 17.7226 20.8536 17.6288C20.7598 17.535 20.6326 17.4823 20.5 17.4823ZM7 19.9823C6.60444 19.9823 6.21776 19.865 5.88886 19.6453C5.55996 19.4255 5.30362 19.1132 5.15224 18.7477C5.00087 18.3823 4.96126 17.9801 5.03843 17.5922C5.1156 17.2042 5.30608 16.8478 5.58579 16.5681C5.86549 16.2884 6.22186 16.0979 6.60982 16.0208C6.99778 15.9436 7.39991 15.9832 7.76537 16.1346C8.13082 16.286 8.44318 16.5423 8.66294 16.8712C8.8827 17.2001 9 17.5868 9 17.9823C9 18.5128 8.78929 19.0215 8.41421 19.3965C8.03914 19.7716 7.53043 19.9823 7 19.9823Z" fill="black"/>
</svg>
