<svg width="26" height="27" viewBox="0 0 26 27" fill="none" xmlns="http://www.w3.org/2000/svg">
<rect opacity="0.7" y="0.5" width="26" height="26" rx="8" fill="#3F60EE"/>
<path d="M6.33333 8.82547H8.69667C8.77787 9.28978 9.01992 9.71054 9.38024 10.0137C9.74056 10.3169 10.1961 10.4832 10.6667 10.4832C11.1373 10.4832 11.5928 10.3169 11.9531 10.0137C12.3134 9.71054 12.5555 9.28978 12.6367 8.82547H19.6667C19.7551 8.82547 19.8399 8.79029 19.9024 8.72767C19.9649 8.66506 20 8.58013 20 8.49158C20 8.40302 19.9649 8.31809 19.9024 8.25548C19.8399 8.19286 19.7551 8.15768 19.6667 8.15768H12.6367C12.5555 7.69337 12.3134 7.27261 11.9531 6.96941C11.5928 6.66622 11.1373 6.5 10.6667 6.5C10.1961 6.5 9.74056 6.66622 9.38024 6.96941C9.01992 7.27261 8.77787 7.69337 8.69667 8.15768H6.33333C6.24493 8.15768 6.16014 8.19286 6.09763 8.25548C6.03512 8.31809 6 8.40302 6 8.49158C6 8.58013 6.03512 8.66506 6.09763 8.72767C6.16014 8.79029 6.24493 8.82547 6.33333 8.82547ZM10.6667 7.15599C10.9304 7.15599 11.1882 7.23433 11.4074 7.38108C11.6267 7.52784 11.7976 7.73643 11.8985 7.98047C11.9994 8.22452 12.0258 8.49306 11.9744 8.75213C11.9229 9.01121 11.7959 9.24919 11.6095 9.43597C11.423 9.62276 11.1854 9.74996 10.9268 9.80149C10.6681 9.85303 10.4001 9.82658 10.1564 9.72549C9.91279 9.6244 9.70455 9.45322 9.55804 9.23358C9.41153 9.01395 9.33333 8.75573 9.33333 8.49158C9.33333 8.13736 9.47381 7.79765 9.72386 7.54718C9.97391 7.29671 10.313 7.15599 10.6667 7.15599ZM19.6667 13.1661H17.3033C17.2221 12.7018 16.9801 12.281 16.6198 11.9778C16.2594 11.6746 15.8039 11.5084 15.3333 11.5084C14.8627 11.5084 14.4072 11.6746 14.0469 11.9778C13.6866 12.281 13.4445 12.7018 13.3633 13.1661H6.33333C6.24493 13.1661 6.16014 13.2013 6.09763 13.2639C6.03512 13.3265 6 13.4114 6 13.5C6 13.5886 6.03512 13.6735 6.09763 13.7361C6.16014 13.7987 6.24493 13.8339 6.33333 13.8339H13.3633C13.4445 14.2982 13.6866 14.719 14.0469 15.0222C14.4072 15.3254 14.8627 15.4916 15.3333 15.4916C15.8039 15.4916 16.2594 15.3254 16.6198 15.0222C16.9801 14.719 17.2221 14.2982 17.3033 13.8339H19.6667C19.7551 13.8339 19.8399 13.7987 19.9024 13.7361C19.9649 13.6735 20 13.5886 20 13.5C20 13.4114 19.9649 13.3265 19.9024 13.2639C19.8399 13.2013 19.7551 13.1661 19.6667 13.1661ZM15.3333 14.8356C15.0696 14.8356 14.8118 14.7573 14.5926 14.6105C14.3733 14.4637 14.2024 14.2552 14.1015 14.0111C14.0006 13.7671 13.9742 13.4985 14.0256 13.2394C14.0771 12.9804 14.2041 12.7424 14.3905 12.5556C14.577 12.3688 14.8146 12.2416 15.0732 12.1901C15.3319 12.1385 15.5999 12.165 15.8436 12.2661C16.0872 12.3672 16.2955 12.5384 16.442 12.758C16.5885 12.9776 16.6667 13.2358 16.6667 13.5C16.6667 13.8542 16.5262 14.1939 16.2761 14.4444C16.0261 14.6949 15.687 14.8356 15.3333 14.8356ZM19.6667 18.1745H12.6367C12.5555 17.7102 12.3134 17.2895 11.9531 16.9863C11.5928 16.6831 11.1373 16.5169 10.6667 16.5169C10.1961 16.5169 9.74056 16.6831 9.38024 16.9863C9.01992 17.2895 8.77787 17.7102 8.69667 18.1745H6.33333C6.24493 18.1745 6.16014 18.2097 6.09763 18.2723C6.03512 18.3349 6 18.4199 6 18.5084C6 18.597 6.03512 18.6819 6.09763 18.7445C6.16014 18.8071 6.24493 18.8423 6.33333 18.8423H8.69667C8.77787 19.3066 9.01992 19.7274 9.38024 20.0306C9.74056 20.3338 10.1961 20.5 10.6667 20.5C11.1373 20.5 11.5928 20.3338 11.9531 20.0306C12.3134 19.7274 12.5555 19.3066 12.6367 18.8423H19.6667C19.7551 18.8423 19.8399 18.8071 19.9024 18.7445C19.9649 18.6819 20 18.597 20 18.5084C20 18.4199 19.9649 18.3349 19.9024 18.2723C19.8399 18.2097 19.7551 18.1745 19.6667 18.1745ZM10.6667 19.844C10.403 19.844 10.1452 19.7657 9.92591 19.6189C9.70664 19.4722 9.53574 19.2636 9.43483 19.0195C9.33391 18.7755 9.30751 18.5069 9.35895 18.2479C9.4104 17.9888 9.53739 17.7508 9.72386 17.564C9.91033 17.3772 10.1479 17.25 10.4065 17.1985C10.6652 17.147 10.9333 17.1734 11.1769 17.2745C11.4205 17.3756 11.6288 17.5468 11.7753 17.7664C11.9218 17.9861 12 18.2443 12 18.5084C12 18.8626 11.8595 19.2024 11.6095 19.4528C11.3594 19.7033 11.0203 19.844 10.6667 19.844Z" fill="white"/>
</svg>
