<svg width="90" height="40" viewBox="0 0 90 40" fill="none" xmlns="http://www.w3.org/2000/svg">
<rect width="40" height="40" rx="10" fill="#F8F8F8"/>
<g clip-path="url(#clip0_1129_5056)">
<path d="M18.6586 27.9557V25.349C18.6586 24.6859 19.1991 24.1472 19.8689 24.1428H22.322C22.9949 24.1428 23.5404 24.6828 23.5404 25.349V27.9638C23.5403 28.5267 23.9941 28.9868 24.5626 29H26.198C27.8284 29 29.15 27.6916 29.15 26.0776V18.6622C29.1413 18.0272 28.8402 17.4309 28.3323 17.0431L22.7391 12.5825C21.7592 11.8058 20.3663 11.8058 19.3864 12.5825L13.8177 17.0512C13.3079 17.4375 13.0063 18.0347 13 18.6703V26.0776C13 27.6916 14.3216 29 15.952 29H17.5874C18.17 29 18.6423 28.5324 18.6423 27.9557" stroke="#8B97A8" stroke-width="1.5" stroke-linecap="round" stroke-linejoin="round"/>
</g>
<rect x="50" width="40" height="40" rx="10" fill="#F8F8F8"/>
<path d="M70 10.3922C67.6164 10.3922 65.6708 12.3378 65.6708 14.7214C65.6708 17.105 67.6164 19.0499 70 19.0499C72.3836 19.0499 74.3292 17.1043 74.3292 14.7214C74.3292 12.3371 72.3836 10.3922 70 10.3922ZM59.5961 29.6099C59.5963 29.7002 59.6144 29.7896 59.6493 29.873C59.6841 29.9564 59.735 30.032 59.7991 30.0957C59.8632 30.1593 59.9393 30.2097 60.0229 30.244C60.1065 30.2783 60.196 30.2957 60.2863 30.2953H79.7137C79.804 30.2957 79.8936 30.2783 79.9772 30.244C80.0607 30.2097 80.1368 30.1593 80.2009 30.0957C80.265 30.032 80.3159 29.9564 80.3508 29.873C80.3856 29.7896 80.4037 29.7002 80.4039 29.6099C80.4039 23.9717 75.8795 19.4191 70 19.2616C64.1205 19.4184 59.5961 23.971 59.5961 29.6099Z" fill="#3F60EE"/>
<defs>
<clipPath id="clip0_1129_5056">
<rect width="20" height="20" fill="white" transform="translate(11 11)"/>
</clipPath>
</defs>
</svg>
