<svg width="82" height="81" viewBox="0 0 82 81" fill="none" xmlns="http://www.w3.org/2000/svg">
<path d="M41.9416 8.66898C37.052 8.84462 32.2673 10.1261 27.9524 12.4156C23.9273 14.5512 20.4085 17.5158 17.6315 21.1108C14.1001 25.6757 11.8827 31.1061 11.2154 36.8232C10.4174 43.6229 11.8495 50.4968 15.2992 56.4247C15.8616 57.3936 17.3258 56.5554 16.7634 55.5865C14.5243 51.7415 13.1691 47.4528 12.7945 43.0273C12.1566 35.5417 14.3587 28.0895 18.9691 22.1317C23.2563 16.5818 29.3539 12.6837 36.2179 11.1047C41.0769 9.98498 46.1389 10.0702 50.9569 11.3528C52.0462 11.6445 52.4854 10.0235 51.396 9.73179C48.3154 8.91266 45.1288 8.55444 41.9416 8.66898ZM43.09 12.8397C41.1411 12.8381 39.1973 13.0387 37.2903 13.4382C36.1892 13.6695 36.5388 15.3107 37.64 15.0793C39.432 14.7039 41.2585 14.5152 43.09 14.5161C44.2317 14.5328 44.2317 12.823 43.09 12.8397ZM30.7492 15.7867C30.6174 15.7883 30.4879 15.8205 30.3709 15.8806C21.3758 20.4688 15.2231 29.7775 15.2231 40.4994C15.2063 41.6326 16.9289 41.6326 16.912 40.4994C16.912 30.4145 22.6931 21.6841 31.1427 17.3742C31.9466 16.9753 31.6494 15.77 30.7492 15.7867ZM62.1898 20.6884C62.0224 20.6891 61.8589 20.7391 61.7203 20.8322C61.5816 20.9253 61.4739 21.0572 61.4109 21.2112C61.3479 21.3652 61.3324 21.5342 61.3665 21.6969C61.4005 21.8596 61.4825 22.0087 61.6021 22.125C66.3971 26.8823 69.1453 33.3006 69.2682 40.0288C69.391 46.757 66.8789 53.2699 62.2608 58.1966C61.3825 59.0146 62.737 60.2652 63.4953 59.3365C68.4081 54.0913 71.0803 47.1595 70.9499 39.999C70.8195 32.8384 67.8967 26.007 62.7961 20.9415C62.7171 20.861 62.6225 20.7971 62.5181 20.7536C62.4136 20.7101 62.3031 20.6879 62.1898 20.6884ZM70.1614 55.1574C70.0099 55.156 69.8608 55.1951 69.7298 55.2706C69.5987 55.3461 69.4906 55.4552 69.4166 55.5865C61.016 70.0265 42.4381 74.9667 27.8899 66.6302C26.9137 66.072 26.0693 67.5254 27.0455 68.0836C42.3841 76.8744 62.0243 71.6492 70.8809 56.4247C70.957 56.2979 70.9981 56.1533 70.9999 56.0057C71.0018 55.8581 70.9643 55.7126 70.8912 55.584C70.8182 55.4554 70.7123 55.3482 70.5841 55.2733C70.456 55.1984 70.3101 55.1584 70.1614 55.1574ZM58.3729 61.7554C58.2116 61.7629 58.0557 61.8158 57.9236 61.908C57.0166 62.5274 56.0712 63.0895 55.093 63.591C54.0307 64.0822 54.8465 65.6529 55.8649 65.083C56.9073 64.5485 57.9147 63.9494 58.8813 63.2893C59.5957 62.8199 59.2292 61.7135 58.3729 61.7554ZM48.1702 66.0016C48.1225 66.003 48.0751 66.0086 48.0284 66.0184C46.4206 66.3252 44.7688 66.4827 43.09 66.4827C41.9483 66.466 41.9483 68.1758 43.09 68.1591C44.8769 68.1591 46.6367 67.9914 48.3476 67.6646C49.3846 67.4835 49.2207 65.9631 48.1702 66.0016Z" fill="#3F60EE"/>
<circle cx="42.5" cy="40.5" r="23.5" fill="#3F60EE"/>
<path d="M47.32 32.1V35.7H40.6V39.54H47.32V43.14L53.08 37.62L47.32 32.1ZM38.68 37.86L32.92 43.38L38.68 48.9V45.3H45.4V41.46H38.68V37.86Z" fill="white"/>
</svg>
