<svg width="41" height="40" viewBox="0 0 41 40" fill="none" xmlns="http://www.w3.org/2000/svg">
<rect x="0.5" width="40" height="40" rx="10" fill="#F8F8F8"/>
<path fill-rule="evenodd" clip-rule="evenodd" d="M20.5 30C26.023 30 30.5 25.523 30.5 20C30.5 14.477 26.023 10 20.5 10C14.977 10 10.5 14.477 10.5 20C10.5 25.523 14.977 30 20.5 30ZM21.5 15C21.5 14.7348 21.3946 14.4804 21.2071 14.2929C21.0196 14.1054 20.7652 14 20.5 14C20.2348 14 19.9804 14.1054 19.7929 14.2929C19.6054 14.4804 19.5 14.7348 19.5 15V19.586C19.5001 20.1164 19.7109 20.625 20.086 21L22.793 23.707C22.9816 23.8892 23.2342 23.99 23.4964 23.9877C23.7586 23.9854 24.0094 23.8802 24.1948 23.6948C24.3802 23.5094 24.4854 23.2586 24.4877 22.9964C24.49 22.7342 24.3892 22.4816 24.207 22.293L21.5 19.586V15Z" fill="#3F60EE"/>
</svg>
