<svg width="40" height="40" viewBox="0 0 40 40" fill="none" xmlns="http://www.w3.org/2000/svg">
<rect width="40" height="40" rx="10" fill="#F8F8F8"/>
<g clip-path="url(#clip0_802_12161)">
<path d="M18.6586 27.9557V25.349C18.6586 24.6859 19.1991 24.1472 19.8689 24.1428H22.322C22.9949 24.1428 23.5404 24.6828 23.5404 25.349V27.9638C23.5403 28.5267 23.9941 28.9868 24.5626 29H26.198C27.8284 29 29.15 27.6916 29.15 26.0776V18.6622C29.1413 18.0272 28.8402 17.4309 28.3323 17.0431L22.7391 12.5825C21.7592 11.8058 20.3663 11.8058 19.3864 12.5825L13.8177 17.0512C13.3079 17.4375 13.0063 18.0347 13 18.6703V26.0776C13 27.6916 14.3216 29 15.952 29H17.5874C18.17 29 18.6423 28.5324 18.6423 27.9557" stroke="#8B97A8" stroke-width="1.5" stroke-linecap="round" stroke-linejoin="round"/>
</g>
<defs>
<clipPath id="clip0_802_12161">
<rect width="20" height="20" fill="white" transform="translate(11 11)"/>
</clipPath>
</defs>
</svg>
