<svg width="21" height="20" viewBox="0 0 21 20" fill="none" xmlns="http://www.w3.org/2000/svg">
<rect width="21" height="20" fill="#CECECE"/>
<g id="&#208;&#179;&#208;&#187;&#208;&#176;&#208;&#178;&#208;&#189;&#209;&#143;" clip-path="url(#clip0_653_18225)">
<rect width="360" height="800" transform="translate(-263 -34)" fill="white"/>
<rect id="Rectangle 47" x="-263" y="-34" width="360" height="184" fill="#2F2E41"/>
<g id="Frame 363">
<g id="Frame 360">
<g id="Group 476">
<rect id="Rectangle 28" x="-10" y="-10" width="40" height="40" rx="10" fill="#F8F8F8"/>
<g id="Home" clip-path="url(#clip1_653_18225)">
<g id="home (2) 1">
<path id="Vector" d="M8.15863 16.9557V14.349C8.15862 13.6859 8.69915 13.1472 9.36886 13.1428H11.822C12.4949 13.1428 13.0404 13.6828 13.0404 14.349V16.9638C13.0403 17.5267 13.4941 17.9868 14.0626 18H15.698C17.3284 18 18.65 16.6916 18.65 15.0776V7.66216C18.6413 7.0272 18.3402 6.43095 17.8323 6.04308L12.2391 1.58251C11.2592 0.805831 9.86627 0.805831 8.8864 1.58251L3.31772 6.05117C2.80792 6.43747 2.50628 7.03472 2.5 7.67026V15.0776C2.5 16.6916 3.82164 18 5.45197 18H7.08742C7.67 18 8.14228 17.5324 8.14228 16.9557" fill="#3F60EE"/>
</g>
</g>
</g>
</g>
</g>
</g>
<defs>
<clipPath id="clip0_653_18225">
<rect width="360" height="800" fill="white" transform="translate(-263 -34)"/>
</clipPath>
<clipPath id="clip1_653_18225">
<rect width="20" height="20" fill="white" transform="translate(0.5)"/>
</clipPath>
</defs>
</svg>
