<svg width="40" height="40" viewBox="0 0 40 40" fill="none" xmlns="http://www.w3.org/2000/svg">
<rect width="40" height="40" rx="10" fill="#F8F8F8"/>
<g clip-path="url(#clip0_792_10790)">
<path d="M18.1586 26.9557V24.349C18.1586 23.6859 18.6991 23.1472 19.3689 23.1428H21.822C22.4949 23.1428 23.0404 23.6828 23.0404 24.349V26.9638C23.0403 27.5267 23.4941 27.9868 24.0626 28H25.698C27.3284 28 28.65 26.6916 28.65 25.0776V17.6622C28.6413 17.0272 28.3402 16.4309 27.8323 16.0431L22.2391 11.5825C21.2592 10.8058 19.8663 10.8058 18.8864 11.5825L13.3177 16.0512C12.8079 16.4375 12.5063 17.0347 12.5 17.6703V25.0776C12.5 26.6916 13.8216 28 15.452 28H17.0874C17.67 28 18.1423 27.5324 18.1423 26.9557" fill="#3F60EE"/>
</g>
<defs>
<clipPath id="clip0_792_10790">
<rect width="20" height="20" fill="white" transform="translate(10.5 10)"/>
</clipPath>
</defs>
</svg>
