<svg width="200" height="201" viewBox="0 0 200 201" fill="none" xmlns="http://www.w3.org/2000/svg">
<g clip-path="url(#clip0_845_403)">
<path d="M85.9119 87.5C85.9119 87.4993 85.9119 87.4979 85.9119 87.4972L91.1837 84.4315C91.5532 84.2166 91.7336 83.7806 91.6224 83.3671L89.4034 75.085C89.2929 74.6722 88.9193 74.3847 88.4915 74.3827L82.3946 74.365C82.3925 74.3623 82.3919 74.3583 82.3898 74.3549C81.4719 72.8179 80.4007 71.4017 79.1268 70.1196L80.6902 64.2132C80.7993 63.8003 80.6176 63.3644 80.2481 63.1508L72.8244 58.8634C72.4536 58.6498 71.9865 58.7101 71.6834 59.0125L67.3546 63.3156L67.3471 63.3115C65.5959 62.8471 63.8305 62.6261 62.0353 62.6003L58.977 57.3393C58.762 56.9691 58.3261 56.7895 57.9132 56.9L49.6332 59.1189C49.2197 59.2295 48.9322 59.6037 48.9309 60.0308L48.9126 66.1122C48.9058 66.1149 48.899 66.1183 48.8929 66.1223C47.3709 67.0098 45.9343 68.1156 44.6495 69.3928L38.7641 67.8342C38.3505 67.725 37.9146 67.9061 37.701 68.2769L33.4156 75.7013C33.2014 76.0722 33.2624 76.54 33.5641 76.843L37.8542 81.1603C37.8536 81.163 37.8522 81.1664 37.8515 81.1684C37.3871 82.9189 37.1492 84.7162 37.1234 86.5101L31.8909 89.5528C31.5207 89.7678 31.341 90.2037 31.4515 90.6159L33.6705 98.8979C33.781 99.3115 34.1546 99.5989 34.5824 99.6003L40.6481 99.6193L40.6617 99.6274C41.5817 101.168 42.6549 102.589 43.9336 103.874L43.9431 103.878L42.3837 109.77C42.2746 110.183 42.4556 110.619 42.8258 110.833L50.2495 115.119C50.6203 115.334 51.0875 115.272 51.3905 114.97L55.7146 110.672C57.4631 111.134 59.2258 111.354 61.017 111.381C61.0237 111.381 61.0305 111.38 61.0366 111.38L64.0963 116.644C64.3112 117.014 64.7471 117.194 65.1607 117.082L73.4407 114.864C73.8542 114.753 74.1417 114.379 74.1431 113.951L74.1614 107.876C75.6942 106.958 77.1248 105.858 78.4041 104.587C78.4048 104.586 78.4054 104.585 78.4061 104.585L84.3105 106.148C84.7241 106.257 85.1593 106.076 85.3736 105.705L89.6597 98.2796C89.8732 97.9095 89.8129 97.4423 89.5112 97.1379L85.2048 92.805C85.2088 92.7989 85.2115 92.7928 85.219 92.78C85.6339 91.043 85.9037 89.2634 85.9119 87.5ZM78.3858 96.7474C73.0102 106.06 61.0949 109.28 51.7539 103.886C42.4441 98.5094 39.2427 86.5603 44.6176 77.2478C49.9932 67.9366 61.9397 64.7345 71.2495 70.1095C80.5912 75.5047 83.7607 87.4362 78.3858 96.7474Z" fill="#3F60EE"/>
<path d="M61.5065 104.987C51.5797 104.987 43.5065 96.9143 43.5065 86.9909C43.5065 77.0675 51.5797 68.9943 61.5065 68.9943C71.4292 68.9943 79.5031 77.0675 79.5031 86.9909C79.5031 96.9143 71.4292 104.987 61.5065 104.987ZM61.5065 69.8817C52.0719 69.8817 44.3933 77.557 44.3933 86.9916C44.3933 96.4261 52.0719 104.101 61.5065 104.101C70.941 104.101 78.6163 96.4261 78.6163 86.9916C78.6163 77.557 70.941 69.8817 61.5065 69.8817Z" fill="#3F60EE"/>
<path d="M190.106 113.083C190.106 113.082 190.107 113.08 190.107 113.078L198.987 110.296C199.609 110.101 200.024 109.514 199.999 108.86L199.492 95.7875C199.468 95.1359 199.008 94.582 198.372 94.4349L189.306 92.3509C189.304 92.3461 189.304 92.3393 189.302 92.3346C188.455 89.738 187.339 87.2688 185.877 84.9312L190.196 76.6695C190.498 76.0919 190.375 75.3827 189.896 74.9393L180.297 66.0546C179.818 65.6112 179.102 65.5441 178.548 65.8912L170.654 70.8336L170.644 70.8248C168.195 69.5427 165.643 68.618 162.98 67.9739L160.205 59.1136C160.01 58.4905 159.422 58.0756 158.77 58.1007L145.7 58.6085C145.048 58.6336 144.494 59.0926 144.348 59.7285L142.268 68.7719C142.258 68.7739 142.247 68.7759 142.235 68.78C139.671 69.5868 137.159 70.7475 134.817 72.2146L126.585 67.9088C126.006 67.6065 125.297 67.7285 124.854 68.2085L115.972 77.8098C115.527 78.2898 115.461 79.0058 115.807 79.559L120.734 87.4309C120.731 87.4349 120.729 87.439 120.727 87.4417C119.446 89.8898 118.485 92.4844 117.841 95.1441L109.028 97.9061C108.405 98.1007 107.991 98.6885 108.016 99.34L108.523 112.413C108.548 113.065 109.007 113.619 109.643 113.765L118.663 115.84L118.681 115.857C119.53 118.46 120.647 120.936 122.117 123.28L122.129 123.291L117.82 131.531C117.518 132.11 117.641 132.819 118.119 133.263L127.719 142.146C128.198 142.591 128.915 142.657 129.468 142.311L137.353 137.375C139.799 138.651 142.347 139.575 145.004 140.218C145.014 140.22 145.024 140.221 145.034 140.223L147.81 149.089C148.005 149.712 148.593 150.127 149.245 150.101L162.315 149.595C162.967 149.568 163.521 149.109 163.668 148.473L165.744 139.44C168.336 138.591 170.835 137.436 173.167 135.977C173.169 135.975 173.17 135.974 173.171 135.975L181.429 140.294C182.007 140.596 182.717 140.474 183.16 139.994L192.043 130.391C192.486 129.912 192.554 129.196 192.208 128.642L187.262 120.741C187.27 120.733 187.277 120.725 187.292 120.709C188.496 118.261 189.498 115.705 190.106 113.083ZM175.786 124.304C164.645 136.347 145.827 137.117 133.748 125.938C121.708 114.796 120.978 95.9346 132.119 83.8912C143.26 71.8498 162.117 71.117 174.157 82.2573C186.237 93.4383 186.926 112.262 175.786 124.304Z" fill="#3F60EE"/>
<path d="M147.888 130.869C133.117 127.52 123.829 112.781 127.177 98.0159C130.525 83.2505 145.264 73.961 160.035 77.3115C174.8 80.6599 184.09 95.3983 180.74 110.164C177.392 124.929 162.654 134.218 147.888 130.869ZM159.736 78.6301C145.696 75.4464 131.681 84.2755 128.496 98.3149C125.312 112.354 134.149 126.366 148.187 129.55C162.226 132.735 176.237 123.903 179.421 109.865C182.605 95.8254 173.775 81.8145 159.736 78.6301Z" fill="#3F60EE"/>
<path d="M108.677 135.106C108.677 135.105 108.677 135.104 108.677 135.103L113.176 132.486C113.491 132.303 113.645 131.931 113.55 131.578L111.657 124.509C111.563 124.156 111.244 123.911 110.879 123.909L105.675 123.894C105.673 123.891 105.672 123.888 105.67 123.885C104.887 122.573 103.973 121.364 102.885 120.27L104.22 115.229C104.313 114.876 104.158 114.505 103.842 114.322L97.5057 110.663C97.1891 110.481 96.7905 110.533 96.5315 110.791L92.8366 114.463L92.8298 114.46C91.3349 114.063 89.8284 113.875 88.2962 113.853L85.6861 109.363C85.503 109.047 85.1308 108.893 84.7783 108.987L77.7112 110.882C77.3586 110.976 77.1132 111.295 77.1118 111.66L77.0962 116.85C77.0908 116.853 77.0847 116.856 77.0793 116.859C75.7803 117.617 74.5539 118.561 73.4576 119.651L68.4339 118.321C68.0806 118.227 67.7091 118.382 67.5261 118.699L63.8684 125.036C63.6854 125.352 63.7376 125.752 63.9952 126.01L67.6569 129.695C67.6562 129.698 67.6556 129.701 67.6549 129.702C67.2589 131.196 67.0556 132.73 67.0332 134.261L62.5674 136.859C62.2515 137.042 62.0983 137.414 62.1925 137.766L64.0861 144.836C64.1803 145.189 64.4989 145.434 64.8644 145.435L70.0413 145.451L70.0528 145.458C70.8379 146.773 71.7545 147.985 72.8454 149.082L72.8535 149.086L71.5227 154.115C71.4291 154.468 71.5837 154.84 71.8996 155.023L78.2359 158.681C78.5525 158.864 78.9511 158.812 79.2101 158.554L82.901 154.886C84.3932 155.28 85.8983 155.468 87.4271 155.49C87.4325 155.49 87.4386 155.49 87.444 155.49L90.0556 159.983C90.2393 160.299 90.6108 160.453 90.964 160.357L98.0311 158.463C98.3837 158.368 98.6291 158.049 98.6305 157.684L98.6461 152.499C99.9545 151.715 101.176 150.776 102.267 149.691C102.268 149.69 102.268 149.689 102.268 149.689L107.308 151.024C107.661 151.118 108.033 150.963 108.216 150.646L111.874 144.309C112.056 143.993 112.005 143.594 111.747 143.334L108.072 139.636C108.075 139.63 108.077 139.625 108.084 139.615C108.439 138.13 108.669 136.612 108.677 135.106ZM102.253 143C97.665 150.948 87.4949 153.697 79.5213 149.092C71.5749 144.503 68.8427 134.304 73.4305 126.356C78.0183 118.408 88.2156 115.675 96.162 120.263C104.135 124.868 106.84 135.052 102.253 143Z" fill="#3F60EE"/>
<path d="M87.8454 150.033C79.3728 150.033 72.482 143.142 72.482 134.672C72.482 126.202 79.3728 119.312 87.8454 119.312C96.3152 119.312 103.206 126.202 103.206 134.672C103.206 143.142 96.3152 150.033 87.8454 150.033ZM87.8454 120.069C79.7925 120.069 73.2386 126.62 73.2386 134.672C73.2386 142.725 79.7925 149.276 87.8454 149.276C95.8983 149.276 102.449 142.724 102.449 134.672C102.449 126.619 95.8983 120.069 87.8454 120.069Z" fill="#3F60EE"/>
<path d="M18.0265 134.648L19.9187 129.842C21.3763 129.88 22.7146 129.701 23.9295 129.305L26.9973 133.472C27.0732 133.859 27.5858 134.002 27.8516 133.71L32.2156 131.248C32.4339 131.124 32.5763 130.615 32.4529 130.396L30.4773 125.613C31.4454 124.781 32.2875 123.727 33.0095 122.458L37.9309 123.278C38.2726 123.373 38.7085 123.128 38.8041 122.787L40.1363 118.008C40.2312 117.667 39.9851 117.23 39.6434 117.135L34.8414 115.244C34.88 113.784 34.6963 112.446 34.4739 111.28L38.6387 108.212C38.857 108.088 39 107.577 38.7058 107.31L36.2454 102.947C36.1221 102.728 35.6095 102.585 35.3912 102.709L30.6109 104.685C29.7763 103.716 28.7275 102.874 27.4563 102.151L28.2753 97.2315C28.3702 96.8898 28.1241 96.4532 27.7824 96.3576L23.0041 95.0254C22.6624 94.9305 22.2258 95.1766 22.1302 95.5183L20.2427 100.324C18.9519 100.332 17.6143 100.509 16.2753 100.688L13.3777 96.5712C13.0834 96.3054 12.5756 96.1637 12.3051 96.4559L7.94172 98.9163C7.72342 99.0397 7.58037 99.5515 7.70376 99.7705L9.68003 104.551C8.71528 105.386 8.04071 106.484 7.31867 107.754L2.22647 106.886C1.88478 106.791 1.44816 107.037 1.35257 107.379L0.0203685 112.158C-0.0745467 112.498 0.172233 112.935 0.513928 113.03L5.32003 114.922C5.32884 116.211 5.50783 117.549 5.85833 118.934L1.73698 121.832C1.30037 122.076 1.158 122.589 1.45155 122.855L3.91596 127.221C4.03528 127.436 4.54783 127.579 4.76613 127.459L9.54783 125.478C10.3824 126.447 11.4827 127.122 12.7499 127.844L11.8827 132.936C11.7878 133.278 12.0339 133.714 12.3756 133.81L17.1539 135.142C17.4943 135.236 17.9309 134.989 18.0265 134.648ZM11.4394 112.764C12.7716 107.986 17.619 105.108 22.3973 106.441C27.1716 107.772 30.0488 112.622 28.7173 117.398C27.3851 122.177 22.5417 125.055 17.7593 123.722C12.9851 122.391 10.1071 117.543 11.4394 112.764Z" fill="#3B5DF1" fill-opacity="0.2"/>
<path d="M20.0793 123.168C15.6217 123.168 11.9952 119.541 11.9952 115.084C11.9952 110.626 15.6217 107 20.0793 107C24.5369 107 28.1634 110.626 28.1634 115.084C28.1627 119.541 24.5369 123.168 20.0793 123.168ZM20.0793 107.886C16.1098 107.886 12.882 111.114 12.882 115.084C12.882 119.053 16.1098 122.281 20.0793 122.281C24.0488 122.281 27.2766 119.053 27.2766 115.084C27.2766 111.115 24.0481 107.886 20.0793 107.886Z" fill="#3B5DF1" fill-opacity="0.2"/>
<path d="M98.8034 80.258L100.696 75.4519C102.153 75.4899 103.492 75.3109 104.706 74.9156L107.774 79.0824C107.85 79.4695 108.363 79.6126 108.628 79.3204L112.993 76.858C113.211 76.7346 113.353 76.2248 113.23 76.0058L111.254 71.2234C112.222 70.3909 113.064 69.3373 113.786 68.0682L118.708 68.8878C119.049 68.9828 119.485 68.7387 119.581 68.397L120.913 63.6187C121.008 63.277 120.762 62.8404 120.42 62.7448L115.618 60.8539C115.657 59.3943 115.473 58.0567 115.251 56.8906L119.416 53.8221C119.634 53.6987 119.777 53.1868 119.483 52.9204L117.022 48.557C116.899 48.3387 116.386 48.1956 116.168 48.319L111.388 50.2953C110.553 49.3265 109.504 48.4838 108.233 47.7611L109.052 42.8417C109.147 42.5 108.901 42.0634 108.559 41.9678L103.781 40.6356C103.439 40.5407 103.003 40.7868 102.907 41.1285L101.02 45.9339C99.7288 45.9421 98.3912 46.119 97.0522 46.298L94.1546 42.1814C93.8603 41.9156 93.3525 41.7739 93.082 42.0661L88.7186 44.5265C88.5003 44.6499 88.3573 45.1617 88.4807 45.3807L90.4569 50.1611C89.4922 50.9963 88.8176 52.0946 88.0956 53.3638L83.0034 52.496C82.6617 52.4011 82.2251 52.6472 82.1295 52.9889L80.7973 57.7672C80.7024 58.1068 80.9492 58.5434 81.2908 58.639L86.0969 60.5312C86.1058 61.8201 86.2847 63.1584 86.6352 64.5428L82.5139 67.4411C82.078 67.6851 81.9349 68.1977 82.2285 68.4641L84.6929 72.8302C84.8122 73.0451 85.3247 73.1882 85.543 73.0675L90.3247 71.0872C91.1593 72.056 92.2597 72.7312 93.5268 73.4526L92.6597 78.5448C92.5647 78.8865 92.8108 79.3231 93.1525 79.4187L97.9308 80.7509C98.2712 80.8458 98.7085 80.5997 98.8034 80.258ZM92.2163 58.3746C93.5485 53.5963 98.3959 50.7184 103.174 52.0512C107.948 53.3821 110.826 58.2323 109.494 63.0085C108.162 67.7868 103.319 70.6655 98.5363 69.3319C93.762 68.0004 90.8841 63.1529 92.2163 58.3746Z" fill="#3B5DF1" fill-opacity="0.2"/>
<path d="M100.856 68.778C96.3987 68.778 92.7722 65.1516 92.7722 60.6939C92.7722 56.2363 96.3987 52.6099 100.856 52.6099C105.314 52.6099 108.94 56.2363 108.94 60.6939C108.94 65.1516 105.314 68.778 100.856 68.778ZM100.856 53.4966C96.8868 53.4966 93.659 56.7244 93.659 60.6939C93.659 64.6634 96.8868 67.8912 100.856 67.8912C104.826 67.8912 108.054 64.6634 108.054 60.6939C108.054 56.7244 104.825 53.4966 100.856 53.4966Z" fill="#3B5DF1" fill-opacity="0.2"/>
</g>
<defs>
<clipPath id="clip0_845_403">
<rect width="200" height="200" fill="white" transform="translate(0 0.5)"/>
</clipPath>
</defs>
</svg>
