<svg width="200" height="200" xmlns="http://www.w3.org/2000/svg" fill="none">

 <g>
  <title>Layer 1</title>
  <circle id="svg_1" fill="#4c4c4c" r="52" cy="101.2766" cx="104.3617"/>
  <path id="svg_2" fill="#4c4c4c" d="m102.282,24.0497c-11.5804,0.4191 -22.9125,3.4768 -33.1319,8.94c-9.533,5.0958 -17.867,12.1698 -24.444,20.7481c-8.3638,10.8925 -13.6156,23.8501 -15.1959,37.492c-1.8901,16.2252 1.5017,32.6272 9.672,46.7722c1.332,2.312 4.7998,0.312 3.4678,-2c-5.303,-9.175 -8.5127,-19.408 -9.3999,-29.968c-1.5107,-17.8621 3.7047,-35.6442 14.6239,-49.8603c10.1539,-13.2428 24.5954,-22.5443 40.8521,-26.312c11.5079,-2.6718 23.4969,-2.4685 34.9079,0.5921c2.58,0.696 3.62,-3.1721 1.04,-3.8681c-7.296,-1.9545 -14.843,-2.8093 -22.392,-2.536zm2.72,9.952c-4.616,-0.0039 -9.2194,0.4747 -13.7359,1.428c-2.608,0.552 -1.78,4.468 0.8281,3.916c4.2442,-0.8957 8.5698,-1.3461 12.9078,-1.344c2.704,0.04 2.704,-4.04 0,-4zm-29.2279,7.032c-0.3121,0.0038 -0.6189,0.0805 -0.896,0.224c-21.304,10.948 -35.876,33.1601 -35.876,58.7443c-0.04,2.704 4.04,2.704 4,0c0,-24.0642 13.692,-44.8962 33.704,-55.1802c1.904,-0.952 1.2,-3.8281 -0.932,-3.7881zm74.4639,11.6961c-0.396,0.0016 -0.783,0.121 -1.112,0.3432c-0.328,0.2221 -0.583,0.5369 -0.733,0.9043c-0.149,0.3674 -0.185,0.7708 -0.105,1.159c0.081,0.3883 0.275,0.7438 0.558,1.0215c11.357,11.3515 17.866,26.6667 18.156,42.721c0.291,16.0542 -5.658,31.5952 -16.596,43.3512c-2.08,1.952 1.128,4.936 2.924,2.72c11.636,-12.516 17.964,-29.056 17.656,-46.1423c-0.309,-17.0861 -7.232,-33.3868 -19.312,-45.474c-0.187,-0.1921 -0.411,-0.3445 -0.658,-0.4483c-0.248,-0.1038 -0.51,-0.1567 -0.778,-0.1556zm18.88,82.2482c-0.359,-0.003 -0.712,0.09 -1.022,0.27c-0.311,0.18 -0.567,0.441 -0.742,0.754c-19.896,34.456 -63.896,46.244 -98.3519,26.352c-2.312,-1.332 -4.312,2.136 -2,3.468c36.3279,20.976 82.8439,8.508 103.8199,-27.82c0.18,-0.303 0.278,-0.648 0.282,-1c0.004,-0.352 -0.084,-0.699 -0.257,-1.006c-0.173,-0.307 -0.424,-0.563 -0.728,-0.742c-0.303,-0.178 -0.649,-0.274 -1.001,-0.276zm-27.92,15.744c-0.382,0.018 -0.751,0.144 -1.064,0.364c-2.148,1.478 -4.387,2.819 -6.704,4.016c-2.516,1.172 -0.584,4.92 1.828,3.56c2.469,-1.276 4.855,-2.705 7.144,-4.28c1.692,-1.12 0.824,-3.76 -1.204,-3.66zm-24.164,10.132c-0.113,0.003 -0.225,0.016 -0.336,0.04c-3.808,0.732 -7.72,1.108 -11.696,1.108c-2.704,-0.04 -2.704,4.04 0,4c4.232,0 8.4,-0.4 12.452,-1.18c2.456,-0.432 2.068,-4.06 -0.42,-3.968z"/>
  <path id="svg_14" d="m95.71004,92.59764c0.01539,0 0.02986,0.00603 0.04073,0.01696c0.0109,0.01094 0.01689,0.02551 0.01689,0.04101l0.02373,0c0,-0.04504 -0.0365,-0.08168 -0.08135,-0.08168l0,0.02371l0.00001,0zm0.00003,-0.04204c0.05487,0 0.09949,0.04488 0.09949,0.10003l0.02372,0c0,-0.06823 -0.05527,-0.12375 -0.12321,-0.12375l0,0.02372l0.00001,0zm0.0328,0.08346c0,0.00908 -0.00736,0.01644 -0.01643,0.01644s-0.01643,-0.00736 -0.01643,-0.01644c0,-0.00907 0.00736,-0.01643 0.01643,-0.01643s0.01643,0.00736 0.01643,0.01643z" stroke-width="0" stroke="null" fill="#ffffff"/>
  <path id="svg_15" d="m95.71004,98.9487c0.01539,0 0.02986,0.00603 0.04073,0.01696c0.0109,0.01094 0.01689,0.02551 0.01689,0.04101l0.02373,0c0,-0.04504 -0.0365,-0.08168 -0.08135,-0.08168l0,0.02371l0.00001,0zm0.00003,-0.04204c0.05487,0 0.09949,0.04488 0.09949,0.10003l0.02372,0c0,-0.06823 -0.05527,-0.12375 -0.12321,-0.12375l0,0.02372l0.00001,0zm0.0328,0.08346c0,0.00908 -0.00736,0.01644 -0.01643,0.01644s-0.01643,-0.00736 -0.01643,-0.01644c0,-0.00907 0.00736,-0.01643 0.01643,-0.01643s0.01643,0.00736 0.01643,0.01643z" stroke-width="0" stroke="null" fill="#ffffff"/>
  <path id="svg_16" d="m100.36749,93.23274c0.01539,0 0.02986,0.00603 0.04073,0.01696c0.0109,0.01094 0.01689,0.02551 0.01689,0.04101l0.02373,0c0,-0.04504 -0.0365,-0.08168 -0.08135,-0.08168l0,0.02371l0.00001,0zm0.00003,-0.04204c0.05487,0 0.09949,0.04488 0.09949,0.10003l0.02372,0c0,-0.06823 -0.05527,-0.12375 -0.12321,-0.12375l0,0.02372l0.00001,0zm0.0328,0.08346c0,0.00908 -0.00736,0.01644 -0.01643,0.01644s-0.01643,-0.00736 -0.01643,-0.01644c0,-0.00907 0.00736,-0.01643 0.01643,-0.01643s0.01643,0.00736 0.01643,0.01643z" stroke-width="0" stroke="null" fill="#ffffff"/>
  <path stroke="null" id="svg_17" d="m103.76928,88.82553c-7.57718,0 -13.71383,6.16095 -13.71383,13.76815c0,7.60195 6.13665,13.7664 13.71383,13.7664c7.57022,0 13.71035,-6.16445 13.71035,-13.7664c0.00174,-7.6072 -6.13665,-13.76815 -13.71035,-13.76815zm0,24.03874c-5.65066,-0.01399 -10.21788,-4.59929 -10.23181,-10.26884c0.01219,-5.6713 4.58115,-10.25835 10.23181,-10.27234c5.64718,0.01399 10.21439,4.60104 10.22659,10.27234c-0.01219,5.66955 -4.57941,10.25485 -10.22659,10.26884zm0,-24.96035c0.96326,0 1.74188,-0.78345 1.74188,-1.75053l0,-8.48334c-0.00348,-0.96708 -0.78036,-1.74878 -1.74188,-1.74878c-0.96326,0 -1.74362,0.7852 -1.74188,1.75228l0,8.48159c0,0.96358 0.77862,1.74878 1.74188,1.74878zm5.59667,1.11572c0.21774,0.09269 0.44418,0.13291 0.6654,0.13466c0.6863,0 1.33254,-0.40747 1.61124,-1.08075l3.23293,-7.83978c0.3658,-0.89363 -0.054,-1.91492 -0.94236,-2.28391c-0.8901,-0.36899 -1.9091,0.05421 -2.27838,0.94609l-3.23119,7.84153c-0.36754,0.89188 0.054,1.91492 0.94236,2.28216zm4.74663,3.18453c0.33967,0.33926 0.78559,0.51239 1.23151,0.51239s0.89184,-0.17138 1.23151,-0.51239l5.97465,-6.00356c0.68108,-0.68202 0.67933,-1.789 0,-2.47452c-0.68282,-0.68202 -1.78543,-0.68202 -2.46476,0.0035l-5.97291,6.00007c-0.68108,0.68377 -0.68108,1.79075 0,2.47452zm3.17545,4.76368c0.27522,0.67328 0.92494,1.079 1.60776,1.079c0.22122,0 0.44766,-0.04372 0.66714,-0.1364l7.80363,-3.24749c0.8901,-0.36899 1.31164,-1.39378 0.94236,-2.28566s-1.38654,-1.31508 -2.27664,-0.94434l-7.80537,3.24749c-0.88836,0.37074 -1.30815,1.39553 -0.93887,2.28741zm11.30307,3.86655l-8.44987,0.00175c-0.96152,0 -1.74188,0.78345 -1.7384,1.75053c0,0.96708 0.77862,1.74703 1.7384,1.74703l8.45161,-0.0035c0.96326,0 1.74014,-0.7852 1.74014,-1.74878c0,-0.96708 -0.78036,-1.75053 -1.74188,-1.74703zm-1.21583,9.66726l-7.80711,-3.24224c-0.89184,-0.37074 -1.91084,0.05246 -2.27664,0.94609c-0.36754,0.89363 0.054,1.91666 0.94236,2.28741l7.80711,3.24224c0.21948,0.08919 0.44592,0.13116 0.66714,0.13116c0.68456,0 1.33254,-0.40572 1.61124,-1.079c0.3658,-0.89363 -0.05748,-1.91841 -0.9441,-2.28566zm-10.78921,2.47103c-0.68108,-0.68377 -1.78194,-0.68377 -2.46302,0.00175c-0.68108,0.68202 -0.67933,1.78725 0,2.47103l5.98162,5.99657c0.33967,0.34101 0.78385,0.51239 1.22977,0.51239s0.89359,-0.17138 1.23325,-0.51239c0.68108,-0.68552 0.67759,-1.7925 0,-2.47452l-5.98162,-5.99482zm-4.93127,4.13237c-0.36754,-0.89363 -1.38654,-1.31508 -2.27664,-0.94609c-0.88836,0.37074 -1.30989,1.39378 -0.94062,2.28741l3.2399,7.83454c0.27696,0.67328 0.92494,1.079 1.61124,1.079c0.22296,0 0.44941,-0.04197 0.66714,-0.13291c0.8901,-0.36899 1.30989,-1.39378 0.94062,-2.28915l-3.24164,-7.83279zm-7.86808,0.18012c-0.96326,0 -1.74188,0.78345 -1.74188,1.74878l0.00697,8.48334c0,0.96708 0.7821,1.74703 1.74188,1.74703c0.96326,0 1.74188,-0.78345 1.7384,-1.74878l-0.00523,-8.48508c0,-0.96183 -0.7821,-1.74703 -1.74014,-1.74528zm-5.60189,-1.11222c-0.88836,-0.36724 -1.90562,0.05421 -2.2749,0.94959l-3.22596,7.83978c-0.3658,0.89363 0.05748,1.91666 0.94584,2.28566c0.21774,0.09094 0.44244,0.13291 0.6654,0.13291c0.68282,0 1.33254,-0.40921 1.6095,-1.0825l3.22771,-7.84328c0.36754,-0.89188 -0.05748,-1.91317 -0.94758,-2.28216zm-4.74837,-3.17753c-0.68282,-0.68377 -1.78543,-0.68028 -2.46476,0.0035l-5.96769,6.00356c-0.68108,0.68552 -0.67759,1.789 0.00348,2.47452c0.33967,0.33926 0.78385,0.51064 1.22977,0.51064c0.44766,0 0.89359,-0.17138 1.23325,-0.51239l5.96943,-6.00531c0.67759,-0.68377 0.67759,-1.79075 -0.00348,-2.47452zm-3.17719,-4.75843c-0.37102,-0.89013 -1.38828,-1.31333 -2.27664,-0.94434l-7.80189,3.25448c-0.8901,0.37074 -1.30989,1.39553 -0.94062,2.28741c0.2787,0.67328 0.92494,1.07725 1.6095,1.07725c0.22122,0 0.44941,-0.04197 0.66714,-0.13291l7.80189,-3.25448c0.88662,-0.37424 1.30815,-1.39728 0.94062,-2.28741zm-1.12526,-5.61708c0,-0.96708 -0.77862,-1.74703 -1.74188,-1.74703l-8.44987,0.01049c-0.96326,0 -1.74362,0.78345 -1.74014,1.75053c0.00174,0.96358 0.7821,1.74878 1.74188,1.74528l8.45161,-0.01049c0.96152,0 1.74188,-0.78695 1.7384,-1.74878zm-8.98114,-7.90974l7.81234,3.23524c0.21774,0.09269 0.44244,0.13291 0.66366,0.13291c0.68456,0 1.33428,-0.40572 1.61124,-1.08075c0.36928,-0.89363 -0.05574,-1.91841 -0.94758,-2.28391l-7.80886,-3.23524c-0.8901,-0.36724 -1.90736,0.05596 -2.2749,0.94784c-0.36928,0.89363 0.05748,1.91317 0.9441,2.28391zm10.78747,-2.47977c0.33967,0.33751 0.7821,0.5089 1.22803,0.5089s0.89359,-0.17138 1.23499,-0.51589c0.68108,-0.68028 0.67759,-1.789 -0.00697,-2.47278l-5.98162,-5.98783c-0.67933,-0.68202 -1.78543,-0.67853 -2.46302,0.00525c-0.68108,0.68202 -0.67759,1.79075 0.00348,2.47278l5.98511,5.98957zm4.9243,-4.13936c0.2787,0.67153 0.92668,1.0755 1.60776,1.0755c0.22296,0 0.44941,-0.04372 0.66888,-0.13466c0.88836,-0.37074 1.31164,-1.39553 0.94062,-2.28566l-3.24687,-7.83279c-0.36928,-0.89188 -1.39002,-1.31333 -2.27838,-0.94259c-0.88836,0.37249 -1.30815,1.39728 -0.93887,2.28741l3.24687,7.83279z" stroke-width="0" fill="#ffffff"/>
 </g>
</svg>