<svg width="17" height="17" viewBox="0 0 17 17" fill="none" xmlns="http://www.w3.org/2000/svg">
<path d="M13.6354 11.072L15.3425 8.87263C15.4422 8.74427 15.4958 8.58614 15.4948 8.42363C15.4937 8.26112 15.4381 8.10368 15.3368 7.97659L13.6829 5.90401M15.2157 8.42213L6.45859 8.43346M10.7773 13.95C9.81301 14.4657 8.73174 14.7233 7.6385 14.6978C6.54526 14.6723 5.47719 14.3645 4.53801 13.8044C3.59883 13.2442 2.82045 12.4507 2.27845 11.501C1.73646 10.5512 1.44928 9.4774 1.44479 8.38387C1.44029 7.29034 1.71865 6.21423 2.25282 5.26003C2.78699 4.30584 3.55882 3.50598 4.49337 2.93814C5.42792 2.37029 6.49343 2.05376 7.58642 2.01927C8.67942 1.98478 9.76276 2.23351 10.7313 2.7413" stroke="white" stroke-width="1.5" stroke-miterlimit="10" stroke-linecap="square"/>
</svg>
