<svg width="121" height="111" viewBox="0 0 121 111" fill="none" xmlns="http://www.w3.org/2000/svg">
<path d="M53.6272 83.5983C42.5509 83.2353 33.7082 78.6639 27.3266 69.5163C26.9905 69.0513 26.7178 68.5434 26.5159 68.0063C26.421 67.7635 26.4178 67.4944 26.5069 67.2494C26.596 67.0045 26.7712 66.8003 26.9999 66.6753C27.2126 66.5253 27.4736 66.4601 27.7318 66.4923C27.99 66.5245 28.227 66.6519 28.3963 66.8495C28.6939 67.1809 28.9582 67.5408 29.1852 67.924C38.6014 81.8099 56.6933 85.1302 70.3252 75.8664C74.7928 72.8294 78.3331 68.6156 80.5545 63.6914C80.9998 62.7234 81.2467 60.9084 82.9044 61.6513C84.5984 62.4112 83.4198 63.7688 82.9213 64.7538C77.9264 74.6492 70.151 80.9678 59.1569 83.1216C58.0292 83.3418 56.8821 83.4749 55.7374 83.5838C55.0405 83.654 54.3314 83.5983 53.6272 83.5983Z" fill="url(#paint0_linear_1131_6380)"/>
<path d="M59.774 17.3871C63.2482 18.0254 66.5784 19.2863 69.604 21.1091C75.8138 24.848 80.344 30.0776 83.2795 36.6866C83.4676 37.075 83.6191 37.4801 83.732 37.8966C83.8917 38.5646 83.732 39.1502 83.0229 39.4043C82.3139 39.6584 81.8517 39.3002 81.5564 38.6638C81.0095 37.4925 80.5158 36.2922 79.8987 35.1596C75.5314 27.1736 68.9216 22.1053 60.0692 19.9548C59.198 19.7442 58.4938 19.5119 58.5785 18.4665C58.6487 17.6195 59.2077 17.3315 59.774 17.3871Z" fill="url(#paint1_linear_1131_6380)"/>
<path d="M71.1238 56.3661H76.23C75.2826 59.9834 73.5021 63.3289 71.031 66.1353C68.5599 68.9417 65.4666 71.1312 61.9983 72.5288C58.53 73.9263 54.7829 74.4933 51.0564 74.1843C47.3299 73.8753 43.7273 72.699 40.5365 70.7493C37.3458 68.7995 34.6553 66.1305 32.6801 62.9554C30.705 59.7804 29.4999 56.1873 29.1611 52.4634C28.8223 48.7395 29.3593 44.9879 30.7291 41.5086C32.099 38.0292 34.2637 34.9185 37.0502 32.425C37.7644 31.7836 38.5176 31.1871 39.3057 30.6391C42.4734 28.4257 46.1294 27.0109 49.9619 26.5153C53.7945 26.0197 57.69 26.4581 61.3166 27.7929C64.9432 29.1277 68.1933 31.3195 70.79 34.1815C73.3868 37.0435 75.2531 40.4908 76.23 44.2298H71.1238C69.6839 39.9363 66.7641 36.2947 62.8863 33.9559C59.0084 31.6172 54.4253 30.7336 49.9559 31.463C45.4865 32.1925 41.4222 34.4876 38.4893 37.938C35.5564 41.3885 33.946 45.7694 33.946 50.2979C33.946 54.8265 35.5564 59.2074 38.4893 62.6578C41.4222 66.1083 45.4865 68.4033 49.9559 69.1328C54.4253 69.8623 59.0084 68.9787 62.8863 66.6399C66.7641 64.3011 69.6839 60.6596 71.1238 56.3661Z" fill="white"/>
<path d="M63.9582 56.3661H71.1238C69.6839 60.6596 66.7641 64.3011 62.8862 66.6399C59.0084 68.9787 54.4253 69.8623 49.9559 69.1328C45.4865 68.4033 41.4222 66.1083 38.4893 62.6578C35.5563 59.2074 33.946 54.8264 33.946 50.2979C33.946 45.7694 35.5563 41.3884 38.4893 37.938C41.4222 34.4876 45.4865 32.1925 49.9559 31.463C54.4253 30.7335 59.0084 31.6171 62.8862 33.9559C66.7641 36.2947 69.6839 39.9363 71.1238 44.2298H63.9533C62.6089 41.8093 60.4987 39.9039 57.9541 38.8127C55.4095 37.7214 52.5746 37.506 49.8943 38.2004C47.2141 38.8949 44.8404 40.4597 43.1458 42.6493C41.4512 44.8388 40.5317 47.5292 40.5317 50.2979C40.5317 53.0666 41.4512 55.757 43.1458 57.9466C44.8404 60.1361 47.2141 61.701 49.8943 62.3954C52.5746 63.0898 55.4095 62.8744 57.9541 61.7832C60.4987 60.6919 62.6089 58.7865 63.9533 56.3661H63.9582Z" fill="url(#paint2_linear_1131_6380)"/>
<path d="M39.3057 30.6391C38.5176 31.1872 37.7644 31.7836 37.0502 32.4251C35.5821 30.702 34.1115 28.983 32.6386 27.268C28.7968 30.6694 25.8661 34.977 24.1129 39.7994C22.3598 44.6217 21.8399 49.8058 22.6004 54.8802C22.7594 55.9527 22.9759 57.0158 23.249 58.065H21.0322L14.8637 58.0988C14.5547 58.0982 14.2587 57.975 14.0404 57.7563C13.8222 57.5377 13.6996 57.2413 13.6996 56.9324V56.066C13.6993 55.9129 13.7292 55.7611 13.7875 55.6195C13.8458 55.4778 13.9315 55.3491 14.0396 55.2405C14.1477 55.132 14.2761 55.0458 14.4175 54.9869C14.5589 54.928 14.7105 54.8975 14.8637 54.8972L20.4297 54.8754C19.6734 49.4834 20.2651 43.988 22.152 38.8807C24.0388 33.7733 27.162 29.2131 31.2422 25.6079C31.8666 25.0513 32.5119 24.523 33.1782 24.0228C33.6622 24.548 34.1462 25.0779 34.6472 25.6031C36.1992 27.2874 37.752 28.9661 39.3057 30.6391Z" fill="white"/>
<path d="M51.834 54.614V45.9286H48.688V44.9606H56.0375V45.9286L52.9254 45.9431V54.614H51.834Z" fill="white"/>
<path d="M61.6931 51.6156H56.8192C56.8184 52.0379 56.8516 52.4595 56.9184 52.8764C56.9579 53.1436 57.059 53.398 57.2136 53.6194C57.3602 53.8021 57.561 53.9335 57.7872 53.9945C58.1081 54.0761 58.4387 54.1128 58.7697 54.1034C59.1801 54.1153 59.5905 54.0836 59.9942 54.009C60.1023 53.9932 60.206 53.9557 60.2992 53.8987C60.3924 53.8417 60.473 53.7665 60.5363 53.6774C60.6458 53.4518 60.695 53.2017 60.6791 52.9514V52.7336H61.6931C61.7078 53.122 61.6453 53.5094 61.5091 53.8735C61.4009 54.1439 61.2094 54.3728 60.9622 54.5269C60.6908 54.684 60.3903 54.7845 60.0789 54.8221C59.6449 54.8787 59.2074 54.9046 58.7697 54.8995C58.1548 54.929 57.5407 54.8259 56.9692 54.597C56.7568 54.4927 56.5678 54.3462 56.4139 54.1665C56.26 53.9868 56.1442 53.7775 56.0738 53.5516C55.8677 52.8555 55.777 52.1304 55.8052 51.4051C55.7938 50.8453 55.8507 50.2861 55.9746 49.7401C56.0621 49.3469 56.2421 48.9802 56.4997 48.6705C56.7423 48.4001 57.0546 48.2017 57.4024 48.0969C57.8431 47.9725 58.2998 47.9146 58.7576 47.9251C59.3378 47.9012 59.9161 48.0053 60.4516 48.23C60.8807 48.4346 61.2181 48.7918 61.3978 49.2319C61.6238 49.827 61.7275 50.4616 61.7027 51.0977L61.6931 51.6156ZM60.6791 50.8291C60.696 50.408 60.6361 49.9873 60.5024 49.5876C60.3964 49.3025 60.1826 49.0704 59.9071 48.9415C59.5424 48.7943 59.1505 48.7267 58.7576 48.7431C58.3601 48.724 57.9634 48.7935 57.596 48.9463C57.323 49.0794 57.1129 49.3139 57.0104 49.5997C56.8808 49.9962 56.821 50.4122 56.8337 50.8291H60.6791Z" fill="white"/>
<path d="M69.3112 52.3392C69.31 52.8901 69.192 53.4345 68.9651 53.9364C68.7774 54.2989 68.4551 54.5735 68.0673 54.7011C67.5263 54.8595 66.9633 54.9298 66.3999 54.9093C65.7972 54.9399 65.1954 54.8323 64.6406 54.5947C64.431 54.4838 64.2457 54.3324 64.0953 54.1491C63.9449 53.9659 63.8324 53.7546 63.7645 53.5275C63.4209 52.1449 63.4209 50.6992 63.7645 49.3166C63.832 49.0887 63.9442 48.8765 64.0946 48.6924C64.245 48.5083 64.4306 48.3561 64.6406 48.2446C65.1913 48.0045 65.7902 47.8951 66.3903 47.9251C66.9032 47.9131 67.4154 47.9717 67.9124 48.0994C68.2878 48.1979 68.6187 48.4205 68.8514 48.731C69.0956 49.1144 69.2211 49.5615 69.212 50.016C69.212 50.0402 69.212 50.0765 69.212 50.1249C69.212 50.1733 69.212 50.2096 69.212 50.2338H68.2246C68.2285 49.9308 68.1793 49.6294 68.0794 49.3433C68.0301 49.2383 67.9591 49.145 67.8711 49.0695C67.7831 48.994 67.68 48.938 67.5688 48.9052C67.1879 48.799 66.7926 48.7533 66.3975 48.7697C66.0003 48.7474 65.6032 48.8153 65.2359 48.9682C65.0999 49.0467 64.9822 49.1534 64.8908 49.2811C64.7994 49.4088 64.7363 49.5546 64.7059 49.7087C64.5869 50.2651 64.5365 50.834 64.5559 51.4027C64.537 51.9717 64.5898 52.5409 64.7132 53.0967C64.7458 53.2572 64.8113 53.4093 64.9054 53.5434C64.9995 53.6774 65.1203 53.7907 65.2601 53.8759C65.6203 54.0395 66.0147 54.1134 66.4096 54.0913C66.8124 54.1093 67.2155 54.0611 67.6027 53.9485C67.7206 53.91 67.8289 53.847 67.9207 53.7635C68.0125 53.6801 68.0855 53.5782 68.1351 53.4645C68.2564 53.1104 68.3233 52.74 68.3335 52.3658L69.3112 52.3392Z" fill="white"/>
<path d="M72.1523 45.2075V48.8762C72.2341 48.7073 72.3485 48.5563 72.4889 48.4317C72.6292 48.3071 72.7928 48.2114 72.9702 48.1502C73.3987 48.0272 73.8435 47.9709 74.2891 47.9833C74.803 47.9625 75.3161 48.0389 75.8016 48.2083C75.9771 48.278 76.1372 48.3816 76.2725 48.5133C76.4079 48.6449 76.516 48.802 76.5906 48.9755C76.7732 49.4579 76.8555 49.9726 76.8326 50.488V54.873H75.8162V50.2992C75.8332 49.9785 75.7795 49.6579 75.6589 49.3602C75.6099 49.2559 75.5403 49.1626 75.4542 49.0861C75.368 49.0096 75.2673 48.9513 75.1579 48.915C74.4189 48.7282 73.6414 48.7627 72.9218 49.0142C72.7789 49.0814 72.6511 49.1769 72.5462 49.2951C72.4414 49.4133 72.3617 49.5515 72.312 49.7015C72.1887 50.124 72.1339 50.5636 72.1499 51.0034V54.8754H71.1238V45.2075H72.1523Z" fill="white"/>
<path d="M87.0644 45.418V55.0665H85.3559L79.9278 46.3351V55.0665H78.8582V45.418H80.5667L85.9923 54.2268V45.418H87.0644Z" fill="url(#paint3_linear_1131_6380)"/>
<path d="M94.622 51.6785C94.6524 52.4088 94.5574 53.1389 94.3413 53.8372C94.2672 54.0647 94.148 54.275 93.9908 54.4554C93.8337 54.6359 93.6418 54.7828 93.4265 54.8874C92.2648 55.2842 91.0042 55.2842 89.8425 54.8874C89.6279 54.784 89.4365 54.638 89.2801 54.4582C89.1237 54.2785 89.0055 54.0689 88.9326 53.842C88.5615 52.4277 88.5615 50.9415 88.9326 49.5271C89.0058 49.3002 89.1242 49.0903 89.2805 48.9103C89.4369 48.7302 89.6281 48.5836 89.8425 48.4793C90.4114 48.2566 91.0207 48.156 91.6309 48.184C92.1133 48.1733 92.595 48.2262 93.0635 48.3413C93.4122 48.4289 93.7276 48.6165 93.971 48.881C94.2239 49.1839 94.3955 49.5462 94.4696 49.9337C94.5831 50.5081 94.6342 51.0931 94.622 51.6785ZM93.5814 51.6785C93.6021 51.1089 93.5459 50.5391 93.4144 49.9845C93.3786 49.8237 93.3092 49.6722 93.2108 49.54C93.1123 49.4078 92.9871 49.2979 92.8433 49.2174C92.4594 49.0632 92.0465 48.9947 91.6333 49.0165C91.2199 48.9934 90.8065 49.0629 90.4233 49.2198C90.2811 49.2996 90.1573 49.4085 90.0601 49.5395C89.963 49.6704 89.8946 49.8204 89.8595 49.9797C89.733 50.5351 89.6785 51.1044 89.6973 51.6737C89.6774 52.2433 89.7336 52.813 89.8643 53.3677C89.8986 53.527 89.9666 53.677 90.0639 53.8077C90.1612 53.9384 90.2854 54.0466 90.4282 54.1252C90.8119 54.2797 91.2251 54.3475 91.6382 54.3236C92.0511 54.3461 92.464 54.2784 92.8482 54.1252C92.9869 54.0504 93.1086 53.9478 93.2057 53.8237C93.3027 53.6995 93.373 53.5566 93.412 53.404C93.5475 52.8393 93.6061 52.2589 93.5863 51.6785H93.5814Z" fill="white"/>
<path d="M99.946 48.322V49.1206H97.3348V53.2733C97.327 53.4869 97.3506 53.7006 97.405 53.9073C97.4252 53.9767 97.46 54.0409 97.5072 54.0956C97.5544 54.1503 97.6128 54.1942 97.6785 54.2243C97.8714 54.2975 98.0774 54.3296 98.2835 54.3187C98.6779 54.3187 98.9344 54.2461 99.0579 54.1009C99.209 53.8485 99.2744 53.5539 99.2442 53.2612V52.678H100.212C100.228 53.1919 100.185 53.706 100.082 54.2098C100.048 54.3621 99.9825 54.5055 99.8895 54.6307C99.7965 54.7558 99.678 54.8598 99.5419 54.9358C99.1428 55.1067 98.7095 55.1821 98.2762 55.156C97.8743 55.1727 97.4728 55.1136 97.0928 54.9818C96.9591 54.9306 96.837 54.8534 96.7335 54.7545C96.6301 54.6556 96.5474 54.5371 96.4902 54.4058C96.3559 54.0432 96.2958 53.6572 96.3136 53.2709V49.1206H95.4206V48.322H96.316V46.686H97.3445V48.322H99.946Z" fill="white"/>
<path d="M106.947 51.8697H102.073C102.071 52.292 102.104 52.7138 102.172 53.1306C102.211 53.398 102.312 53.6526 102.468 53.8735C102.614 54.0562 102.815 54.1876 103.041 54.2486C103.362 54.3304 103.693 54.367 104.024 54.3575C104.434 54.3694 104.845 54.3378 105.248 54.2631C105.356 54.2469 105.46 54.2093 105.553 54.1523C105.646 54.0954 105.727 54.0203 105.79 53.9316C105.9 53.706 105.949 53.4558 105.933 53.2056V52.9878H106.947C106.962 53.3761 106.899 53.7636 106.763 54.1276C106.655 54.3973 106.463 54.6253 106.216 54.7786C105.944 54.9365 105.643 55.0378 105.33 55.0762C104.897 55.1329 104.461 55.1587 104.024 55.1537C103.409 55.1836 102.795 55.0804 102.223 54.8512C102.01 54.7464 101.821 54.5995 101.667 54.4194C101.512 54.2392 101.396 54.0297 101.325 53.8033C101.121 53.1077 101.031 52.3836 101.059 51.6592C101.048 51.0994 101.105 50.5403 101.229 49.9942C101.316 49.6001 101.496 49.2325 101.754 48.9222C101.997 48.6528 102.309 48.4552 102.656 48.3511C103.096 48.2269 103.552 48.169 104.009 48.1792C104.589 48.1554 105.168 48.2595 105.703 48.4842C106.132 48.6894 106.469 49.0464 106.649 49.486C106.876 50.0811 106.979 50.7157 106.954 51.3519L106.947 51.8697ZM105.933 51.0832C105.95 50.6621 105.89 50.2414 105.756 49.8418C105.65 49.5563 105.435 49.3243 105.159 49.1956C104.794 49.0482 104.402 48.9806 104.009 48.9972C103.612 48.9781 103.217 49.0476 102.85 49.2005C102.577 49.3329 102.366 49.5676 102.264 49.8539C102.135 50.2505 102.074 50.6662 102.085 51.0832H105.933Z" fill="white"/>
<defs>
<linearGradient id="paint0_linear_1131_6380" x1="26.4433" y1="72.5486" x2="83.7877" y2="72.5486" gradientUnits="userSpaceOnUse">
<stop stop-color="#0065B3"/>
<stop offset="1" stop-color="#00EC88"/>
</linearGradient>
<linearGradient id="paint1_linear_1131_6380" x1="58.5713" y1="28.432" x2="83.7877" y2="28.432" gradientUnits="userSpaceOnUse">
<stop stop-color="#0065B3"/>
<stop offset="1" stop-color="#00EC88"/>
</linearGradient>
<linearGradient id="paint2_linear_1131_6380" x1="33.9405" y1="50.2991" x2="71.1238" y2="50.2991" gradientUnits="userSpaceOnUse">
<stop stop-color="#0065B3"/>
<stop offset="1" stop-color="#00EC88"/>
</linearGradient>
<linearGradient id="paint3_linear_1131_6380" x1="78.8582" y1="50.2362" x2="87.0644" y2="50.2362" gradientUnits="userSpaceOnUse">
<stop stop-color="#0065B3"/>
<stop offset="1" stop-color="#00EC88"/>
</linearGradient>
</defs>
</svg>
