<svg width="18" height="18" viewBox="0 0 18 18" fill="none" xmlns="http://www.w3.org/2000/svg">
<path d="M15.3919 10.6937C15.3914 10.7672 15.3863 10.8405 15.3767 10.9132L15.3943 10.7824C15.3827 10.8611 15.3658 10.9389 15.3435 11.0153C15.3325 11.053 15.3193 11.0899 15.3055 11.1266C15.2869 11.1734 15.2946 11.1559 15.3285 11.0739C15.3194 11.0954 15.3093 11.1164 15.2992 11.1374C15.2657 11.207 15.2255 11.2732 15.1822 11.3371C15.1735 11.3497 15.1646 11.3623 15.1555 11.3747C15.102 11.4488 15.2335 11.2769 15.1758 11.3478C15.1467 11.3835 15.1154 11.4172 15.0833 11.4502C15.0565 11.4778 15.0282 11.5037 14.9996 11.5292C14.988 11.5393 14.9764 11.5493 14.9645 11.559C14.8945 11.6178 15.0648 11.4841 14.9914 11.5387C14.9233 11.5894 14.8502 11.633 14.7749 11.672C14.7388 11.6907 14.6026 11.7468 14.7651 11.6802C14.7289 11.6951 14.6918 11.7077 14.6546 11.7198C14.5714 11.7468 14.4856 11.7648 14.3991 11.7775L14.53 11.7599C14.2941 11.791 14.0475 11.7751 13.8102 11.7751H8.33274C8.16781 11.7751 8.02024 11.843 7.91259 11.9643L7.62957 12.2832L5.55997 14.6151L5.26035 14.9527L6.10057 15.3008V12.2673C6.10057 11.999 5.87667 11.7752 5.60838 11.7752H4.11023C3.97351 11.7752 3.83752 11.7779 3.70154 11.76L3.83239 11.7775C3.75368 11.766 3.67586 11.749 3.59948 11.7267C3.56183 11.7158 3.5249 11.7025 3.48819 11.6888C3.44138 11.6702 3.45893 11.6778 3.54086 11.7118C3.51943 11.7026 3.49842 11.6925 3.47744 11.6824C3.40784 11.6489 3.34159 11.6088 3.27773 11.5655C3.26506 11.5568 3.25252 11.5478 3.24011 11.5387C3.16597 11.4852 3.33785 11.6168 3.26701 11.5591C3.23131 11.53 3.19756 11.4986 3.16453 11.4665C3.13702 11.4398 3.11107 11.4115 3.08558 11.3828C3.07546 11.3713 3.0655 11.3596 3.05572 11.3478C2.99699 11.2778 3.13064 11.448 3.07604 11.3747C3.02536 11.3066 2.98179 11.2334 2.94276 11.1582C2.92408 11.1221 2.86795 10.9858 2.93457 11.1484C2.91972 11.1122 2.90708 11.0751 2.895 11.0379C2.868 10.9547 2.84997 10.8688 2.83724 10.7824L2.85482 10.9132C2.8248 10.6855 2.83963 10.4477 2.83963 10.2186V4.62877C2.83963 4.45448 2.832 4.27713 2.85482 4.10403L2.83724 4.23488C2.84882 4.15617 2.8658 4.07835 2.88806 4.00197C2.89903 3.96431 2.91225 3.92738 2.92603 3.89068C2.94463 3.84387 2.93696 3.86141 2.90302 3.94334C2.91218 3.92192 2.92228 3.90091 2.93237 3.87992C2.96588 3.81033 3.00599 3.74408 3.0493 3.68022C3.05803 3.66755 3.06694 3.65501 3.07604 3.6426C3.12955 3.56845 2.99801 3.74033 3.05572 3.66949C3.08481 3.63379 3.11619 3.60004 3.14827 3.56701C3.175 3.5395 3.20331 3.51356 3.23194 3.48807C3.24349 3.47795 3.25518 3.46799 3.26701 3.45821C3.337 3.39948 3.16676 3.53312 3.24011 3.47853C3.30821 3.42785 3.38134 3.38427 3.45662 3.34525C3.49268 3.32656 3.62896 3.27044 3.46638 3.33706C3.50261 3.3222 3.53968 3.30956 3.57689 3.29749C3.66007 3.27049 3.74592 3.25245 3.83236 3.23973L3.7015 3.2573C3.87468 3.23449 4.05228 3.24212 4.22663 3.24212H13.9717C14.1568 3.24212 14.3462 3.2331 14.53 3.2573L14.3992 3.23973C14.4779 3.2513 14.5557 3.26828 14.6321 3.29054C14.6697 3.30151 14.7067 3.31473 14.7434 3.32851C14.7902 3.34711 14.7726 3.33945 14.6907 3.3055C14.7121 3.31466 14.7331 3.32477 14.7541 3.33486C14.8237 3.36836 14.89 3.40848 14.9538 3.45179C14.9665 3.46052 14.979 3.46943 14.9914 3.47853C15.0656 3.53203 14.8937 3.4005 14.9645 3.45821C15.0002 3.4873 15.034 3.51867 15.067 3.55075C15.0945 3.57749 15.1205 3.60579 15.146 3.63443C15.1561 3.64597 15.166 3.65766 15.1758 3.66949C15.2346 3.73949 15.1009 3.56925 15.1555 3.6426C15.2062 3.7107 15.2498 3.78382 15.2888 3.85911C15.3075 3.89516 15.3636 4.03145 15.297 3.86887C15.3118 3.90509 15.3245 3.94217 15.3366 3.97938C15.3635 4.06256 15.3816 4.14841 15.3943 4.23484L15.3767 4.10399C15.4067 4.33178 15.3919 4.56951 15.3919 4.79862V10.6937C15.3919 10.9621 15.6158 11.1859 15.8841 11.1859C16.1524 11.1859 16.3763 10.9621 16.3763 10.6937V4.44184C16.3763 4.35311 16.377 4.2649 16.3695 4.17631C16.3269 3.67591 16.1195 3.21116 15.7631 2.85475C15.3545 2.44621 14.8024 2.25781 14.233 2.25781H3.9887C3.39746 2.25781 2.83084 2.46921 2.42036 2.90427C2.07356 3.27182 1.8841 3.74754 1.85696 4.2495C1.85322 4.31872 1.85524 4.3887 1.85524 4.45801V10.1584C1.85524 10.3612 1.84912 10.5651 1.85696 10.7678C1.87644 11.2724 2.0807 11.7424 2.42036 12.1131C2.57158 12.2781 2.76125 12.4191 2.95978 12.522C3.20673 12.65 3.45233 12.7115 3.72548 12.7475C3.90323 12.7709 4.08912 12.7595 4.26791 12.7595H5.60836L5.11617 12.2673V15.3008C5.11617 15.7113 5.66449 15.9777 5.95639 15.6488L7.60847 13.7873L8.64855 12.6154L8.30052 12.7595H14.2991C14.6691 12.7594 15.0325 12.6621 15.3531 12.4775C15.7849 12.2288 16.0899 11.8275 16.263 11.3663C16.3424 11.1546 16.3746 10.9189 16.3763 10.6937C16.3784 10.4254 16.1508 10.2016 15.8841 10.2016C15.6142 10.2016 15.394 10.4255 15.3919 10.6937Z" fill="white"/>
<path d="M5.01932 6.79297H12.9646C13.2329 6.79297 13.4568 6.56908 13.4568 6.30078C13.4568 6.03249 13.2329 5.80859 12.9646 5.80859H5.01932C4.75102 5.80859 4.52713 6.03249 4.52713 6.30078C4.52713 6.56908 4.75102 6.79297 5.01932 6.79297ZM5.01932 9.28906H10.3455C10.6138 9.28906 10.8377 9.06519 10.8377 8.79688C10.8377 8.52858 10.6138 8.30469 10.3455 8.30469H5.01932C4.75102 8.30469 4.52713 8.52858 4.52713 8.79688C4.52713 9.06517 4.75102 9.28906 5.01932 9.28906Z" fill="white"/>
</svg>
