<svg width="20" height="20" viewBox="0 0 20 20" fill="none" xmlns="http://www.w3.org/2000/svg">
<path d="M18.0403 12.2407C18.0396 12.3385 18.0329 12.4362 18.0201 12.5332L18.0435 12.3588C18.0281 12.4637 18.0055 12.5674 17.9758 12.6692C17.9612 12.7193 17.9435 12.7686 17.9252 12.8174C17.9004 12.8798 17.9107 12.8564 17.9559 12.7473C17.9437 12.7758 17.9302 12.8038 17.9167 12.8318C17.8721 12.9245 17.8187 13.0128 17.7609 13.0979C17.7493 13.1148 17.7374 13.1315 17.7253 13.148C17.654 13.2468 17.8293 13.0178 17.7524 13.1122C17.7136 13.1597 17.6718 13.2047 17.6291 13.2487C17.5934 13.2854 17.5557 13.3199 17.5176 13.3539C17.5022 13.3674 17.4866 13.3807 17.4709 13.3937C17.3776 13.472 17.6044 13.2939 17.5067 13.3666C17.416 13.4341 17.3185 13.4922 17.2182 13.5442C17.1701 13.5691 16.9885 13.6439 17.2052 13.5551C17.1569 13.5749 17.1075 13.5917 17.0579 13.6078C16.9471 13.6438 16.8327 13.6678 16.7175 13.6848L16.8918 13.6614C16.5775 13.7028 16.2489 13.6816 15.9328 13.6816H8.63415C8.41438 13.6816 8.21775 13.772 8.07431 13.9336L7.69718 14.3586L4.93949 17.4658L4.54026 17.9157L5.65983 18.3794V14.3375C5.65983 13.9799 5.3615 13.6816 5.004 13.6816H3.00775C2.82557 13.6816 2.64438 13.6853 2.46318 13.6614L2.63754 13.6848C2.53265 13.6694 2.42896 13.6468 2.32719 13.6171C2.27702 13.6025 2.22781 13.5849 2.1789 13.5665C2.11653 13.5417 2.1399 13.552 2.24908 13.5972C2.22052 13.585 2.19253 13.5715 2.16457 13.5581C2.07184 13.5134 1.98356 13.46 1.89847 13.4023C1.88158 13.3906 1.86487 13.3788 1.84834 13.3666C1.74955 13.2953 1.97857 13.4706 1.88418 13.3937C1.83661 13.355 1.79164 13.3131 1.74762 13.2704C1.71097 13.2348 1.6764 13.1971 1.64243 13.1589C1.62894 13.1435 1.61568 13.1279 1.60264 13.1122C1.52439 13.0189 1.70247 13.2457 1.62972 13.148C1.56219 13.0573 1.50412 12.9598 1.45213 12.8595C1.42723 12.8114 1.35244 12.6299 1.44121 12.8465C1.42142 12.7982 1.40458 12.7488 1.38849 12.6992C1.35251 12.5884 1.32848 12.474 1.31152 12.3588L1.33494 12.5332C1.29494 12.2296 1.31471 11.9129 1.31471 11.6076V4.15924C1.31471 3.92701 1.30454 3.6907 1.33494 3.46004L1.31152 3.63439C1.32695 3.52951 1.34957 3.42582 1.37924 3.32405C1.39385 3.27387 1.41147 3.22466 1.42983 3.17576C1.45461 3.11338 1.4444 3.13676 1.39917 3.24593C1.41137 3.21738 1.42484 3.18939 1.43828 3.16142C1.48293 3.06869 1.53638 2.98041 1.59409 2.89532C1.60572 2.87844 1.6176 2.86173 1.62972 2.8452C1.70101 2.7464 1.52574 2.97543 1.60264 2.88103C1.6414 2.83346 1.68321 2.78849 1.72596 2.74448C1.76158 2.70782 1.79929 2.67325 1.83745 2.63929C1.85284 2.6258 1.86841 2.61254 1.88418 2.5995C1.97745 2.52124 1.7506 2.69932 1.84834 2.62657C1.93908 2.55904 2.03652 2.50098 2.13684 2.44898C2.18488 2.42408 2.36647 2.3493 2.14983 2.43807C2.19811 2.41828 2.24751 2.40144 2.29709 2.38534C2.40793 2.34937 2.52232 2.32534 2.63749 2.30838L2.46313 2.3318C2.69389 2.3014 2.93053 2.31156 3.16286 2.31156H16.148C16.3945 2.31156 16.647 2.29955 16.8919 2.3318L16.7175 2.30838C16.8224 2.3238 16.9261 2.34643 17.0279 2.37609C17.078 2.39071 17.1272 2.40832 17.1762 2.42668C17.2385 2.45147 17.2151 2.44125 17.106 2.39602C17.1345 2.40823 17.1625 2.4217 17.1905 2.43514C17.2832 2.47978 17.3715 2.53323 17.4566 2.59095C17.4735 2.60257 17.4902 2.61445 17.5067 2.62657C17.6055 2.69787 17.3765 2.5226 17.4709 2.5995C17.5184 2.63826 17.5634 2.68007 17.6074 2.72281C17.6441 2.75844 17.6786 2.79615 17.7126 2.83431C17.7261 2.84969 17.7394 2.86527 17.7524 2.88103C17.8307 2.9743 17.6526 2.74745 17.7253 2.8452C17.7929 2.93594 17.8509 3.03337 17.9029 3.13369C17.9278 3.18173 18.0026 3.36332 17.9138 3.14669C17.9336 3.19496 17.9505 3.24436 17.9666 3.29395C18.0025 3.40478 18.0266 3.51918 18.0435 3.63435L18.0201 3.45999C18.0601 3.76352 18.0403 4.08029 18.0403 4.38557V12.2407C18.0403 12.5982 18.3386 12.8965 18.6962 12.8965C19.0537 12.8965 19.352 12.5982 19.352 12.2407V3.91017C19.352 3.79193 19.353 3.6744 19.3429 3.55635C19.2862 2.88958 19.0098 2.27032 18.5349 1.7954C17.9905 1.25104 17.2548 1 16.4961 1H2.84581C2.058 1 1.303 1.28168 0.756036 1.86138C0.293934 2.35115 0.0414873 2.98503 0.00532302 3.65388C0.000334041 3.74612 0.00302754 3.83936 0.00302754 3.93172V11.5273C0.00302754 11.7976 -0.00512339 12.0693 0.00532302 12.3394C0.0312751 13.0117 0.303444 13.638 0.756036 14.1319C0.957539 14.3518 1.21027 14.5396 1.4748 14.6768C1.80386 14.8473 2.13112 14.9293 2.49508 14.9773C2.73193 15.0084 2.97962 14.9933 3.21785 14.9933H5.00398L4.34815 14.3375V18.3794C4.34815 18.9265 5.07876 19.2814 5.46772 18.8432L7.66908 16.3628L9.05496 14.8012L8.59122 14.9933H16.5842C17.0772 14.9931 17.5615 14.8635 17.9887 14.6175C18.564 14.2861 18.9704 13.7513 19.201 13.1369C19.3069 12.8548 19.3497 12.5406 19.352 12.2407C19.3547 11.8831 19.0516 11.5849 18.6962 11.5849C18.3366 11.5849 18.0431 11.8832 18.0403 12.2407Z" fill="#8B97A8"/>
<path d="M4.21908 7.0431H14.806C15.1635 7.0431 15.4619 6.74477 15.4619 6.38727C15.4619 6.02978 15.1635 5.73145 14.806 5.73145H4.21908C3.86159 5.73145 3.56326 6.02978 3.56326 6.38727C3.56326 6.74477 3.86159 7.0431 4.21908 7.0431ZM4.21908 10.3691H11.3161C11.6736 10.3691 11.9719 10.0708 11.9719 9.71326C11.9719 9.35576 11.6736 9.05743 11.3161 9.05743H4.21908C3.86159 9.05743 3.56326 9.35576 3.56326 9.71326C3.56326 10.0708 3.86159 10.3691 4.21908 10.3691Z" fill="#8B97A8"/>
</svg>
