<svg width="200" height="200" viewBox="0 0 200 200" fill="none" xmlns="http://www.w3.org/2000/svg">
<g id="no-notification (1) 1" clip-path="url(#clip0_869_13024)">
<g id="Group">
<g id="Group_2">
<path id="Vector" d="M84.775 162.959C93.0146 165.167 101.484 160.277 103.692 152.038C105.9 143.798 101.01 135.329 92.7707 133.121C84.5311 130.913 76.0618 135.803 73.8539 144.042C71.6459 152.282 76.5355 160.751 84.775 162.959Z" fill="#3594DC"/>
<path id="Vector_2" fill-rule="evenodd" clip-rule="evenodd" d="M126.552 46.6391C127.256 44.0137 126.885 41.2266 125.53 38.8684C124.174 36.5103 121.936 34.7976 119.312 34.0943C116.688 33.3911 113.893 33.7552 111.54 35.1197C109.187 36.4841 107.473 38.7126 106.769 41.338C105.977 44.2964 105.11 47.5292 104.318 50.4876C103.614 53.113 103.984 55.9002 105.34 58.2583C106.698 60.6171 108.933 62.3292 111.558 63.0324C114.182 63.7356 116.977 63.3715 119.329 62.0071C121.682 60.6427 123.397 58.4141 124.1 55.7888C124.893 52.8303 125.759 49.5975 126.552 46.6391Z" fill="#3594DC"/>
<path id="Vector_3" fill-rule="evenodd" clip-rule="evenodd" d="M145.567 94.0234C148.373 83.554 146.899 72.395 141.482 63.0055C136.064 53.616 127.132 46.7701 116.663 43.9649C106.195 41.1597 95.0339 42.6319 85.6497 48.0443C76.2629 53.4667 69.4072 62.3938 66.6017 72.8632L51.5569 129.007L130.522 150.168L145.567 94.0234Z" fill="#4FB4F3"/>
<path id="Vector_4" fill-rule="evenodd" clip-rule="evenodd" d="M134.544 135.155L54.5879 117.69L51.5558 129.005L130.521 150.165L134.544 135.155Z" fill="#3594DC"/>
<path id="Vector_5" fill-rule="evenodd" clip-rule="evenodd" d="M137.185 151.957C137.786 149.715 137.47 147.324 136.314 145.323C135.147 143.318 133.247 141.852 131.004 141.251C113.442 136.545 73.1702 125.753 55.6083 121.047C53.3659 120.446 50.9759 120.762 48.9739 121.918C46.9689 123.085 45.5032 124.986 44.9024 127.228C44.3015 129.471 44.6175 131.861 45.7732 133.863C46.9259 135.876 48.8408 137.333 51.0832 137.934C68.6451 142.64 108.917 153.432 126.479 158.138C128.721 158.739 131.111 158.423 133.113 157.267C135.118 156.1 136.587 154.188 137.185 151.957Z" fill="#ACDCFA"/>
</g>
<path id="Vector_6" fill-rule="evenodd" clip-rule="evenodd" d="M140.595 55.8477C147.311 65.4064 149.894 77.7604 146.636 89.925L143.486 101.675C131.499 100.798 122.023 90.7778 122.023 78.5659C122.023 67.3489 130.006 57.9916 140.595 55.8477Z" fill="#3594DC"/>
<g id="Group_3">
<path id="Vector_7" d="M150.24 100.9C165.144 100.9 177.226 88.8177 177.226 73.9135C177.226 59.0093 165.144 46.927 150.24 46.927C135.335 46.927 123.253 59.0093 123.253 73.9135C123.253 88.8177 135.335 100.9 150.24 100.9Z" fill="#FAD16B"/>
<path id="Vector_8" d="M155.559 75.7667C155.559 73.363 155.193 71.5342 154.514 70.2278C153.834 68.9215 152.842 68.2422 151.535 68.2422C150.281 68.2422 149.289 68.8693 148.609 70.2278C147.93 71.5342 147.616 73.363 147.616 75.7667C147.616 78.1703 147.93 79.9991 148.609 81.3576C149.289 82.664 150.229 83.3433 151.535 83.3433C152.789 83.3433 153.782 82.664 154.514 81.3576C155.193 79.9991 155.559 78.1703 155.559 75.7667ZM162.508 75.7667C162.508 77.8568 162.247 79.7378 161.672 81.3576C161.15 82.9775 160.366 84.336 159.425 85.4855C158.433 86.5828 157.283 87.4189 155.977 87.9937C154.618 88.5685 153.155 88.8298 151.588 88.8298C149.968 88.8298 148.505 88.5685 147.146 87.9937C145.788 87.4189 144.638 86.5828 143.697 85.4855C142.757 84.3882 141.973 83.0297 141.451 81.3576C140.928 79.7378 140.667 77.8568 140.667 75.7667C140.667 73.6766 140.928 71.7955 141.451 70.1757C141.973 68.5558 142.757 67.1972 143.697 66.0999C144.69 65.0026 145.84 64.1666 147.146 63.5918C148.505 63.017 149.968 62.7557 151.588 62.7557C153.155 62.7557 154.618 63.0693 155.977 63.5918C157.335 64.1666 158.485 65.0026 159.425 66.0999C160.366 67.1972 161.15 68.5558 161.672 70.1757C162.247 71.7955 162.508 73.6766 162.508 75.7667Z" fill="#F5BA26"/>
<path id="Vector_9" d="M154.191 73.3841C154.191 70.9805 153.826 69.1516 153.146 67.8453C152.467 66.539 151.474 65.8597 150.168 65.8597C148.914 65.8597 147.921 66.4868 147.242 67.8453C146.563 69.1516 146.249 70.9805 146.249 73.3841C146.249 75.7878 146.563 77.6166 147.242 78.9751C147.921 80.2815 148.862 80.9608 150.168 80.9608C151.422 80.9608 152.415 80.2815 153.146 78.9751C153.826 77.6166 154.191 75.7878 154.191 73.3841ZM161.141 73.3841C161.141 75.4742 160.88 77.3553 160.305 78.9751C159.782 80.595 158.999 81.9535 158.058 83.103C157.117 84.2003 155.916 85.0364 154.609 85.6112C153.251 86.186 151.788 86.4473 150.22 86.4473C148.6 86.4473 147.137 86.186 145.779 85.6112C144.42 85.0364 143.271 84.2003 142.33 83.103C141.389 82.0057 140.606 80.6472 140.083 78.9751C139.561 77.3553 139.299 75.4742 139.299 73.3841C139.299 71.294 139.561 69.413 140.083 67.7932C140.606 66.1733 141.389 64.8147 142.33 63.7174C143.323 62.6201 144.472 61.7841 145.779 61.2093C147.137 60.6345 148.6 60.3732 150.22 60.3732C151.788 60.3732 153.251 60.6868 154.609 61.2093C155.968 61.7841 157.117 62.6201 158.058 63.7174C158.999 64.8147 159.782 66.1733 160.305 67.7932C160.88 69.413 161.141 71.294 161.141 73.3841Z" fill="white"/>
</g>
<g id="Group_4">
<path id="Vector_10" d="M63.9383 50.6209C63.8706 50.6209 63.7892 50.6074 63.7215 50.5938L50.4843 47.3827C49.983 47.2608 49.6713 46.7595 49.7933 46.2582C49.9152 45.7569 50.4165 45.4453 50.9178 45.5672L64.1551 48.7783C64.6564 48.9002 64.968 49.4015 64.8461 49.9028C64.7377 50.3364 64.3583 50.6209 63.9383 50.6209Z" fill="#FAD16B"/>
<path id="Vector_11" d="M80.5868 35.1071C80.2075 35.1071 79.8552 34.8768 79.7197 34.511L75.6957 24.0106C75.506 23.5229 75.7499 22.9945 76.2377 22.8048C76.7254 22.6151 77.2538 22.859 77.4435 23.3467L81.4675 33.8471C81.6572 34.3348 81.4133 34.8632 80.9256 35.0529C80.8172 35.08 80.6952 35.1071 80.5868 35.1071Z" fill="#FAD16B"/>
<path id="Vector_12" d="M70.2165 42.4167C69.9727 42.4167 69.7423 42.3219 69.5526 42.1457L56.9929 29.586C56.6271 29.2201 56.6271 28.624 56.9929 28.2717C57.3587 27.9059 57.9548 27.9059 58.3071 28.2717L70.8669 40.8315C71.2327 41.1973 71.2327 41.7935 70.8669 42.1457C70.6908 42.3219 70.4604 42.4167 70.2165 42.4167Z" fill="#FAD16B"/>
</g>
</g>
</g>
<defs>
<clipPath id="clip0_869_13024">
<rect width="200" height="200" fill="white"/>
</clipPath>
</defs>
</svg>
