<svg width="17" height="18" viewBox="0 0 17 18" fill="none" xmlns="http://www.w3.org/2000/svg">
<path d="M12.325 7.75897V5.51497C12.325 3.44097 10.659 1.75797 8.58498 1.72397C6.42598 1.67297 4.67498 3.45797 4.67498 5.58297V6.63697C4.67498 6.75597 4.77698 6.87497 4.91298 6.87497H6.05198C6.18798 6.87497 6.28998 6.77297 6.28998 6.63697V5.58297C6.28998 4.39297 7.22498 3.37297 8.41498 3.33897C9.67298 3.28797 10.71 4.29097 10.71 5.53197V7.75897H4.74298C3.90998 7.75897 3.22998 8.43897 3.22998 9.27197V14.78C3.22998 15.613 3.90998 16.293 4.74298 16.293H12.257C13.09 16.293 13.77 15.613 13.77 14.78V9.27197C13.77 8.45597 13.124 7.79297 12.325 7.75897Z" fill="#8B97A8"/>
</svg>
