<svg width="16" height="16" viewBox="0 0 16 16" fill="none" xmlns="http://www.w3.org/2000/svg">
<g clip-path="url(#clip0_1131_6520)">
<path d="M15 7.9525C14.9337 7.9525 14.8701 7.92616 14.8232 7.87928C14.7763 7.83239 14.75 7.7688 14.75 7.7025C14.75 4.1425 11.9375 1.25 8.47247 1.25C8.40617 1.25 8.34258 1.22366 8.2957 1.17678C8.24881 1.12989 8.22247 1.0663 8.22247 1C8.22247 0.933696 8.24881 0.870107 8.2957 0.823223C8.34258 0.776339 8.40617 0.75 8.47247 0.75C12.21 0.75 15.25 3.87 15.25 7.7075C15.2487 7.77293 15.2217 7.83525 15.175 7.88105C15.1283 7.92686 15.0654 7.95251 15 7.9525Z" fill="#8B97A8"/>
<path d="M12.275 7.95249C12.2087 7.95249 12.1451 7.92615 12.0982 7.87926C12.0513 7.83238 12.025 7.76879 12.025 7.70249C12.037 6.74669 11.67 5.82504 11.0043 5.13914C10.3385 4.45324 9.42822 4.05894 8.4725 4.04249C8.40619 4.04249 8.3426 4.01615 8.29572 3.96926C8.24883 3.92238 8.2225 3.85879 8.2225 3.79249C8.2225 3.72618 8.24883 3.66259 8.29572 3.61571C8.3426 3.56882 8.40619 3.54249 8.4725 3.54249C9.56015 3.55764 10.5974 4.00361 11.3566 4.78255C12.1159 5.56149 12.5352 6.6098 12.5225 7.69749C12.5232 7.73053 12.5173 7.76337 12.5052 7.79411C12.493 7.82486 12.475 7.8529 12.4519 7.87662C12.4289 7.90033 12.4014 7.91924 12.3711 7.93227C12.3407 7.94529 12.308 7.95216 12.275 7.95249ZM13.75 13.2075C13.4308 13.8463 12.9781 14.409 12.4225 14.8575C12.2242 15.0146 11.9951 15.1285 11.7502 15.1918C11.5052 15.2551 11.2496 15.2664 11 15.225C8.7325 14.84 6.5 13.845 4.2725 11.655C2.145 9.37249 1.1475 7.04249 0.772495 4.71499C0.730993 4.4593 0.74125 4.19788 0.80266 3.94623C0.864069 3.69458 0.975381 3.45782 1.13 3.24999C1.56239 2.67817 2.11551 2.2087 2.75 1.87499C2.81094 1.811 2.88424 1.76005 2.96546 1.72524C3.04668 1.69043 3.13413 1.67249 3.2225 1.67249C3.31086 1.67249 3.39831 1.69043 3.47953 1.72524C3.56075 1.76005 3.63405 1.811 3.695 1.87499L5.8975 4.16249C6.03158 4.3064 6.10613 4.49579 6.10613 4.69249C6.10613 4.88918 6.03158 5.07857 5.8975 5.22249L4.3375 6.91499C5 8.36749 7.4475 10.8875 8.8525 11.5675L10.5 9.95999C10.5676 9.89226 10.6478 9.83852 10.7362 9.80186C10.8246 9.7652 10.9193 9.74633 11.015 9.74633C11.1107 9.74633 11.2054 9.7652 11.2938 9.80186C11.3821 9.83852 11.4624 9.89226 11.53 9.95999L13.755 12.21C13.8205 12.2756 13.8724 12.3536 13.9076 12.4394C13.9428 12.5251 13.9607 12.617 13.9603 12.7098C13.9598 12.8025 13.941 12.8942 13.9049 12.9797C13.8688 13.0651 13.8162 13.1425 13.75 13.2075Z" fill="#8B97A8"/>
</g>
<defs>
<clipPath id="clip0_1131_6520">
<rect width="16" height="16" fill="white"/>
</clipPath>
</defs>
</svg>
