<svg width="40" height="34" viewBox="0 0 40 34" fill="none" xmlns="http://www.w3.org/2000/svg">
<rect width="40" height="34" rx="6" fill="#3F60EE" fill-opacity="0.1"/>
<path d="M27 16H21V10C21 9.73478 20.8946 9.48043 20.7071 9.29289C20.5196 9.10536 20.2652 9 20 9C19.7348 9 19.4804 9.10536 19.2929 9.29289C19.1054 9.48043 19 9.73478 19 10V16H13C12.7348 16 12.4804 16.1054 12.2929 16.2929C12.1054 16.4804 12 16.7348 12 17C12 17.2652 12.1054 17.5196 12.2929 17.7071C12.4804 17.8946 12.7348 18 13 18H19V24C19 24.2652 19.1054 24.5196 19.2929 24.7071C19.4804 24.8946 19.7348 25 20 25C20.2652 25 20.5196 24.8946 20.7071 24.7071C20.8946 24.5196 21 24.2652 21 24V18H27C27.2652 18 27.5196 17.8946 27.7071 17.7071C27.8946 17.5196 28 17.2652 28 17C28 16.7348 27.8946 16.4804 27.7071 16.2929C27.5196 16.1054 27.2652 16 27 16Z" fill="#3F60EE"/>
</svg>
