<svg width="25" height="24" viewBox="0 0 25 24" fill="none" xmlns="http://www.w3.org/2000/svg">
<rect opacity="0.7" width="24.2215" height="24" rx="8" fill="#FE2424"/>
<path d="M12.1109 20C10.514 20 8.95305 19.5308 7.62531 18.6518C6.29757 17.7727 5.26273 16.5233 4.65164 15.0615C4.04055 13.5997 3.88066 11.9911 4.19219 10.4393C4.50372 8.88743 5.27268 7.46197 6.40183 6.34315C7.53097 5.22433 8.96959 4.4624 10.5358 4.15372C12.1019 3.84504 13.7253 4.00347 15.2006 4.60897C16.6759 5.21447 17.9369 6.23985 18.8241 7.55544C19.7112 8.87103 20.1847 10.4178 20.1847 12C20.1847 14.1217 19.3341 16.1566 17.82 17.6569C16.3058 19.1571 14.2522 20 12.1109 20ZM12.1109 5.37143C10.7878 5.37143 9.49439 5.76019 8.39427 6.48855C7.29414 7.2169 6.4367 8.25215 5.93037 9.46336C5.42404 10.6746 5.29156 12.0074 5.54968 13.2932C5.80781 14.579 6.44495 15.7601 7.38052 16.6871C8.3161 17.6141 9.5081 18.2454 10.8058 18.5012C12.1035 18.757 13.4486 18.6257 14.671 18.124C15.8933 17.6223 16.9381 16.7727 17.6732 15.6826C18.4083 14.5926 18.8007 13.311 18.8007 12C18.8007 10.242 18.0958 8.55599 16.8413 7.3129C15.5867 6.0698 13.8851 5.37143 12.1109 5.37143Z" fill="white"/>
<path d="M12.8029 14.5142H11.4188V15.8856H12.8029V14.5142Z" fill="white"/>
<path d="M12.8029 8.11426H11.4188V13.6H12.8029V8.11426Z" fill="white"/>
</svg>
