<svg width="40" height="40" viewBox="0 0 40 40" fill="none" xmlns="http://www.w3.org/2000/svg">
<rect width="40" height="40" rx="10" fill="#F8F8F8"/>
<path d="M20 10.3922C17.6164 10.3922 15.6708 12.3378 15.6708 14.7214C15.6708 17.105 17.6164 19.0499 20 19.0499C22.3836 19.0499 24.3292 17.1043 24.3292 14.7214C24.3292 12.3371 22.3836 10.3922 20 10.3922ZM9.59607 29.6099C9.59634 29.7002 9.61441 29.7896 9.64926 29.873C9.6841 29.9564 9.73503 30.032 9.79913 30.0957C9.86324 30.1593 9.93926 30.2097 10.0229 30.244C10.1065 30.2783 10.196 30.2957 10.2863 30.2953H29.7137C29.804 30.2957 29.8936 30.2783 29.9772 30.244C30.0607 30.2097 30.1368 30.1593 30.2009 30.0957C30.265 30.032 30.3159 29.9564 30.3508 29.873C30.3856 29.7896 30.4037 29.7002 30.4039 29.6099C30.4039 23.9717 25.8795 19.4191 20 19.2616C14.1205 19.4184 9.59607 23.971 9.59607 29.6099Z" fill="#3F60EE"/>
</svg>
