<svg width="40" height="40" viewBox="0 0 40 40" fill="none" xmlns="http://www.w3.org/2000/svg">
<rect width="40" height="40" rx="10" fill="#F8F8F8"/>
<g clip-path="url(#clip0_802_6610)">
<g clip-path="url(#clip1_802_6610)">
<path fill-rule="evenodd" clip-rule="evenodd" d="M29.9324 27.1231C29.8445 26.7011 29.4313 26.4302 29.0091 26.518C28.587 26.6059 28.3161 27.0193 28.404 27.4413C28.4546 27.6844 28.3943 27.9336 28.2387 28.125C28.1485 28.2359 27.9475 28.4219 27.6143 28.4219H12.3688C12.0356 28.4219 11.8345 28.2359 11.7444 28.125C11.5887 27.9336 11.5284 27.6844 11.579 27.4413C12.3891 23.5503 15.8212 20.7079 19.7846 20.612C19.8532 20.6147 19.9222 20.616 19.9915 20.616C20.0611 20.616 20.1303 20.6146 20.1992 20.612C22.9911 20.679 25.5716 22.093 27.1343 24.4236C27.3743 24.7817 27.8592 24.8773 28.2173 24.6373C28.5754 24.3972 28.6711 23.9123 28.431 23.5542C27.1501 21.644 25.2902 20.2549 23.1696 19.5569C24.4619 18.5879 25.2995 17.0439 25.2995 15.308C25.2995 12.3812 22.9184 10 19.9915 10C17.0647 10 14.6835 12.3812 14.6835 15.308C14.6835 17.045 15.5222 18.5898 16.8158 19.5588C15.6306 19.949 14.5184 20.5562 13.545 21.3568C11.7601 22.825 10.5191 24.8728 10.0506 27.1231C9.90382 27.8282 10.0797 28.5525 10.5332 29.11C10.9844 29.6649 11.6535 29.9831 12.3688 29.9831H27.6142C28.3296 29.9831 28.9987 29.6649 29.4498 29.11C29.9034 28.5525 30.0792 27.8282 29.9324 27.1231ZM16.2447 15.308C16.2447 13.242 17.9255 11.5612 19.9915 11.5612C22.0575 11.5612 23.7383 13.242 23.7383 15.308C23.7383 17.3104 22.1594 18.951 20.1812 19.0501C20.118 19.0489 20.0548 19.0483 19.9915 19.0483C19.9285 19.0483 19.8655 19.049 19.8026 19.0501C17.824 18.9514 16.2447 17.3107 16.2447 15.308Z" fill="#8B97A8"/>
</g>
</g>
<defs>
<clipPath id="clip0_802_6610">
<rect width="19.9831" height="19.9831" fill="white" transform="translate(10 10)"/>
</clipPath>
<clipPath id="clip1_802_6610">
<rect width="19.9831" height="19.9831" fill="white" transform="translate(10 10)"/>
</clipPath>
</defs>
</svg>
