<svg width="16" height="16" viewBox="0 0 16 16" fill="none" xmlns="http://www.w3.org/2000/svg">
<path d="M12.4094 6.40625C12.3469 6.25313 12.3094 6.1625 12.2437 6.00938L12.8313 4.54375L11.4563 3.16875L9.99063 3.75625C9.8375 3.69375 9.74687 3.65625 9.59375 3.59063L8.97188 2.14062H7.02812L6.40625 3.59063C6.25313 3.65313 6.1625 3.69062 6.00938 3.75625L4.54375 3.16875L3.16875 4.54375L3.75625 6.00938C3.69375 6.1625 3.65625 6.25312 3.59375 6.40312L2.14062 7.025V8.96875L3.59375 9.59375C3.65625 9.74687 3.69375 9.8375 3.75625 9.9875L3.16875 11.4531L4.54375 12.8281L6.0125 12.2406C6.1625 12.3031 6.25625 12.3406 6.40625 12.4031L7.02812 13.8562H8.97188L9.44375 12.7563L8.18437 11.4969C8.11875 11.5 8.05 11.5031 7.98438 11.5031C7.04688 11.5031 6.16875 11.1406 5.5125 10.4812C4.63437 9.60312 4.29063 8.30625 4.60938 7.09688C4.93125 5.87813 5.88125 4.92812 7.1 4.60625C7.39687 4.52812 7.70312 4.4875 8.00937 4.4875C8.94687 4.4875 9.825 4.85 10.4812 5.50938C11.1875 6.21563 11.55 7.19687 11.4969 8.18125L12.7594 9.44375L13.8594 8.97188V7.02812L12.4094 6.40625Z" fill="#8B97A8"/>
<path d="M13.5156 11.8593L10.2531 8.59365C10.4593 7.8124 10.2656 6.9499 9.65307 6.3374C9.04058 5.7249 8.17808 5.53115 7.39683 5.7374L8.82495 7.16553L7.1687 8.82178L5.74058 7.39365C5.53433 8.1749 5.72808 9.0374 6.34058 9.6499C6.95308 10.2624 7.81558 10.4562 8.59683 10.2499L11.8625 13.5155C12.3187 13.9718 13.0625 13.9718 13.5187 13.5155C13.975 13.0593 13.975 12.3155 13.5156 11.8593Z" fill="#8B97A8"/>
</svg>
