<svg width="200" height="201" viewBox="0 0 200 201" fill="none" xmlns="http://www.w3.org/2000/svg">
<g clip-path="url(#clip0_846_847)">
<path d="M85.9118 87.5C85.9118 87.4993 85.9118 87.4979 85.9118 87.4972L91.1837 84.4315C91.5532 84.2166 91.7335 83.7806 91.6223 83.3671L89.4033 75.085C89.2928 74.6722 88.9193 74.3847 88.4915 74.3827L82.3945 74.365C82.3925 74.3623 82.3918 74.3583 82.3898 74.3549C81.4718 72.8179 80.4006 71.4017 79.1267 70.1196L80.6901 64.2132C80.7993 63.8003 80.6176 63.3644 80.2481 63.1508L72.8244 58.8634C72.4535 58.6498 71.9864 58.7101 71.6833 59.0125L67.3545 63.3156L67.3471 63.3115C65.5959 62.8471 63.8305 62.6261 62.0352 62.6003L58.9769 57.3393C58.762 56.9691 58.326 56.7895 57.9132 56.9L49.6332 59.1189C49.2196 59.2295 48.9322 59.6037 48.9308 60.0308L48.9125 66.1122C48.9057 66.1149 48.8989 66.1183 48.8928 66.1223C47.3708 67.0098 45.9342 68.1156 44.6494 69.3928L38.764 67.8342C38.3505 67.725 37.9145 67.9061 37.701 68.2769L33.4155 75.7013C33.2013 76.0722 33.2623 76.54 33.564 76.843L37.8542 81.1603C37.8535 81.163 37.8522 81.1664 37.8515 81.1684C37.3871 82.9189 37.1491 84.7162 37.1233 86.5101L31.8908 89.5528C31.5206 89.7678 31.341 90.2037 31.4515 90.6159L33.6705 98.8979C33.781 99.3115 34.1545 99.5989 34.5823 99.6003L40.6481 99.6193L40.6616 99.6274C41.5816 101.168 42.6549 102.589 43.9335 103.874L43.943 103.878L42.3837 109.77C42.2745 110.183 42.4555 110.619 42.8257 110.833L50.2494 115.119C50.6203 115.334 51.0874 115.272 51.3905 114.97L55.7145 110.672C57.463 111.134 59.2257 111.354 61.0169 111.381C61.0237 111.381 61.0305 111.38 61.0366 111.38L64.0962 116.644C64.3111 117.014 64.7471 117.194 65.1606 117.082L73.4406 114.864C73.8542 114.753 74.1416 114.379 74.143 113.951L74.1613 107.876C75.6942 106.958 77.1247 105.858 78.404 104.587C78.4047 104.586 78.4054 104.585 78.4061 104.585L84.3105 106.148C84.724 106.257 85.1593 106.076 85.3735 105.705L89.6596 98.2796C89.8732 97.9095 89.8128 97.4423 89.5111 97.1379L85.2047 92.805C85.2088 92.7989 85.2115 92.7928 85.2189 92.78C85.6338 91.043 85.9037 89.2634 85.9118 87.5ZM78.3857 96.7474C73.0101 106.06 61.0949 109.28 51.7538 103.886C42.444 98.5094 39.2427 86.5603 44.6176 77.2478C49.9932 67.9366 61.9396 64.7345 71.2494 70.1095C80.5911 75.5047 83.7606 87.4362 78.3857 96.7474Z" fill="#3F60EE"/>
<path d="M61.5063 104.987C51.5796 104.987 43.5063 96.9141 43.5063 86.9908C43.5063 77.0674 51.5796 68.9941 61.5063 68.9941C71.4291 68.9941 79.503 77.0674 79.503 86.9908C79.503 96.9141 71.4291 104.987 61.5063 104.987ZM61.5063 69.8816C52.0718 69.8816 44.3931 77.5569 44.3931 86.9914C44.3931 96.426 52.0718 104.101 61.5063 104.101C70.9409 104.101 78.6162 96.426 78.6162 86.9914C78.6162 77.5569 70.9409 69.8816 61.5063 69.8816Z" fill="#3F60EE"/>
<path d="M190.106 113.083C190.106 113.082 190.107 113.08 190.107 113.078L198.987 110.296C199.609 110.101 200.024 109.514 199.999 108.86L199.492 95.7875C199.468 95.1359 199.008 94.582 198.372 94.4349L189.306 92.3509C189.304 92.3461 189.304 92.3393 189.302 92.3346C188.455 89.738 187.339 87.2688 185.877 84.9312L190.196 76.6695C190.498 76.0919 190.375 75.3827 189.896 74.9393L180.297 66.0546C179.818 65.6112 179.102 65.5441 178.548 65.8912L170.654 70.8336L170.644 70.8248C168.195 69.5427 165.643 68.618 162.98 67.9739L160.205 59.1136C160.01 58.4905 159.422 58.0756 158.77 58.1007L145.7 58.6085C145.048 58.6336 144.494 59.0926 144.348 59.7285L142.268 68.7719C142.258 68.7739 142.247 68.7759 142.235 68.78C139.67 69.5868 137.159 70.7475 134.817 72.2146L126.585 67.9088C126.006 67.6065 125.297 67.7285 124.854 68.2085L115.971 77.8098C115.527 78.2898 115.461 79.0058 115.807 79.559L120.734 87.4309C120.731 87.4349 120.729 87.439 120.727 87.4417C119.446 89.8898 118.485 92.4844 117.841 95.1441L109.028 97.9061C108.405 98.1007 107.991 98.6885 108.016 99.34L108.523 112.413C108.548 113.065 109.007 113.619 109.643 113.765L118.663 115.84L118.681 115.857C119.529 118.46 120.647 120.936 122.117 123.28L122.129 123.291L117.82 131.531C117.518 132.11 117.641 132.819 118.119 133.263L127.719 142.146C128.198 142.591 128.915 142.657 129.468 142.311L137.352 137.375C139.799 138.651 142.347 139.575 145.004 140.218C145.014 140.22 145.024 140.221 145.034 140.223L147.81 149.089C148.005 149.712 148.593 150.127 149.245 150.101L162.315 149.595C162.967 149.568 163.521 149.109 163.668 148.473L165.744 139.44C168.336 138.591 170.835 137.436 173.167 135.977C173.169 135.975 173.17 135.974 173.171 135.975L181.429 140.294C182.007 140.596 182.717 140.474 183.16 139.994L192.043 130.391C192.486 129.912 192.554 129.196 192.208 128.642L187.262 120.741C187.27 120.733 187.277 120.725 187.292 120.709C188.496 118.261 189.498 115.705 190.106 113.083ZM175.786 124.304C164.645 136.347 145.827 137.117 133.748 125.938C121.708 114.796 120.978 95.9346 132.119 83.8912C143.26 71.8498 162.117 71.117 174.157 82.2573C186.237 93.4383 186.926 112.262 175.786 124.304Z" fill="#3F60EE"/>
<path d="M147.888 130.869C133.117 127.52 123.829 112.781 127.177 98.0159C130.525 83.2505 145.264 73.961 160.035 77.3115C174.8 80.6599 184.09 95.3983 180.74 110.164C177.392 124.929 162.654 134.218 147.888 130.869ZM159.736 78.6301C145.696 75.4464 131.681 84.2755 128.496 98.3149C125.312 112.354 134.149 126.366 148.187 129.55C162.226 132.735 176.237 123.903 179.421 109.865C182.605 95.8254 173.775 81.8145 159.736 78.6301Z" fill="#3F60EE"/>
<path d="M108.677 135.106C108.677 135.105 108.677 135.104 108.677 135.103L113.176 132.486C113.492 132.303 113.645 131.931 113.551 131.578L111.657 124.509C111.563 124.156 111.244 123.911 110.879 123.909L105.675 123.894C105.673 123.891 105.672 123.888 105.671 123.885C104.887 122.573 103.973 121.364 102.885 120.27L104.22 115.229C104.313 114.876 104.158 114.505 103.842 114.322L97.5058 110.663C97.1892 110.481 96.7905 110.533 96.5315 110.791L92.8366 114.463L92.8299 114.46C91.3349 114.063 89.8285 113.875 88.2963 113.853L85.6861 109.363C85.5031 109.047 85.1309 108.893 84.7783 108.987L77.7112 110.882C77.3587 110.976 77.1132 111.295 77.1119 111.66L77.0963 116.85C77.0909 116.853 77.0848 116.856 77.0794 116.859C75.7804 117.617 74.5539 118.561 73.4577 119.651L68.4339 118.321C68.0807 118.227 67.7092 118.382 67.5261 118.699L63.8685 125.036C63.6854 125.352 63.7377 125.752 63.9953 126.01L67.657 129.695C67.6563 129.698 67.6556 129.701 67.6549 129.702C67.259 131.196 67.0556 132.73 67.0332 134.261L62.5675 136.859C62.2516 137.042 62.0983 137.414 62.1926 137.766L64.0861 144.836C64.1804 145.189 64.499 145.434 64.8644 145.435L70.0414 145.451L70.0529 145.458C70.838 146.773 71.7546 147.985 72.8454 149.082L72.8536 149.086L71.5227 154.115C71.4292 154.468 71.5838 154.84 71.8997 155.023L78.236 158.681C78.5526 158.864 78.9512 158.812 79.2102 158.554L82.901 154.886C84.3932 155.28 85.8983 155.468 87.4271 155.49C87.4326 155.49 87.4387 155.49 87.4441 155.49L90.0556 159.983C90.2393 160.299 90.6109 160.453 90.9641 160.357L98.0312 158.463C98.3837 158.368 98.6292 158.049 98.6305 157.684L98.6461 152.499C99.9546 151.715 101.176 150.776 102.267 149.691C102.268 149.69 102.268 149.689 102.268 149.689L107.308 151.024C107.661 151.118 108.033 150.963 108.216 150.646L111.874 144.309C112.056 143.993 112.005 143.594 111.747 143.334L108.072 139.636C108.075 139.63 108.077 139.625 108.084 139.615C108.439 138.13 108.669 136.612 108.677 135.106ZM102.253 143C97.6651 150.948 87.4949 153.697 79.5214 149.092C71.5749 144.503 68.8427 134.304 73.4305 126.356C78.0183 118.408 88.2156 115.675 96.1621 120.263C104.135 124.868 106.84 135.052 102.253 143Z" fill="#3F60EE"/>
<path d="M87.8453 150.033C79.3728 150.033 72.4819 143.142 72.4819 134.672C72.4819 126.202 79.3728 119.312 87.8453 119.312C96.3152 119.312 103.206 126.202 103.206 134.672C103.206 143.142 96.3152 150.033 87.8453 150.033ZM87.8453 120.069C79.7924 120.069 73.2385 126.62 73.2385 134.672C73.2385 142.725 79.7924 149.276 87.8453 149.276C95.8982 149.276 102.449 142.724 102.449 134.672C102.449 126.619 95.8982 120.069 87.8453 120.069Z" fill="#3F60EE"/>
<path d="M18.0263 134.648L19.9185 129.842C21.3762 129.88 22.7145 129.701 23.9294 129.305L26.9972 133.472C27.0731 133.859 27.5857 134.002 27.8514 133.71L32.2155 131.248C32.4338 131.124 32.5762 130.615 32.4528 130.396L30.4772 125.613C31.4453 124.781 32.2874 123.727 33.0094 122.458L37.9308 123.278C38.2724 123.373 38.7084 123.128 38.804 122.787L40.1362 118.008C40.2311 117.667 39.985 117.23 39.6433 117.135L34.8413 115.244C34.8799 113.784 34.6962 112.446 34.4738 111.28L38.6385 108.212C38.8569 108.088 38.9999 107.577 38.7057 107.31L36.2453 102.947C36.1219 102.728 35.6094 102.585 35.3911 102.709L30.6108 104.685C29.7762 103.716 28.7274 102.874 27.4562 102.151L28.2752 97.2315C28.3701 96.8898 28.124 96.4532 27.7823 96.3576L23.004 95.0254C22.6623 94.9305 22.2257 95.1766 22.1301 95.5183L20.2426 100.324C18.9518 100.332 17.6141 100.509 16.2752 100.688L13.3775 96.5712C13.0833 96.3054 12.5755 96.1637 12.305 96.4559L7.9416 98.9163C7.7233 99.0397 7.58025 99.5515 7.70364 99.7705L9.67991 104.551C8.71516 105.386 8.04058 106.484 7.31855 107.754L2.22635 106.886C1.88465 106.791 1.44804 107.037 1.35245 107.379L0.0202464 112.158C-0.0746688 112.498 0.172111 112.935 0.513806 113.03L5.31991 114.922C5.32872 116.211 5.5077 117.549 5.85821 118.934L1.73686 121.832C1.30025 122.076 1.15787 122.589 1.45143 122.855L3.91584 127.221C4.03516 127.436 4.5477 127.579 4.76601 127.459L9.5477 125.478C10.3823 126.447 11.4826 127.122 12.7497 127.844L11.8826 132.936C11.7877 133.278 12.0338 133.714 12.3755 133.81L17.1538 135.142C17.4941 135.236 17.9308 134.989 18.0263 134.648ZM11.4392 112.764C12.7714 107.986 17.6189 105.108 22.3972 106.441C27.1714 107.772 30.0487 112.622 28.7172 117.398C27.385 122.177 22.5416 125.055 17.7592 123.722C12.985 122.391 10.107 117.543 11.4392 112.764Z" fill="#3B5DF1" fill-opacity="0.2"/>
<path d="M20.0794 123.168C15.6218 123.168 11.9954 119.541 11.9954 115.084C11.9954 110.626 15.6218 107 20.0794 107C24.5371 107 28.1635 110.626 28.1635 115.084C28.1628 119.541 24.5371 123.168 20.0794 123.168ZM20.0794 107.887C16.1099 107.887 12.8821 111.114 12.8821 115.084C12.8821 119.053 16.1099 122.281 20.0794 122.281C24.0489 122.281 27.2767 119.053 27.2767 115.084C27.2767 111.115 24.0482 107.887 20.0794 107.887Z" fill="#3B5DF1" fill-opacity="0.2"/>
<path d="M98.8034 80.2579L100.696 75.4518C102.153 75.4898 103.492 75.3108 104.706 74.9155L107.774 79.0823C107.85 79.4694 108.363 79.6125 108.629 79.3203L112.993 76.8579C113.211 76.7345 113.353 76.2247 113.23 76.0057L111.254 71.2233C112.222 70.3908 113.064 69.3372 113.786 68.0681L118.708 68.8877C119.05 68.9826 119.485 68.7386 119.581 68.3969L120.913 63.6186C121.008 63.2769 120.762 62.8403 120.42 62.7447L115.618 60.8538C115.657 59.3942 115.473 58.0565 115.251 56.8904L119.416 53.822C119.634 53.6986 119.777 53.1867 119.483 52.9203L117.022 48.5569C116.899 48.3386 116.386 48.1955 116.168 48.3189L111.388 50.2952C110.553 49.3264 109.504 48.4837 108.233 47.7609L109.052 42.8416C109.147 42.4999 108.901 42.0633 108.559 41.9677L103.781 40.6355C103.439 40.5406 103.003 40.7867 102.907 41.1284L101.02 45.9338C99.7289 45.942 98.3912 46.1189 97.0523 46.2979L94.1546 42.1813C93.8604 41.9155 93.3526 41.7738 93.0821 42.066L88.7187 44.5264C88.5004 44.6498 88.3573 45.1616 88.4807 45.3806L90.457 50.1609C89.4923 50.9962 88.8177 52.0945 88.0957 53.3637L83.0035 52.4959C82.6618 52.4009 82.2251 52.647 82.1296 52.9887L80.7973 57.767C80.7024 58.1067 80.9492 58.5433 81.2909 58.6389L86.097 60.5311C86.1058 61.8199 86.2848 63.1582 86.6353 64.5426L82.514 67.4409C82.078 67.685 81.935 68.1976 82.2285 68.464L84.6929 72.8301C84.8123 73.045 85.3248 73.1881 85.5431 73.0674L90.3248 71.0871C91.1594 72.0559 92.2597 72.7311 93.5268 73.4525L92.6597 78.5447C92.5648 78.8864 92.8109 79.323 93.1526 79.4186L97.9309 80.7508C98.2712 80.8457 98.7085 80.5996 98.8034 80.2579ZM92.2163 58.3745C93.5485 53.5962 98.396 50.7182 103.174 52.0511C107.949 53.382 110.826 58.2321 109.494 63.0084C108.162 67.7867 103.319 70.6654 98.5363 69.3318C93.7621 68.0003 90.8841 63.1528 92.2163 58.3745Z" fill="#3B5DF1" fill-opacity="0.2"/>
<path d="M100.856 68.778C96.3987 68.778 92.7722 65.1516 92.7722 60.6939C92.7722 56.2363 96.3987 52.6099 100.856 52.6099C105.314 52.6099 108.94 56.2363 108.94 60.6939C108.94 65.1516 105.314 68.778 100.856 68.778ZM100.856 53.4966C96.8868 53.4966 93.659 56.7244 93.659 60.6939C93.659 64.6634 96.8868 67.8912 100.856 67.8912C104.826 67.8912 108.054 64.6634 108.054 60.6939C108.054 56.7244 104.825 53.4966 100.856 53.4966Z" fill="#3B5DF1" fill-opacity="0.2"/>
</g>
<defs>
<clipPath id="clip0_846_847">
<rect width="200" height="200" fill="white" transform="translate(0 0.5)"/>
</clipPath>
</defs>
</svg>
