<svg width="44" height="34" viewBox="0 0 44 34" fill="none" xmlns="http://www.w3.org/2000/svg">
<rect width="44" height="34" rx="10" fill="#3F60EE" fill-opacity="0.1"/>
<rect x="10" y="6" width="24" height="22" rx="6" fill="#3F60EE"/>
<g clip-path="url(#clip0_811_21980)">
<path d="M24.3901 17.04C24.3578 17.0083 24.3174 16.986 24.2734 16.9754C24.2294 16.9648 24.1833 16.9664 24.1401 16.98C24.0946 16.9933 24.0475 17 24.0001 17C23.8675 17 23.7403 16.9473 23.6465 16.8536C23.5528 16.7598 23.5001 16.6326 23.5001 16.5C23.4931 16.4519 23.4931 16.4031 23.5001 16.355C23.5131 16.3114 23.5138 16.265 23.5024 16.221C23.4909 16.1769 23.4677 16.1368 23.4351 16.105L23.0751 15.745C22.9125 15.5906 22.6968 15.5045 22.4726 15.5045C22.2484 15.5045 22.0327 15.5906 21.8701 15.745L19.0001 12.895V12.54C18.9997 12.4078 18.9643 12.278 18.8976 12.1639C18.8308 12.0497 18.7351 11.9552 18.6201 11.89L17.1251 11.035C17.0776 11.008 17.0225 10.9972 16.9684 11.0044C16.9142 11.0117 16.8639 11.0365 16.8251 11.075L16.0751 11.825C16.0366 11.8638 16.0118 11.9141 16.0045 11.9683C15.9973 12.0224 16.0081 12.0775 16.0351 12.125L16.8901 13.625C16.956 13.7391 17.0507 13.8338 17.1648 13.8996C17.2789 13.9655 17.4084 14.0001 17.5401 14H17.8951L20.7701 16.875C20.611 17.0352 20.5217 17.2518 20.5217 17.4775C20.5217 17.7032 20.611 17.9198 20.7701 18.08L21.1301 18.44C21.1619 18.4726 21.202 18.4958 21.2461 18.5073C21.2901 18.5187 21.3365 18.518 21.3801 18.505C21.4545 18.4866 21.5322 18.4855 21.6072 18.5019C21.6821 18.5183 21.7522 18.5518 21.8122 18.5996C21.8721 18.6475 21.9202 18.7085 21.9528 18.7779C21.9854 18.8473 22.0016 18.9233 22.0001 19C22.0067 19.0464 22.0067 19.0936 22.0001 19.14C21.9865 19.1832 21.9849 19.2293 21.9955 19.2733C22.0061 19.3173 22.0284 19.3577 22.0601 19.39L25.2401 22.57C25.3753 22.7055 25.5358 22.8129 25.7125 22.8863C25.8893 22.9596 26.0788 22.9973 26.2701 22.9973C26.4614 22.9973 26.6509 22.9596 26.8277 22.8863C27.0044 22.8129 27.1649 22.7055 27.3001 22.57L27.5951 22.275C27.7306 22.1398 27.838 21.9793 27.9114 21.8026C27.9847 21.6258 28.0224 21.4364 28.0224 21.245C28.0224 21.0537 27.9847 20.8642 27.9114 20.6874C27.838 20.5107 27.7306 20.3502 27.5951 20.215L24.3901 17.04ZM22.5451 15C22.887 15.0096 23.2124 15.149 23.4551 15.39L23.8151 15.75C23.9487 15.8831 24.0272 16.0616 24.0351 16.25C24.0385 16.3104 24.0637 16.3674 24.106 16.4106C24.1483 16.4538 24.2048 16.4803 24.2651 16.485C24.3639 16.4921 24.4606 16.5176 24.5501 16.56C24.5847 16.5674 24.6205 16.5674 24.6551 16.56H24.7051C24.8808 16.5211 25.0601 16.501 25.2401 16.5C25.6018 16.502 25.9604 16.4324 26.2952 16.2954C26.6299 16.1583 26.9343 15.9564 27.1908 15.7013C27.4473 15.4462 27.6508 15.143 27.7897 14.8089C27.9286 14.4749 28.0001 14.1167 28.0001 13.755C27.9973 13.3038 27.8822 12.8605 27.6651 12.465C27.6443 12.427 27.6141 12.395 27.5773 12.3723C27.5405 12.3495 27.4984 12.3366 27.4551 12.335C27.4121 12.3333 27.3694 12.3425 27.331 12.3617C27.2925 12.381 27.2595 12.4096 27.2351 12.445L26.5001 13.5C26.4542 13.5735 26.3899 13.6338 26.3137 13.675C26.2374 13.7162 26.1518 13.7369 26.0651 13.735H25.9401C25.7098 13.7315 25.4857 13.6598 25.2962 13.529C25.1066 13.3981 24.9601 13.2141 24.8751 13C24.8451 12.925 24.8326 12.844 24.8387 12.7634C24.8448 12.6828 24.8692 12.6047 24.9101 12.535L25.6051 11.4C25.6266 11.3618 25.6378 11.3188 25.6378 11.275C25.6378 11.2312 25.6266 11.1882 25.6051 11.15C25.5816 11.1063 25.5471 11.0694 25.505 11.0431C25.4629 11.0168 25.4147 11.0019 25.3651 11H25.2501C24.8879 11.0007 24.5294 11.0727 24.195 11.2121C23.8607 11.3515 23.5571 11.5554 23.3017 11.8122C23.0463 12.069 22.844 12.3737 22.7065 12.7088C22.5689 13.0439 22.4988 13.4028 22.5001 13.765C22.5017 14.072 22.4422 14.3762 22.3251 14.66C22.3097 14.6975 22.3036 14.7382 22.3074 14.7785C22.3112 14.8189 22.3248 14.8577 22.3469 14.8916C22.3691 14.9256 22.3991 14.9537 22.4345 14.9734C22.4699 14.9931 22.5096 15.004 22.5501 15.005L22.5451 15ZM21.1901 19C21.0266 18.9809 20.8739 18.9089 20.7551 18.795L20.3951 18.435C20.2054 18.2452 20.0766 18.0033 20.0251 17.74C20.0163 17.6958 19.9958 17.6548 19.9656 17.6214C19.9355 17.5879 19.8968 17.5632 19.8538 17.5499C19.8108 17.5366 19.765 17.5352 19.7212 17.5457C19.6774 17.5563 19.6373 17.5785 19.6051 17.61L16.3651 20.875C16.2433 20.9971 16.148 21.1431 16.0854 21.3039C16.0227 21.4646 15.994 21.6365 16.001 21.8089C16.0081 21.9813 16.0507 22.1503 16.1263 22.3054C16.2019 22.4605 16.3087 22.5982 16.4401 22.71C16.66 22.8985 16.9405 23.0014 17.2301 23C17.407 22.9991 17.5819 22.9633 17.7449 22.8946C17.908 22.826 18.0558 22.7259 18.1801 22.6L21.3351 19.445C21.3682 19.412 21.3914 19.3703 21.402 19.3247C21.4126 19.2792 21.4103 19.2316 21.3952 19.1873C21.38 19.143 21.3528 19.1039 21.3166 19.0743C21.2803 19.0447 21.2365 19.0259 21.1901 19.02V19Z" fill="white"/>
</g>
<defs>
<clipPath id="clip0_811_21980">
<rect width="12" height="12" fill="white" transform="translate(16 11)"/>
</clipPath>
</defs>
</svg>
