<svg width="24" height="24" viewBox="0 0 24 24" fill="none" xmlns="http://www.w3.org/2000/svg">
<rect width="24" height="24" rx="6" fill="#00B383"/>
<path d="M12 6C10.8133 6 9.65328 6.35189 8.66658 7.01118C7.67989 7.67047 6.91085 8.60754 6.45673 9.7039C6.0026 10.8003 5.88378 12.0067 6.11529 13.1705C6.3468 14.3344 6.91825 15.4035 7.75736 16.2426C8.59648 17.0818 9.66557 17.6532 10.8295 17.8847C11.9933 18.1162 13.1997 17.9974 14.2961 17.5433C15.3925 17.0891 16.3295 16.3201 16.9888 15.3334C17.6481 14.3467 18 13.1867 18 12C18 10.4087 17.3679 8.88258 16.2426 7.75736C15.1174 6.63214 13.5913 6 12 6ZM14.32 10.885L11.32 13.385C11.2241 13.4653 11.1016 13.5068 10.9767 13.5013C10.8517 13.4957 10.7334 13.4435 10.645 13.355L9.645 12.355C9.55085 12.2608 9.49796 12.1331 9.49796 12C9.49796 11.8668 9.55085 11.7392 9.645 11.645C9.73915 11.5508 9.86685 11.498 10 11.498C10.1332 11.498 10.2609 11.5508 10.355 11.645L11.03 12.325L13.68 10.115C13.7306 10.073 13.7889 10.0413 13.8517 10.0218C13.9145 10.0024 13.9805 9.99545 14.046 10.0015C14.1114 10.0075 14.1751 10.0264 14.2332 10.057C14.2914 10.0877 14.343 10.1294 14.385 10.18C14.427 10.2306 14.4587 10.2889 14.4782 10.3517C14.4976 10.4145 14.5045 10.4805 14.4985 10.546C14.4925 10.6114 14.4736 10.6751 14.443 10.7332C14.4123 10.7914 14.3706 10.843 14.32 10.885Z" fill="white"/>
</svg>
