<svg width="44" height="34" viewBox="0 0 44 34" fill="none" xmlns="http://www.w3.org/2000/svg">
<rect width="44" height="34" rx="10" fill="#00B383" fill-opacity="0.1"/>
<rect x="10" y="5" width="24" height="24" rx="6" fill="#00B383"/>
<path d="M22 11C20.8133 11 19.6533 11.3519 18.6666 12.0112C17.6799 12.6705 16.9109 13.6075 16.4567 14.7039C16.0026 15.8003 15.8838 17.0067 16.1153 18.1705C16.3468 19.3344 16.9182 20.4035 17.7574 21.2426C18.5965 22.0818 19.6656 22.6532 20.8295 22.8847C21.9933 23.1162 23.1997 22.9974 24.2961 22.5433C25.3925 22.0891 26.3295 21.3201 26.9888 20.3334C27.6481 19.3467 28 18.1867 28 17C28 15.4087 27.3679 13.8826 26.2426 12.7574C25.1174 11.6321 23.5913 11 22 11ZM24.32 15.885L21.32 18.385C21.2241 18.4653 21.1016 18.5068 20.9767 18.5013C20.8517 18.4957 20.7334 18.4435 20.645 18.355L19.645 17.355C19.5509 17.2608 19.498 17.1331 19.498 17C19.498 16.8668 19.5509 16.7392 19.645 16.645C19.7392 16.5508 19.8669 16.498 20 16.498C20.1332 16.498 20.2609 16.5508 20.355 16.645L21.03 17.325L23.68 15.115C23.7306 15.073 23.7889 15.0413 23.8517 15.0218C23.9145 15.0024 23.9805 14.9955 24.046 15.0015C24.1114 15.0075 24.1751 15.0264 24.2332 15.057C24.2914 15.0877 24.343 15.1294 24.385 15.18C24.427 15.2306 24.4587 15.2889 24.4782 15.3517C24.4976 15.4145 24.5045 15.4805 24.4985 15.546C24.4925 15.6114 24.4736 15.6751 24.443 15.7332C24.4123 15.7914 24.3706 15.843 24.32 15.885Z" fill="white"/>
</svg>
