<svg width="56" height="42" viewBox="0 0 56 42" fill="none" xmlns="http://www.w3.org/2000/svg">
<rect x="0.5" width="55" height="42" rx="10" fill="#00B383"/>
<rect x="13" y="6" width="30" height="30" rx="6" fill="#00B383"/>
<path d="M28 12C26.22 12 24.4799 12.5278 22.9999 13.5168C21.5198 14.5057 20.3663 15.9113 19.6851 17.5558C19.0039 19.2004 18.8257 21.01 19.1729 22.7558C19.5202 24.5016 20.3774 26.1053 21.636 27.364C22.8947 28.6226 24.4984 29.4798 26.2442 29.8271C27.99 30.1743 29.7996 29.9961 31.4442 29.3149C33.0887 28.6337 34.4943 27.4802 35.4832 26.0001C36.4722 24.5201 37 22.78 37 21C37 18.6131 36.0518 16.3239 34.364 14.636C32.6761 12.9482 30.3869 12 28 12ZM31.48 19.3275L26.98 23.0775C26.8362 23.198 26.6524 23.2602 26.465 23.2519C26.2776 23.2436 26.1001 23.1653 25.9675 23.0325L24.4675 21.5325C24.3263 21.3913 24.2469 21.1997 24.2469 21C24.2469 20.8003 24.3263 20.6087 24.4675 20.4675C24.6087 20.3263 24.8003 20.2469 25 20.2469C25.1997 20.2469 25.3913 20.3263 25.5325 20.4675L26.545 21.4875L30.52 18.1725C30.5958 18.1095 30.6834 18.062 30.7775 18.0328C30.8717 18.0036 30.9707 17.9932 31.0689 18.0022C31.1671 18.0113 31.2626 18.0396 31.3499 18.0855C31.4371 18.1315 31.5145 18.1942 31.5775 18.27C31.6405 18.3458 31.688 18.4333 31.7172 18.5275C31.7464 18.6217 31.7568 18.7207 31.7478 18.8189C31.7387 18.9171 31.7104 19.0126 31.6645 19.0999C31.6185 19.1871 31.5558 19.2645 31.48 19.3275Z" fill="white"/>
</svg>
