<svg width="24" height="22" viewBox="0 0 24 22" fill="none" xmlns="http://www.w3.org/2000/svg">
<rect width="24" height="22" rx="6" fill="#3F60EE"/>
<g clip-path="url(#clip0_807_15656)">
<path d="M14.3901 11.04C14.3578 11.0083 14.3174 10.986 14.2734 10.9754C14.2294 10.9648 14.1833 10.9664 14.1401 10.98C14.0946 10.9933 14.0475 11 14.0001 11C13.8675 11 13.7403 10.9473 13.6465 10.8536C13.5528 10.7598 13.5001 10.6326 13.5001 10.5C13.4931 10.4519 13.4931 10.4031 13.5001 10.355C13.5131 10.3114 13.5138 10.265 13.5024 10.221C13.4909 10.1769 13.4677 10.1368 13.4351 10.105L13.0751 9.745C12.9125 9.5906 12.6968 9.50452 12.4726 9.50452C12.2484 9.50452 12.0327 9.5906 11.8701 9.745L9.0001 6.895V6.54C8.99968 6.40777 8.96431 6.27801 8.89758 6.16386C8.83084 6.04971 8.73512 5.95523 8.6201 5.89L7.1251 5.035C7.0776 5.00795 7.02254 4.99722 6.96836 5.00444C6.91418 5.01167 6.86386 5.03645 6.8251 5.075L6.0751 5.825C6.03655 5.86376 6.01177 5.91408 6.00454 5.96826C5.99732 6.02244 6.00805 6.0775 6.0351 6.125L6.8901 7.625C6.95597 7.73909 7.05072 7.83381 7.16483 7.89964C7.27893 7.96547 7.40837 8.00008 7.5401 8H7.8951L10.7701 10.875C10.611 11.0352 10.5217 11.2518 10.5217 11.4775C10.5217 11.7032 10.611 11.9198 10.7701 12.08L11.1301 12.44C11.1619 12.4726 11.202 12.4958 11.2461 12.5073C11.2901 12.5187 11.3365 12.518 11.3801 12.505C11.4545 12.4866 11.5322 12.4855 11.6072 12.5019C11.6821 12.5183 11.7522 12.5518 11.8122 12.5996C11.8721 12.6475 11.9202 12.7085 11.9528 12.7779C11.9854 12.8473 12.0016 12.9233 12.0001 13C12.0067 13.0464 12.0067 13.0936 12.0001 13.14C11.9865 13.1832 11.9849 13.2293 11.9955 13.2733C12.0061 13.3173 12.0284 13.3577 12.0601 13.39L15.2401 16.57C15.3753 16.7055 15.5358 16.8129 15.7125 16.8863C15.8893 16.9596 16.0788 16.9973 16.2701 16.9973C16.4614 16.9973 16.6509 16.9596 16.8277 16.8863C17.0044 16.8129 17.1649 16.7055 17.3001 16.57L17.5951 16.275C17.7306 16.1398 17.838 15.9793 17.9114 15.8026C17.9847 15.6258 18.0224 15.4364 18.0224 15.245C18.0224 15.0537 17.9847 14.8642 17.9114 14.6874C17.838 14.5107 17.7306 14.3502 17.5951 14.215L14.3901 11.04ZM12.5451 9C12.887 9.00957 13.2124 9.14903 13.4551 9.39L13.8151 9.75C13.9487 9.88309 14.0272 10.0616 14.0351 10.25C14.0385 10.3104 14.0637 10.3674 14.106 10.4106C14.1483 10.4538 14.2048 10.4803 14.2651 10.485C14.3639 10.4921 14.4606 10.5176 14.5501 10.56C14.5847 10.5674 14.6205 10.5674 14.6551 10.56H14.7051C14.8808 10.5211 15.0601 10.501 15.2401 10.5C15.6018 10.502 15.9604 10.4324 16.2952 10.2954C16.6299 10.1583 16.9343 9.95643 17.1908 9.70133C17.4473 9.44624 17.6508 9.14296 17.7897 8.80894C17.9286 8.47492 18.0001 8.11674 18.0001 7.755C17.9973 7.30385 17.8822 6.86049 17.6651 6.465C17.6443 6.427 17.6141 6.39504 17.5773 6.37226C17.5405 6.34947 17.4984 6.33663 17.4551 6.335C17.4121 6.3333 17.3694 6.34249 17.331 6.36172C17.2925 6.38095 17.2595 6.4096 17.2351 6.445L16.5001 7.5C16.4542 7.57352 16.3899 7.63383 16.3137 7.67503C16.2374 7.71623 16.1518 7.73689 16.0651 7.735H15.9401C15.7098 7.73148 15.4857 7.65978 15.2962 7.52896C15.1066 7.39814 14.9601 7.21407 14.8751 7C14.8451 6.92495 14.8326 6.84404 14.8387 6.76344C14.8448 6.68285 14.8692 6.60471 14.9101 6.535L15.6051 5.4C15.6266 5.36184 15.6378 5.31879 15.6378 5.275C15.6378 5.23121 15.6266 5.18816 15.6051 5.15C15.5816 5.10626 15.5471 5.06941 15.505 5.0431C15.4629 5.01679 15.4147 5.00194 15.3651 5H15.2501C14.8879 5.00065 14.5294 5.07273 14.195 5.2121C13.8607 5.35147 13.5571 5.5554 13.3017 5.81222C13.0463 6.06904 12.844 6.37371 12.7065 6.70879C12.5689 7.04387 12.4988 7.40279 12.5001 7.765C12.5017 8.07199 12.4422 8.37622 12.3251 8.66C12.3097 8.69749 12.3036 8.73816 12.3074 8.77851C12.3112 8.81887 12.3248 8.85769 12.3469 8.89164C12.3691 8.9256 12.3991 8.95365 12.4345 8.9734C12.4699 8.99315 12.5096 9.00399 12.5501 9.005L12.5451 9ZM11.1901 13C11.0266 12.9809 10.8739 12.9089 10.7551 12.795L10.3951 12.435C10.2054 12.2452 10.0766 12.0033 10.0251 11.74C10.0163 11.6958 9.99577 11.6548 9.96562 11.6214C9.93547 11.5879 9.89684 11.5632 9.85382 11.5499C9.81079 11.5366 9.76497 11.5352 9.72119 11.5457C9.67741 11.5563 9.6373 11.5785 9.6051 11.61L6.3651 14.875C6.24326 14.9971 6.14801 15.1431 6.08536 15.3039C6.02271 15.4646 5.994 15.6365 6.00104 15.8089C6.00809 15.9813 6.05073 16.1503 6.12629 16.3054C6.20186 16.4605 6.3087 16.5982 6.4401 16.71C6.66002 16.8985 6.94047 17.0014 7.2301 17C7.40697 16.9991 7.58192 16.9633 7.74494 16.8946C7.90795 16.826 8.05583 16.7259 8.1801 16.6L11.3351 13.445C11.3682 13.412 11.3914 13.3703 11.402 13.3247C11.4126 13.2792 11.4103 13.2316 11.3952 13.1873C11.38 13.143 11.3528 13.1039 11.3166 13.0743C11.2803 13.0447 11.2365 13.0259 11.1901 13.02V13Z" fill="white"/>
</g>
<defs>
<clipPath id="clip0_807_15656">
<rect width="12" height="12" fill="white" transform="translate(6 5)"/>
</clipPath>
</defs>
</svg>
