<svg width="56" height="42" viewBox="0 0 56 42" fill="none" xmlns="http://www.w3.org/2000/svg">
<rect x="0.5" width="55" height="42" rx="10" fill="#3F60EE"/>
<rect x="13" y="6" width="30" height="30" rx="6" fill="#3F60EE"/>
<g clip-path="url(#clip0_1802_5107)">
<path d="M31.1868 21.0533C31.1437 21.0111 31.0899 20.9813 31.0312 20.9672C30.9725 20.9531 30.9111 20.9552 30.8535 20.9733C30.7928 20.991 30.73 21 30.6668 21C30.49 21 30.3204 20.9298 30.1954 20.8047C30.0704 20.6797 30.0001 20.5101 30.0001 20.3333C29.9907 20.2692 29.9907 20.2041 30.0001 20.14C30.0174 20.0818 30.0185 20.02 30.0032 19.9613C29.9879 19.9025 29.9569 19.8491 29.9135 19.8067L29.4335 19.3267C29.2167 19.1208 28.9291 19.006 28.6301 19.006C28.3312 19.006 28.0436 19.1208 27.8268 19.3267L24.0001 15.5267V15.0533C23.9996 14.877 23.9524 14.704 23.8634 14.5518C23.7745 14.3996 23.6468 14.2736 23.4935 14.1867L21.5001 13.0467C21.4368 13.0106 21.3634 12.9963 21.2911 13.0059C21.2189 13.0156 21.1518 13.0486 21.1001 13.1L20.1001 14.1C20.0487 14.1517 20.0157 14.2188 20.0061 14.291C19.9964 14.3633 20.0107 14.4367 20.0468 14.5L21.1868 16.5C21.2746 16.6521 21.401 16.7784 21.5531 16.8662C21.7052 16.954 21.8778 17.0001 22.0535 17H22.5268L26.3601 20.8333C26.148 21.0469 26.029 21.3357 26.029 21.6367C26.029 21.9377 26.148 22.2264 26.3601 22.44L26.8401 22.92C26.8825 22.9634 26.936 22.9944 26.9947 23.0097C27.0535 23.025 27.1153 23.0239 27.1735 23.0067C27.2727 22.9821 27.3763 22.9807 27.4762 23.0026C27.5761 23.0245 27.6696 23.069 27.7495 23.1328C27.8295 23.1966 27.8936 23.278 27.9371 23.3705C27.9805 23.4631 28.0021 23.5644 28.0001 23.6667C28.0089 23.7286 28.0089 23.7914 28.0001 23.8533C27.982 23.9109 27.9799 23.9724 27.994 24.0311C28.0081 24.0898 28.0379 24.1436 28.0801 24.1867L32.3201 28.4267C32.5003 28.6073 32.7144 28.7506 32.95 28.8483C33.1857 28.9461 33.4383 28.9964 33.6935 28.9964C33.9486 28.9964 34.2012 28.9461 34.4369 28.8483C34.6725 28.7506 34.8866 28.6073 35.0668 28.4267L35.4601 28.0333C35.6407 27.8531 35.784 27.6391 35.8818 27.4034C35.9796 27.1678 36.0299 26.9151 36.0299 26.66C36.0299 26.4049 35.9796 26.1522 35.8818 25.9166C35.784 25.6809 35.6407 25.4669 35.4601 25.2867L31.1868 21.0533ZM28.7268 18.3333C29.1826 18.3461 29.6165 18.532 29.9401 18.8533L30.4201 19.3333C30.5982 19.5108 30.703 19.7488 30.7135 20C30.7181 20.0805 30.7517 20.1566 30.808 20.2142C30.8644 20.2718 30.9398 20.307 31.0201 20.3133C31.1519 20.3228 31.2808 20.3568 31.4001 20.4133C31.4463 20.4232 31.494 20.4232 31.5401 20.4133H31.6068C31.8411 20.3615 32.0802 20.3347 32.3201 20.3333C32.8025 20.336 33.2805 20.2432 33.7269 20.0605C34.1733 19.8777 34.5791 19.6086 34.9211 19.2684C35.2631 18.9283 35.5344 18.524 35.7196 18.0786C35.9048 17.6332 36.0001 17.1557 36.0001 16.6733C35.9965 16.0718 35.843 15.4806 35.5535 14.9533C35.5258 14.9027 35.4854 14.8601 35.4364 14.8297C35.3873 14.7993 35.3312 14.7822 35.2735 14.78C35.2162 14.7777 35.1592 14.79 35.1079 14.8156C35.0567 14.8413 35.0127 14.8795 34.9801 14.9267L34.0001 16.3333C33.9389 16.4314 33.8533 16.5118 33.7516 16.5667C33.6499 16.6216 33.5357 16.6492 33.4201 16.6467H33.2535C32.9464 16.642 32.6476 16.5464 32.3949 16.3719C32.1421 16.1975 31.9468 15.9521 31.8335 15.6667C31.7935 15.5666 31.7769 15.4587 31.7849 15.3513C31.793 15.2438 31.8256 15.1396 31.8801 15.0467L32.8068 13.5333C32.8354 13.4824 32.8505 13.425 32.8505 13.3667C32.8505 13.3083 32.8354 13.2509 32.8068 13.2C32.7755 13.1417 32.7295 13.0926 32.6734 13.0575C32.6173 13.0224 32.5529 13.0026 32.4868 13H32.3335C31.8505 13.0009 31.3725 13.097 30.9267 13.2828C30.4809 13.4686 30.0762 13.7405 29.7356 14.083C29.395 14.4254 29.1253 14.8316 28.9419 15.2784C28.7585 15.7252 28.665 16.2037 28.6668 16.6867C28.6689 17.096 28.5896 17.5016 28.4335 17.88C28.4129 17.93 28.4048 17.9842 28.4099 18.038C28.415 18.0918 28.433 18.1436 28.4625 18.1889C28.4921 18.2341 28.5322 18.2715 28.5794 18.2979C28.6265 18.3242 28.6794 18.3387 28.7335 18.34L28.7268 18.3333ZM26.9201 23.6667C26.7022 23.6412 26.4985 23.5452 26.3401 23.3933L25.8601 22.9133C25.6073 22.6603 25.4355 22.3377 25.3668 21.9867C25.3551 21.9278 25.3277 21.8731 25.2875 21.8285C25.2473 21.7839 25.1958 21.751 25.1384 21.7332C25.0811 21.7155 25.02 21.7135 24.9616 21.7276C24.9032 21.7417 24.8497 21.7713 24.8068 21.8133L20.4868 26.1667C20.3243 26.3295 20.1974 26.5242 20.1138 26.7385C20.0303 26.9528 19.992 27.1821 20.0014 27.4119C20.0108 27.6417 20.0676 27.8671 20.1684 28.0739C20.2691 28.2806 20.4116 28.4643 20.5868 28.6133C20.88 28.8646 21.254 29.0019 21.6401 29C21.876 28.9988 22.1092 28.951 22.3266 28.8595C22.5439 28.768 22.7411 28.6345 22.9068 28.4667L27.1135 24.26C27.1576 24.216 27.1885 24.1604 27.2027 24.0996C27.2169 24.0389 27.2137 23.9754 27.1935 23.9164C27.1734 23.8573 27.1371 23.8051 27.0888 23.7657C27.0404 23.7263 26.982 23.7012 26.9201 23.6933V23.6667Z" fill="white"/>
</g>
<defs>
<clipPath id="clip0_1802_5107">
<rect width="16" height="16" fill="white" transform="translate(20 13)"/>
</clipPath>
</defs>
</svg>
