<svg width="26" height="26" viewBox="0 0 26 26" fill="none" xmlns="http://www.w3.org/2000/svg">
<rect opacity="0.7" width="26" height="26" rx="8" fill="#3F60EE"/>
<path fill-rule="evenodd" clip-rule="evenodd" d="M12.8848 4.3335C8.15205 4.3335 4.29346 8.22219 4.29346 12.9978C4.29346 17.7734 8.15283 21.6668 12.8848 21.6668C17.6167 21.6668 21.4683 17.7734 21.4683 12.9978C21.4683 8.22219 17.6167 4.3335 12.8848 4.3335ZM12.8848 5.90882C13.8075 5.90727 14.7215 6.08958 15.5744 6.4453C16.4272 6.80102 17.202 7.32316 17.8545 7.98176C18.5069 8.64036 19.0241 9.42248 19.3764 10.2832C19.7286 11.144 19.9091 12.0665 19.9073 12.9978C19.9092 13.9293 19.7288 14.8521 19.3767 15.7132C19.0245 16.5743 18.5074 17.3567 17.855 18.0157C17.2026 18.6747 16.4277 19.1973 15.5748 19.5535C14.7219 19.9097 13.8078 20.0925 12.8848 20.0915C11.9613 20.0926 11.0467 19.9099 10.1934 19.5539C9.34 19.1978 8.5646 18.6754 7.91156 18.0164C7.25852 17.3575 6.74068 16.5751 6.38768 15.7139C6.03468 14.8527 5.85345 13.9298 5.85438 12.9978C5.85438 9.07366 8.99651 5.90882 12.8848 5.90882ZM12.8723 7.47312C12.7691 7.47414 12.6672 7.4958 12.5724 7.53683C12.4775 7.57786 12.3917 7.63745 12.3199 7.71216C12.248 7.78687 12.1916 7.87522 12.1538 7.9721C12.1159 8.06897 12.0975 8.17245 12.0996 8.27654V12.9978C12.1 13.1014 12.1207 13.204 12.1605 13.2996C12.2003 13.3951 12.2584 13.4818 12.3314 13.5547L15.4532 16.7069C15.5255 16.7819 15.6117 16.8416 15.7071 16.8826C15.8024 16.9236 15.9049 16.945 16.0085 16.9456C16.1121 16.9462 16.2148 16.926 16.3106 16.8861C16.4064 16.8462 16.4933 16.7875 16.5664 16.7134C16.6395 16.6392 16.6971 16.5511 16.7361 16.4542C16.7751 16.3573 16.7946 16.2536 16.7934 16.149C16.7922 16.0444 16.7704 15.9411 16.7292 15.8452C16.6881 15.7492 16.6284 15.6625 16.5537 15.59L13.6621 12.6717V8.27654C13.6642 8.17099 13.6452 8.06608 13.6064 7.96806C13.5675 7.87004 13.5095 7.78091 13.4358 7.70596C13.3621 7.63102 13.2743 7.57178 13.1775 7.53178C13.0807 7.49178 12.9769 7.47184 12.8723 7.47312Z" fill="white"/>
</svg>
