<svg width="26" height="26" viewBox="0 0 26 26" fill="none" xmlns="http://www.w3.org/2000/svg">
<rect opacity="0.7" width="26" height="26" rx="8" fill="#FE2424"/>
<path d="M13 21.6667C11.2859 21.6667 9.6103 21.1584 8.18507 20.2061C6.75985 19.2538 5.64902 17.9002 4.99306 16.3166C4.3371 14.733 4.16547 12.9904 4.49987 11.3092C4.83428 9.62805 5.6597 8.0838 6.87175 6.87175C8.08381 5.65969 9.62806 4.83427 11.3092 4.49987C12.9904 4.16546 14.733 4.33709 16.3166 4.99305C17.9002 5.64901 19.2538 6.75984 20.2061 8.18506C21.1584 9.61029 21.6667 11.2859 21.6667 13C21.6667 15.2985 20.7536 17.5029 19.1283 19.1283C17.503 20.7536 15.2986 21.6667 13 21.6667ZM13 5.81905C11.5798 5.81905 10.1914 6.24021 9.01049 7.02926C7.82959 7.81831 6.90919 8.93982 6.36568 10.252C5.82217 11.5641 5.67996 13.008 5.95704 14.4009C6.23412 15.7939 6.91804 17.0734 7.92231 18.0777C8.92659 19.082 10.2061 19.7659 11.5991 20.043C12.992 20.3201 14.4359 20.1778 15.748 19.6343C17.0602 19.0908 18.1817 18.1704 18.9708 16.9895C19.7598 15.8086 20.181 14.4203 20.181 13C20.181 11.0955 19.4244 9.26899 18.0777 7.9223C16.731 6.57561 14.9045 5.81905 13 5.81905Z" fill="white"/>
<path d="M13.7429 15.7238H12.2571V17.2095H13.7429V15.7238Z" fill="white"/>
<path d="M13.7429 8.79051H12.2571V14.7334H13.7429V8.79051Z" fill="white"/>
</svg>
