<svg width="26" height="26" viewBox="0 0 26 26" fill="none" xmlns="http://www.w3.org/2000/svg">
<rect width="26" height="26" rx="8" fill="#FAD16B" fill-opacity="0.8"/>
<path d="M17.986 15.7083L16.984 14.3894C16.9664 14.3659 16.9569 14.3374 16.9569 14.3081V10.5842C16.9686 9.54245 16.5797 8.53604 15.8705 7.77291C15.1613 7.00979 14.186 6.54828 13.1463 6.48375C12.6038 6.45582 12.0612 6.5386 11.5518 6.72705C11.0423 6.9155 10.5765 7.20568 10.1827 7.57991C9.78898 7.95415 9.47553 8.40461 9.26145 8.90387C9.04737 9.40313 8.93715 9.94074 8.93751 10.484V14.4462C8.93751 14.4756 8.928 14.5041 8.91042 14.5275L8.02209 15.7083C7.86316 15.8828 7.75832 16.0998 7.72031 16.3327C7.6823 16.5657 7.71276 16.8047 7.80799 17.0206C7.90321 17.2366 8.05911 17.4203 8.25674 17.5494C8.45436 17.6784 8.68522 17.7473 8.92126 17.7477H17.0788C17.3155 17.7489 17.5474 17.6812 17.7463 17.5527C17.9452 17.4242 18.1023 17.2407 18.1985 17.0244C18.2947 16.8081 18.3259 16.5684 18.2882 16.3347C18.2504 16.101 18.1455 15.8834 17.986 15.7083ZM17.4444 16.6833C17.4137 16.7562 17.3621 16.8183 17.296 16.8617C17.2299 16.9051 17.1524 16.9279 17.0733 16.9271H8.92126C8.84348 16.9256 8.76775 16.9019 8.70307 16.8587C8.63839 16.8155 8.58748 16.7546 8.55639 16.6833C8.5253 16.612 8.51534 16.5332 8.52769 16.4564C8.54003 16.3796 8.57417 16.308 8.62605 16.25L8.65584 16.2148L9.56855 15.0123C9.68781 14.8478 9.75139 14.6494 9.75001 14.4462V10.484C9.75 10.0641 9.83288 9.64832 9.99389 9.26053C10.1549 8.87274 10.3909 8.52055 10.6883 8.22415C10.9857 7.92775 11.3387 7.69298 11.727 7.53328C12.1153 7.37359 12.5314 7.29212 12.9513 7.29354H13.1083C13.9397 7.34831 14.7184 7.7203 15.2834 8.33268C15.8484 8.94506 16.1566 9.75105 16.1444 10.5842V14.3217C16.1444 14.5289 16.2119 14.7304 16.3367 14.8958L17.3496 16.2283L17.3767 16.2581C17.4311 16.3157 17.4672 16.3882 17.4802 16.4663C17.4932 16.5445 17.4827 16.6248 17.4498 16.6969L17.4444 16.6833ZM14.6033 18.7985C14.4001 19.0264 14.151 19.2087 13.8723 19.3336C13.5937 19.4584 13.2918 19.5229 12.9865 19.5229C12.6811 19.5229 12.3792 19.4584 12.1006 19.3336C11.822 19.2087 11.5728 19.0264 11.3696 18.7985C11.3046 18.7175 11.2731 18.6147 11.2816 18.5111C11.29 18.4076 11.3379 18.3112 11.4152 18.2419C11.4925 18.1725 11.5935 18.1354 11.6974 18.1382C11.8012 18.141 11.9 18.1835 11.9735 18.2569C12.1006 18.3996 12.2564 18.5139 12.4307 18.5921C12.6051 18.6703 12.794 18.7108 12.9851 18.7108C13.1762 18.7108 13.3651 18.6703 13.5395 18.5921C13.7138 18.5139 13.8696 18.3996 13.9967 18.2569C14.0702 18.1835 14.169 18.141 14.2729 18.1382C14.3767 18.1354 14.4777 18.1725 14.555 18.2419C14.6323 18.3112 14.6802 18.4076 14.6887 18.5111C14.6971 18.6147 14.6656 18.7175 14.6006 18.7985H14.6033Z" fill="white"/>
</svg>
