<svg width="26" height="26" viewBox="0 0 26 26" fill="none" xmlns="http://www.w3.org/2000/svg">
<rect width="26" height="26" rx="8" fill="#979797"/>
<path d="M14.7355 19.7573H7.67219C7.20547 19.7567 6.75804 19.5711 6.42802 19.241C6.098 18.911 5.91235 18.4636 5.91177 17.9969V10.5815C5.91178 10.5244 5.92382 10.4679 5.9471 10.4158C5.97039 10.3637 6.0044 10.317 6.04692 10.2789L10.4371 6.34644C10.5116 6.27978 10.608 6.24286 10.708 6.24271H14.7353C15.202 6.24328 15.6494 6.42894 15.9794 6.75895C16.3094 7.08897 16.4951 7.53641 16.4957 8.00312V11.8192C16.4957 11.9269 16.4529 12.0302 16.3767 12.1064C16.3005 12.1826 16.1972 12.2254 16.0894 12.2254C15.9817 12.2254 15.8783 12.1826 15.8022 12.1064C15.726 12.0302 15.6832 11.9269 15.6832 11.8192V8.00312C15.6829 7.75181 15.5829 7.51087 15.4052 7.33316C15.2275 7.15545 14.9866 7.05549 14.7353 7.05521H10.864L6.72427 10.7629V17.9969C6.72456 18.2482 6.82452 18.4891 7.00223 18.6668C7.17994 18.8445 7.42088 18.9445 7.67219 18.9448H14.7355C14.9868 18.9445 15.2278 18.8445 15.4055 18.6668C15.5832 18.4891 15.6832 18.2482 15.6834 17.9969V15.0123C15.6834 14.9045 15.7262 14.8012 15.8024 14.725C15.8786 14.6488 15.9819 14.606 16.0897 14.606C16.1974 14.606 16.3008 14.6488 16.377 14.725C16.4531 14.8012 16.4959 14.9045 16.4959 15.0123V17.9969C16.4954 18.4636 16.3097 18.911 15.9797 19.241C15.6497 19.5711 15.2022 19.7567 14.7355 19.7573Z" fill="white"/>
<path d="M9.35418 10.9878H6.31813C6.2359 10.9878 6.1556 10.9628 6.08786 10.9162C6.02011 10.8696 5.96812 10.8035 5.93874 10.7267C5.90936 10.6499 5.90398 10.566 5.92332 10.4861C5.94265 10.4061 5.98579 10.3339 6.04703 10.2791L10.4372 6.34655C10.4957 6.2942 10.568 6.25988 10.6455 6.24775C10.723 6.23561 10.8024 6.24618 10.874 6.27817C10.9456 6.31017 11.0065 6.36221 11.0492 6.42803C11.0919 6.49385 11.1146 6.57062 11.1146 6.64907V9.22741C11.114 9.69412 10.9284 10.1416 10.5983 10.4716C10.2683 10.8016 9.82089 10.9872 9.35418 10.9878ZM7.38034 10.1753H9.35418C9.60549 10.175 9.84643 10.0751 10.0241 9.89737C10.2018 9.71966 10.3018 9.47872 10.3021 9.22741V7.55826L7.38034 10.1753ZM12.1267 17.783C12.0648 17.783 12.0037 17.7689 11.9481 17.7417C11.8925 17.7145 11.8439 17.675 11.8059 17.6261C11.7679 17.5773 11.7416 17.5204 11.7289 17.4598C11.7163 17.3992 11.7176 17.3366 11.7329 17.2766L12.277 15.1397C12.295 15.0689 12.3317 15.0044 12.3834 14.9528L17.5615 9.77449C17.7903 9.54632 18.1002 9.41819 18.4233 9.41819C18.7464 9.41819 19.0563 9.54632 19.2851 9.77449L19.7314 10.2211C19.9596 10.4499 20.0877 10.7598 20.0877 11.0829C20.0877 11.406 19.9596 11.7159 19.7314 11.9447L14.5531 17.1227C14.5014 17.1745 14.4366 17.2113 14.3657 17.2292L12.2261 17.7708C12.1936 17.779 12.1602 17.7831 12.1267 17.783ZM13.0367 15.4482L12.6889 16.8156L14.058 16.4689L19.157 11.37C19.233 11.2937 19.2757 11.1903 19.2757 11.0826C19.2757 10.9749 19.233 10.8716 19.157 10.7953L18.7107 10.3489C18.6343 10.2729 18.531 10.2303 18.4233 10.2303C18.3156 10.2303 18.2123 10.2729 18.1359 10.3489L13.0367 15.4482Z" fill="white"/>
<path d="M18.8771 12.6306C18.8238 12.6306 18.771 12.6201 18.7217 12.5996C18.6724 12.5792 18.6277 12.5492 18.59 12.5114L16.9943 10.9162C16.9203 10.8396 16.8793 10.737 16.8803 10.6304C16.8812 10.5239 16.9239 10.422 16.9992 10.3467C17.0746 10.2714 17.1765 10.2287 17.283 10.2277C17.3895 10.2268 17.4921 10.2678 17.5687 10.3418L19.1642 11.937C19.2209 11.9938 19.2596 12.0661 19.2752 12.1449C19.2909 12.2237 19.2828 12.3053 19.2521 12.3795C19.2214 12.4537 19.1694 12.5171 19.1026 12.5617C19.0359 12.6064 18.9574 12.6305 18.8771 12.6306Z" fill="white"/>
</svg>
