<svg width="26" height="26" viewBox="0 0 26 26" fill="none" xmlns="http://www.w3.org/2000/svg">
<rect width="26" height="26" rx="8" fill="#3F60EE" fill-opacity="0.8"/>
<g clip-path="url(#clip0_779_9610)">
<path d="M13 21.0925C11.6202 21.0925 10.2713 20.6833 9.12399 19.9167C7.97668 19.1501 7.08246 18.0605 6.55442 16.7857C6.02637 15.5109 5.88821 14.1081 6.1574 12.7548C6.4266 11.4014 7.09106 10.1583 8.06677 9.18258C9.04247 8.20688 10.2856 7.54241 11.6389 7.27322C12.9923 7.00402 14.3951 7.14218 15.6699 7.67023C16.9447 8.19828 18.0343 9.0925 18.8009 10.2398C19.5675 11.3871 19.9767 12.736 19.9767 14.1158C19.9752 15.9657 19.2397 17.7394 17.9317 19.0475C16.6236 20.3556 14.8499 21.0911 13 21.0925ZM13 8.22791C11.8342 8.22791 10.6946 8.57369 9.72529 9.2215C8.75602 9.8693 8.00066 10.79 7.55477 11.8672C7.10888 12.9444 6.99249 14.1296 7.22032 15.273C7.44816 16.4163 8.00998 17.4664 8.83472 18.2904C9.65946 19.1144 10.7101 19.6752 11.8536 19.902C12.9972 20.1288 14.1823 20.0113 15.2591 19.5644C16.3358 19.1175 17.2559 18.3613 17.9028 17.3915C18.5497 16.4216 18.8944 15.2817 18.8933 14.1158C18.8905 12.5542 18.2685 11.0574 17.1637 9.9537C16.059 8.84996 14.5616 8.22934 13 8.22791Z" fill="white"/>
<path d="M12.3717 14.6954L12.4637 14.4408V13.3575L12.3771 13.6121C12.4313 13.6121 12.4637 13.4821 12.4637 13.3575L12.4638 10.0533H13.5471V13.3521C13.5651 13.5189 13.5484 13.6875 13.4979 13.8475C13.4474 14.0075 13.3644 14.1552 13.2539 14.2815C13.1435 14.4077 13.008 14.5097 12.8562 14.5809C12.7043 14.6522 12.5394 14.6912 12.3717 14.6954ZM12.4583 5.41667H13.5417V7.58334H12.4583V5.41667Z" fill="white"/>
<path d="M14.625 4.875H11.375C11.0759 4.875 10.8333 5.11751 10.8333 5.41667C10.8333 5.71582 11.0759 5.95833 11.375 5.95833H14.625C14.9242 5.95833 15.1667 5.71582 15.1667 5.41667C15.1667 5.11751 14.9242 4.875 14.625 4.875Z" fill="white"/>
<path d="M8.30778 6.38452L6.68002 7.55008C6.43771 7.72359 6.38193 8.06068 6.55544 8.30299C6.72895 8.54531 7.06604 8.60109 7.30836 8.42758L8.93612 7.26202C9.17843 7.08851 9.23421 6.75142 9.0607 6.5091C8.88719 6.26679 8.5501 6.21101 8.30778 6.38452Z" fill="white"/>
<path d="M17.6745 6.38737C17.4311 6.21336 17.0928 6.26955 16.9188 6.51288C16.7448 6.75622 16.801 7.09454 17.0443 7.26856L18.6789 8.43753C18.9222 8.61155 19.2606 8.55536 19.4346 8.31202C19.6086 8.06869 19.5524 7.73036 19.3091 7.55634L17.6745 6.38737Z" fill="white"/>
</g>
<defs>
<clipPath id="clip0_779_9610">
<rect width="17.3333" height="17.3333" fill="white" transform="translate(4.33334 4.33333)"/>
</clipPath>
</defs>
</svg>
