<svg width="18" height="18" viewBox="0 0 18 18" fill="none" xmlns="http://www.w3.org/2000/svg">
<path d="M14.0822 7.16568H13.4669V4.69472C13.4669 2.3054 11.6869 0.232668 9.30751 0.0176297C8.67099 -0.0382735 8.0298 0.0391201 7.42487 0.244872C6.81993 0.450625 6.26453 0.780218 5.79409 1.21262C5.32366 1.64502 4.94852 2.17074 4.69262 2.75623C4.43673 3.34172 4.30568 3.97412 4.30786 4.61309V7.16568H3.69261C3.2749 7.16568 2.8743 7.33161 2.57894 7.62697C2.28358 7.92233 2.11765 8.32293 2.11765 8.74064V15.5462C2.11765 15.9639 2.28358 16.3645 2.57894 16.6599C2.8743 16.9552 3.2749 17.1212 3.69261 17.1212H14.0822C14.4999 17.1212 14.9005 16.9552 15.1958 16.6599C15.4912 16.3645 15.6571 15.9639 15.6571 15.5462V8.74064C15.6571 8.32293 15.4912 7.92233 15.1958 7.62697C14.9005 7.33161 14.4999 7.16568 14.0822 7.16568ZM5.30341 4.61309C5.30124 4.11242 5.40348 3.6168 5.60359 3.15785C5.80371 2.69891 6.0973 2.28673 6.46565 1.94761C6.83399 1.6085 7.26898 1.3499 7.74287 1.18832C8.21676 1.02675 8.71912 0.96574 9.21791 1.0092C11.0776 1.17645 12.4714 2.80119 12.4714 4.66884V7.16568H5.30341V4.61309ZM3.1132 8.74064C3.1132 8.58697 3.17424 8.43959 3.2829 8.33093C3.39156 8.22227 3.53894 8.16123 3.69261 8.16123H14.0822C14.2358 8.16123 14.3832 8.22227 14.4919 8.33093C14.6005 8.43959 14.6616 8.58697 14.6616 8.74064V13.9354H3.1132V8.74064ZM14.0822 16.1256H3.69261C3.53894 16.1256 3.39156 16.0646 3.2829 15.9559C3.17424 15.8473 3.1132 15.6999 3.1132 15.5462V14.931H14.6616V15.5462C14.6616 15.6999 14.6005 15.8473 14.4919 15.9559C14.3832 16.0646 14.2358 16.1256 14.0822 16.1256Z" fill="white"/>
</svg>
