<svg width="50" height="50" viewBox="0 0 50 50" fill="none" xmlns="http://www.w3.org/2000/svg">
<rect opacity="0.7" width="50" height="50" rx="8" fill="#3F60EE"/>
<path fill-rule="evenodd" clip-rule="evenodd" d="M24.7788 8.33325C15.6774 8.33325 8.25708 15.8115 8.25708 24.9954C8.25708 34.1792 15.6789 41.6666 24.7788 41.6666C33.8787 41.6666 41.2855 34.1792 41.2855 24.9954C41.2855 15.8115 33.8787 8.33325 24.7788 8.33325ZM24.7788 11.3627C26.5534 11.3597 28.3111 11.7103 29.9511 12.3944C31.5912 13.0785 33.0812 14.0826 34.3359 15.3491C35.5906 16.6157 36.5852 18.1198 37.2627 19.7751C37.9401 21.4304 38.2871 23.2044 38.2838 24.9954C38.2873 26.7868 37.9405 28.5614 37.2632 30.2173C36.586 31.8732 35.5915 33.3779 34.3369 34.6452C33.0823 35.9126 31.5922 36.9175 29.952 37.6025C28.3119 38.2875 26.5539 38.6391 24.7788 38.6371C23.003 38.6393 21.2442 38.288 19.6031 37.6032C17.962 36.9185 16.4708 35.9138 15.215 34.6466C13.9591 33.3795 12.9633 31.8748 12.2844 30.2187C11.6056 28.5626 11.2571 26.7876 11.2588 24.9954C11.2588 17.4489 17.3014 11.3627 24.7788 11.3627ZM24.7548 14.371C24.5564 14.373 24.3604 14.4146 24.178 14.4935C23.9957 14.5724 23.8307 14.687 23.6925 14.8307C23.5543 14.9744 23.4457 15.1443 23.373 15.3306C23.3003 15.5169 23.2649 15.7158 23.2689 15.916V24.9954C23.2697 25.1947 23.3096 25.3919 23.386 25.5757C23.4625 25.7594 23.5742 25.9262 23.7147 26.0663L29.7182 32.1283C29.8571 32.2725 30.023 32.3874 30.2063 32.4662C30.3897 32.545 30.5867 32.5862 30.786 32.5873C30.9852 32.5885 31.1827 32.5496 31.3669 32.4729C31.5511 32.3962 31.7184 32.2833 31.8589 32.1407C31.9994 31.9981 32.1103 31.8287 32.1853 31.6423C32.2602 31.456 32.2976 31.2565 32.2954 31.0554C32.2931 30.8543 32.2512 30.6557 32.172 30.4711C32.0929 30.2865 31.9782 30.1197 31.8345 29.9804L26.2737 24.3683V15.916C26.2777 15.713 26.2413 15.5113 26.1665 15.3228C26.0918 15.1343 25.9803 14.9629 25.8386 14.8188C25.6969 14.6746 25.5279 14.5607 25.3417 14.4838C25.1556 14.4069 24.956 14.3685 24.7548 14.371Z" fill="white"/>
</svg>
