<svg width="41" height="40" viewBox="0 0 41 40" fill="none" xmlns="http://www.w3.org/2000/svg">
<rect x="0.5" width="40" height="40" rx="10" fill="#F8F8F8"/>
<path d="M10.5021 27.6133L15.6541 22.4613L16.1229 21.3766L19.1244 24.3782L18.0204 24.8663L12.8878 29.999L10.5021 27.6133ZM29.1403 10L26.3817 11.5259L25.8613 13.5L17.5099 21.8514L18.7782 23.1197L27.1296 14.7684L28.9751 14.1194L30.5011 11.3608L29.1403 10ZM18.0028 15.8801C18.3879 15.1647 18.5454 14.3487 18.4542 13.5413C18.3629 12.7339 18.0273 11.9736 17.4922 11.3621C16.9571 10.7507 16.248 10.3173 15.4598 10.1198C14.6716 9.92233 13.8419 9.97026 13.0817 10.2572L15.7401 12.9151C15.8817 13.0569 15.9613 13.2491 15.9613 13.4495C15.9613 13.6499 15.8817 13.8421 15.7401 13.9839L14.4864 15.2376C14.3446 15.3792 14.1524 15.4588 13.952 15.4588C13.7516 15.4588 13.5594 15.3792 13.4176 15.2376L10.7597 12.5792C10.4711 13.3394 10.4217 14.1697 10.6182 14.9587C10.8148 15.7478 11.2479 16.4578 11.8594 16.9938C12.4709 17.5298 13.2317 17.8659 14.0397 17.9573C14.8477 18.0487 15.6643 17.8909 16.3801 17.505L18.663 19.7844L20.2865 18.163L18.0028 15.8801ZM26.2725 24.1498L22.4662 20.3435L20.8456 21.9663L24.6519 25.7725C24.419 26.3249 24.3543 26.9337 24.466 27.5227C24.5777 28.1116 24.8608 28.6545 25.2797 29.0833C25.6987 29.512 26.2349 29.8076 26.8211 29.9328C27.4074 30.0581 28.0175 30.0075 28.5751 29.7874L26.5107 27.7229C26.4522 27.6644 26.4058 27.595 26.3741 27.5185C26.3424 27.4421 26.3261 27.3601 26.3261 27.2774C26.3261 27.1946 26.3424 27.1127 26.3741 27.0362C26.4058 26.9598 26.4522 26.8903 26.5107 26.8318L27.3356 26.0065C27.4539 25.8884 27.6143 25.822 27.7814 25.822C27.9486 25.822 28.1089 25.8884 28.2272 26.0065L30.2916 28.0709C30.5119 27.5131 30.5625 26.9028 30.437 26.3164C30.3116 25.73 30.0158 25.1937 29.5867 24.7748C29.1576 24.356 28.6143 24.0732 28.0251 23.962C27.4358 23.8508 26.8269 23.9161 26.2746 24.1498H26.2725Z" fill="#3F60EE"/>
</svg>
