<svg width="41" height="40" viewBox="0 0 41 40" fill="none" xmlns="http://www.w3.org/2000/svg">
<path d="M29.0447 18.499C29.6631 17.8806 30.1081 17.1104 30.3349 16.2658C30.5617 15.4211 30.5624 14.5317 30.337 13.6866C30.3079 13.5802 30.2512 13.4833 30.1727 13.4058C30.0941 13.3283 29.9964 13.273 29.8895 13.2455C29.783 13.2166 29.6707 13.2165 29.5641 13.2451C29.4575 13.2737 29.3604 13.3299 29.2825 13.4082L27.0735 15.6235L24.8832 13.4332L27.1079 11.2116C27.1824 11.134 27.2356 11.0386 27.2625 10.9345C27.2893 10.8303 27.2889 10.721 27.2612 10.6171C27.2336 10.5102 27.1783 10.4126 27.1008 10.334C27.0234 10.2554 26.9265 10.1987 26.82 10.1697C25.9708 9.94218 25.0766 9.94347 24.2281 10.1734C23.3796 10.4034 22.607 10.8538 21.9889 11.4789C21.3708 12.104 20.9291 12.8815 20.7087 13.7326C20.4883 14.5836 20.4971 15.4778 20.7341 16.3244L19.9926 17.0691L17.6333 14.7098L17.1671 13.3112C17.121 13.1827 17.0342 13.0728 16.9199 12.9983L13.8441 10.93C13.7235 10.8492 13.5786 10.8129 13.4342 10.8272C13.2898 10.8414 13.1549 10.9054 13.0524 11.0082L11.5161 12.554C11.4119 12.6552 11.3461 12.7896 11.3301 12.934C11.3141 13.0785 11.3489 13.224 11.4285 13.3456L13.478 16.4214C13.5525 16.5357 13.6624 16.6225 13.7909 16.6686L15.1895 17.1348L17.5488 19.4941L16.8041 20.2356C15.9588 20.0028 15.0669 19.9972 14.2187 20.2195C13.3705 20.4417 12.596 20.8839 11.9735 21.5014C11.3509 22.1189 10.9024 22.8897 10.6732 23.7361C10.444 24.5824 10.4423 25.4743 10.6682 26.3215C10.6972 26.428 10.7539 26.5249 10.8325 26.6023C10.9111 26.6798 11.0087 26.7351 11.1156 26.7627C11.2221 26.7915 11.3344 26.7916 11.441 26.7631C11.5476 26.7345 11.6448 26.6782 11.7226 26.6L13.9317 24.3847L16.122 26.575L13.8973 28.7965C13.8228 28.8741 13.7696 28.9696 13.7427 29.0737C13.7158 29.1778 13.7163 29.2871 13.744 29.3911C13.7725 29.4968 13.8282 29.5931 13.9056 29.6706C13.9831 29.748 14.0794 29.8037 14.1851 29.8322C14.933 30.0315 15.7171 30.0536 16.475 29.8968C17.233 29.74 17.9439 29.4087 18.5514 28.929C19.1589 28.4494 19.6462 27.8348 19.9745 27.1339C20.3029 26.4331 20.4634 25.6653 20.4431 24.8916C20.663 25.0342 20.9195 25.1102 21.1816 25.1106C21.3175 25.1078 21.4524 25.0857 21.5821 25.0449L25.1053 28.5681C25.4948 28.9568 26.0226 29.175 26.5728 29.175C27.1231 29.175 27.6508 28.9568 28.0403 28.5681L29.0666 27.5418C29.4553 27.1523 29.6735 26.6246 29.6735 26.0743C29.6735 25.5241 29.4553 24.9963 29.0666 24.6068L25.5496 21.0898C25.5905 20.9601 25.6126 20.8253 25.6153 20.6893C25.615 20.4272 25.5389 20.1708 25.3963 19.9509H25.509C26.1649 19.9536 26.8149 19.8267 27.4216 19.5776C28.0284 19.3284 28.58 18.9619 29.0447 18.499ZM22.0358 16.2806C21.8363 15.737 21.766 15.1545 21.8306 14.579C21.8953 14.0036 22.093 13.4512 22.4081 12.9654C22.7233 12.4796 23.1472 12.0739 23.6463 11.7804C24.1454 11.4868 24.706 11.3135 25.2837 11.2742L23.5471 12.9951C23.4303 13.1112 23.364 13.2686 23.3625 13.4332C23.3632 13.5989 23.4296 13.7576 23.5471 13.8744L26.626 16.9533C26.7428 17.0708 26.9015 17.1372 27.0672 17.1379C27.1498 17.138 27.2316 17.1217 27.3078 17.09C27.3841 17.0583 27.4533 17.0119 27.5115 16.9533L29.245 15.2167C29.2056 15.7944 29.0323 16.355 28.7388 16.8541C28.4452 17.3532 28.0395 17.7771 27.5538 18.0923C27.068 18.4074 26.5155 18.6051 25.9401 18.6698C25.3647 18.7344 24.7822 18.6641 24.2386 18.4646C24.1264 18.424 24.005 18.4162 23.8886 18.4422C23.7722 18.4683 23.6656 18.5271 23.5815 18.6117L23.2686 18.9246C23.092 18.9949 22.9321 19.1015 22.7993 19.2375L22.4864 19.5504L20.8781 17.9546L21.8918 16.9377C21.9759 16.8532 22.0341 16.7465 22.0596 16.6301C22.0851 16.5137 22.0768 16.3924 22.0358 16.2806ZM15.7434 15.9927L14.4104 15.5484L12.7615 13.0765L13.575 12.263L16.0469 13.9119L16.4912 15.2449C16.5213 15.3379 16.5727 15.4225 16.6414 15.4921L21.5852 20.4328L20.9312 21.0867L15.9906 16.1429C15.921 16.0742 15.8364 16.0228 15.7434 15.9927ZM18.1089 27.6639C17.471 28.3027 16.6223 28.6875 15.7215 28.7465L17.4581 27.013C17.5748 26.897 17.6412 26.7396 17.6427 26.575C17.642 26.4093 17.5756 26.2506 17.4581 26.1338L14.3791 23.0548C14.3211 22.9948 14.2516 22.9469 14.1747 22.9142C14.0979 22.8814 14.0152 22.8643 13.9317 22.864C13.8491 22.8639 13.7673 22.8802 13.6911 22.9119C13.6148 22.9436 13.5456 22.99 13.4874 23.0486L11.7602 24.7852C11.7995 24.2075 11.9728 23.6469 12.2664 23.1478C12.5599 22.6487 12.9656 22.2248 13.4514 21.9096C13.9372 21.5945 14.4896 21.3968 15.065 21.3322C15.6404 21.2675 16.223 21.3378 16.7666 21.5373C16.8784 21.5783 16.9997 21.5866 17.1161 21.5611C17.2325 21.5356 17.3392 21.4774 17.4236 21.3934L18.4406 20.3796L20.0332 21.9722L19.7203 22.2851C19.5843 22.4179 19.4777 22.5778 19.4074 22.7545L19.0945 23.0674C19.0099 23.1515 18.9511 23.258 18.9251 23.3744C18.899 23.4909 18.9068 23.6123 18.9475 23.7245C19.1986 24.3926 19.2531 25.1187 19.1045 25.8168C18.9559 26.515 18.6104 27.1559 18.1089 27.6639ZM21.1284 23.8371L20.6183 23.3239C20.6088 23.3149 20.6012 23.304 20.596 23.2919C20.5908 23.2798 20.5881 23.2667 20.5881 23.2535C20.5881 23.2404 20.5908 23.2273 20.596 23.2152C20.6012 23.2031 20.6088 23.1922 20.6183 23.1831L23.6941 20.1073C23.7026 20.0973 23.7131 20.0893 23.725 20.0839C23.7369 20.0785 23.7499 20.0758 23.763 20.076C23.7765 20.0758 23.79 20.0784 23.8024 20.0838C23.8148 20.0892 23.8259 20.0972 23.835 20.1073L24.3356 20.6299C24.3532 20.6498 24.3631 20.6753 24.3638 20.7018C24.3636 20.7276 24.3535 20.7522 24.3356 20.7707L21.2567 23.8496C21.2476 23.8577 21.237 23.8638 21.2255 23.8676C21.214 23.8713 21.2018 23.8727 21.1898 23.8715C21.1777 23.8703 21.166 23.8666 21.1555 23.8607C21.1449 23.8548 21.1357 23.8468 21.1284 23.8371ZM24.7893 22.088L27.2393 24.5349L25.049 26.7252L22.6021 24.2752L24.7893 22.088ZM28.1936 26.6563L27.1673 27.6826C27.0098 27.8321 26.8009 27.9154 26.5838 27.9154C26.3666 27.9154 26.1578 27.8321 26.0002 27.6826L25.9314 27.6107L28.1217 25.4204L28.1936 25.4892C28.3482 25.6441 28.435 25.8539 28.435 26.0728C28.435 26.2916 28.3482 26.5014 28.1936 26.6563Z" fill="#8B97A8"/>
</svg>
